<?xml version="1.0" encoding="UTF-8" standalone="no"?>
<svg
   width="6.8940964in"
   height="4.4940958in"
   viewBox="0 0 661.81207 431.41938"
   version="1.1"
   xml:space="preserve"
   style="clip-rule:evenodd;fill-rule:evenodd;stroke-linejoin:round;stroke-miterlimit:2"
   id="svg10"
   sodipodi:docname="Spacers2.svg"
   inkscape:version="1.3.2 (091e20e, 2023-11-25, custom)"
   xmlns:inkscape="http://www.inkscape.org/namespaces/inkscape"
   xmlns:sodipodi="http://sodipodi.sourceforge.net/DTD/sodipodi-0.dtd"
   xmlns="http://www.w3.org/2000/svg"
   xmlns:svg="http://www.w3.org/2000/svg"><sodipodi:namedview
   id="namedview1"
   pagecolor="#ffffff"
   bordercolor="#000000"
   borderopacity="0.25"
   inkscape:showpageshadow="2"
   inkscape:pageopacity="0.0"
   inkscape:pagecheckerboard="0"
   inkscape:deskcolor="#d1d1d1"
   inkscape:document-units="in"
   inkscape:zoom="1.8930123"
   inkscape:cx="335.70834"
   inkscape:cy="229.0001"
   inkscape:window-width="2560"
   inkscape:window-height="1351"
   inkscape:window-x="-9"
   inkscape:window-y="-9"
   inkscape:window-maximized="1"
   inkscape:current-layer="g3" /><defs
   id="defs10" />
    
    
    
    
    
<g
   id="g3"
   style="display:inline"><path
     id="path3-5-3-5-0-9-3-6"
     style="clip-rule:evenodd;fill:none;fill-opacity:1;fill-rule:evenodd;stroke:#5b00ff;stroke-width:1.91994;stroke-linejoin:round;stroke-miterlimit:2;stroke-dasharray:none;stroke-dashoffset:0;stroke-opacity:1"
     d="m 569.54968,383.01357 h 90.34224 m -448.38818,0 H 448.38811 M 0,383.01357 H 90.333133 M 569.54968,335.2914 h 90.34224 m -448.38818,0 H 448.38811 M 0,335.2914 H 90.333133 M 569.54986,287.56924 h 90.34223 m -448.38818,0 H 448.38829 M 0,287.56924 H 90.333133 M 569.54968,239.84708 h 90.34224 m -448.38818,0 H 448.38811 M 0,239.84708 H 90.333133 M 569.54968,192.12491 h 90.34224 m -448.38818,0 H 448.38811 M 0,192.12491 H 90.333133 M 569.54986,144.40275 h 90.34223 m -448.38818,0 h 236.88438 m -448.388219,0 H 90.333203 M 569.54986,96.680592 h 90.34223 m -448.38818,0 H 448.38829 M 0,96.680592 H 90.333133 M 569.54986,48.958432 h 90.34223 m -448.38818,0 H 448.38829 M 0,48.958432 h 90.333013"
     sodipodi:nodetypes="cccccccccccccccccccccccccccccccccccccccccccccccc" /><path
     d="M 0.95997,0.95997 H 660.85206 V 430.45942 H 0.95997 Z"
     style="clip-rule:evenodd;fill:none;fill-opacity:1;fill-rule:evenodd;stroke:#ff0000;stroke-width:1.91994;stroke-linejoin:round;stroke-miterlimit:2;stroke-dasharray:none;stroke-dashoffset:0;stroke-opacity:1"
     id="path1" /></g></svg>
