<?xml version="1.0" encoding="UTF-8" standalone="no"?>
<svg
   width="7.6156421in"
   height="9.6490078in"
   viewBox="0 0 731.07824 926.27508"
   version="1.1"
   xml:space="preserve"
   style="clip-rule:evenodd;fill-rule:evenodd;stroke-linejoin:round;stroke-miterlimit:2"
   id="svg10"
   xmlns="http://www.w3.org/2000/svg"
   xmlns:svg="http://www.w3.org/2000/svg"><defs
   id="defs10" />
    
    
    
    <g
   id="g57"
   style="display:inline"
   transform="translate(0.95997,0.95997)"><path
     style="clip-rule:evenodd;display:inline;fill:none;fill-rule:evenodd;stroke:#000000;stroke-width:1.91994;stroke-linejoin:round;stroke-miterlimit:2;stroke-dasharray:none;stroke-opacity:1"
     d="m 96.260588,46.894982 h 86.284342 c 12.43121,19.126624 28.5801,28.040117 52.47879,28.040117 3.88244,70.537531 87.87804,66.079911 87.87804,66.079911 -14.57426,57.40238 -2.14191,107.84843 45.64307,149.18858 16.00936,-9.12977 -24.39381,26.58304 0.12109,30.96971 84.46656,15.11435 128.97126,-45.65836 136.24564,-94.91688 48.42931,-8.64456 101.42607,-36.47516 130.73214,-69.5134 0.48988,18.69374 -0.34608,37.55347 -1.46285,56.44742 l -38.41869,8.22043 -2.25774,165.17049 20.57747,41.10025 2.79288,133.89219 c -26.61343,-4.6706 -7.90332,151.05005 -7.73218,226.20565 -18.59894,13.25688 -37.48538,23.25141 -56.59193,30.80956 l -2.85538,47.84807 c 0,0 -44.1005,0.50005 -50.78939,-0.61326 -3.05438,-5.22285 -17.5485,-42.00645 -4.75375,-77.62642 -71.82288,-16.8553 -171.16946,-3.27062 -282.27026,-1.00582 -7.8883,20.97366 -7.29071,58.17574 -3.01748,80.03064 l -81.15365,-0.78514 c 5.09585,-82.14682 9.51929,-198.33093 10.22038,-283.23311 l 14.40774,-37.36404 -1.41792,-116.10175 c 0.3095,-13.49188 7.14504,-25.53527 17.42522,-36.81522 0.86874,-43.79499 0.55364,-87.70524 -1.76166,-131.81219 6.65205,-0.5123 13.05609,-2.07569 19.29625,-4.33579 l 0.0508,-7.9392 c -21.56021,1.84268 -41.81034,1.72079 -60.79883,-0.29491 l -1.35152,-79.70058 -21.7493,-0.16601 c 0.9839,-27.93844 -4.917352,-93.667842 -5.771302,-121.779298 z"
     id="path57" /><path
     style="clip-rule:evenodd;display:inline;fill:none;fill-rule:evenodd;stroke:#ff0000;stroke-width:1.91994;stroke-linejoin:round;stroke-miterlimit:2;stroke-dasharray:none;stroke-opacity:1"
     d="M 0,0 V 113.30692 H 19.198604 V 785.28539 H 0 v 139.06976 h 172.58431 v -19.20056 h 383.9877 v 19.20056 H 729.15828 V 785.28539 H 709.95772 V 113.30692 h 19.20056 V 0 H 556.57201 V 19.198604 H 172.58431 V 0 Z"
     id="path5" /></g>
    
</svg>
