<?xml version="1.0" encoding="UTF-8" standalone="no"?>
<svg
   width="6.8940964in"
   height="4.4940958in"
   viewBox="0 0 661.81207 431.41938"
   version="1.1"
   xml:space="preserve"
   style="clip-rule:evenodd;fill-rule:evenodd;stroke-linejoin:round;stroke-miterlimit:2"
   id="svg10"
   xmlns="http://www.w3.org/2000/svg"
   xmlns:svg="http://www.w3.org/2000/svg"><defs
   id="defs10" />
    
    
    
    
    
<g
   id="g3"
   style="display:inline"><path
     id="path3-5-3-5-0-9-3-6"
     style="clip-rule:evenodd;fill:none;fill-opacity:1;fill-rule:evenodd;stroke:#5b00ff;stroke-width:1.91994;stroke-linejoin:round;stroke-miterlimit:2;stroke-dasharray:none;stroke-dashoffset:0;stroke-opacity:1"
     d="m 617.59119,383.01357 h 42.30073 m -448.38818,0 H 448.38811 M 0,383.01357 H 42.300902 M 617.59119,335.2914 h 42.30073 m -448.38818,0 H 448.38811 M 0,335.2914 H 42.300902 M 617.59137,287.56924 h 42.30072 m -448.38818,0 H 448.38829 M 0,287.56924 H 42.300902 M 617.59119,239.84708 h 42.30073 m -448.38818,0 H 448.38811 M 0,239.84708 H 42.300902 M 617.59119,192.12491 h 42.30073 m -448.38818,0 H 448.38811 M 0,192.12491 H 42.300902 M 617.59137,144.40275 h 42.30072 m -448.38818,0 h 236.88438 m -448.388219,0 H 42.300972 M 617.59137,96.680592 h 42.30072 m -448.38818,0 H 448.38829 M 0,96.680592 H 42.300902 M 617.59137,48.958432 h 42.30072 m -448.38818,0 H 448.38829 M 0,48.958432 h 42.300782" /><path
     d="M 0.95997,0.95997 H 660.85206 V 430.45942 H 0.95997 Z"
     style="clip-rule:evenodd;fill:none;fill-opacity:1;fill-rule:evenodd;stroke:#ff0000;stroke-width:1.91994;stroke-linejoin:round;stroke-miterlimit:2;stroke-dasharray:none;stroke-dashoffset:0;stroke-opacity:1"
     id="path1" /></g></svg>
