<?xml version="1.0" encoding="UTF-8" standalone="no"?>
<svg
   width="7.6156425in"
   height="9.6490088in"
   viewBox="0 0 731.07828 926.27517"
   version="1.1"
   xml:space="preserve"
   style="clip-rule:evenodd;fill-rule:evenodd;stroke-linejoin:round;stroke-miterlimit:2"
   id="svg10"
   xmlns="http://www.w3.org/2000/svg"
   xmlns:svg="http://www.w3.org/2000/svg"><defs
   id="defs10" />
    
    <g
   id="g78"
   style="display:inline"
   transform="translate(0.95997,0.95997)"><path
     style="clip-rule:evenodd;display:inline;fill:none;fill-opacity:1;fill-rule:evenodd;stroke:#000000;stroke-width:1.91994;stroke-linejoin:round;stroke-miterlimit:2;stroke-dasharray:none;stroke-opacity:1"
     d="m 460.56925,819.50503 -6.89041,-74.17145"
     id="path78" /><path
     style="clip-rule:evenodd;display:inline;fill:none;fill-opacity:1;fill-rule:evenodd;stroke:#000000;stroke-width:1.91994;stroke-linejoin:round;stroke-miterlimit:2;stroke-dasharray:none;stroke-opacity:1"
     d="M 452.52654,724.95532 450.4309,676.25961"
     id="path77" /><path
     style="clip-rule:evenodd;display:inline;fill:none;fill-opacity:1;fill-rule:evenodd;stroke:#000000;stroke-width:1.91994;stroke-linejoin:round;stroke-miterlimit:2;stroke-dasharray:none;stroke-opacity:1"
     d="m 556.93433,563.44686 -0.61034,50.24449"
     id="path76" /><path
     style="clip-rule:evenodd;display:inline;fill:none;fill-opacity:1;fill-rule:evenodd;stroke:#000000;stroke-width:1.91994;stroke-linejoin:round;stroke-miterlimit:2;stroke-dasharray:none;stroke-opacity:1"
     d="m 449.50124,600.57262 0.93747,-57.4298"
     id="path75" /><path
     style="clip-rule:evenodd;display:inline;fill:none;fill-opacity:1;fill-rule:evenodd;stroke:#000000;stroke-width:1.91994;stroke-linejoin:round;stroke-miterlimit:2;stroke-dasharray:none;stroke-opacity:1"
     d="m 557.02417,556.03498 0.63475,-52.2991"
     id="path74" /><path
     style="clip-rule:evenodd;display:inline;fill:none;fill-opacity:1;fill-rule:evenodd;stroke:#000000;stroke-width:1.91994;stroke-linejoin:round;stroke-miterlimit:2;stroke-dasharray:none;stroke-opacity:1"
     d="m 452.26287,490.72262 c -0.72978,16.83761 -1.27793,32.9994 -1.71283,48.74649"
     id="path73" /><path
     style="clip-rule:evenodd;display:inline;fill:none;fill-opacity:1;fill-rule:evenodd;stroke:#000000;stroke-width:1.91994;stroke-linejoin:round;stroke-miterlimit:2;stroke-dasharray:none;stroke-opacity:1"
     d="m 549.15626,451.08717 -1.55171,87.07046"
     id="path72" /><path
     style="clip-rule:evenodd;display:inline;fill:none;fill-opacity:1;fill-rule:evenodd;stroke:#000000;stroke-width:1.91994;stroke-linejoin:round;stroke-miterlimit:2;stroke-dasharray:none;stroke-opacity:1"
     d="m 549.20802,448.15953 0.0634,-3.54872"
     id="path71" /><path
     style="clip-rule:evenodd;display:inline;fill:none;fill-opacity:1;fill-rule:evenodd;stroke:#000000;stroke-width:1.91994;stroke-linejoin:round;stroke-miterlimit:2;stroke-dasharray:none;stroke-opacity:1"
     d="m 558.3796,444.29247 c 0.006,-0.44302 -0.25585,21.09502 -0.25585,21.09502"
     id="path70" /><path
     style="clip-rule:evenodd;display:inline;fill:none;fill-opacity:1;fill-rule:evenodd;stroke:#000000;stroke-width:1.91994;stroke-linejoin:round;stroke-miterlimit:2;stroke-dasharray:none;stroke-opacity:1"
     d="m 450.9094,484.7482 2.89639,-42.68613"
     id="path69" /><path
     style="clip-rule:evenodd;display:inline;fill:none;fill-opacity:1;fill-rule:evenodd;stroke:#000000;stroke-width:1.91994;stroke-linejoin:round;stroke-miterlimit:2;stroke-dasharray:none;stroke-opacity:1"
     d="M 595.74656,424.53724 C 502.41841,385.38473 404.65418,381.67185 301.77941,417.50422"
     id="path68" /><path
     style="clip-rule:evenodd;display:inline;fill:none;fill-opacity:1;fill-rule:evenodd;stroke:#000000;stroke-width:1.91994;stroke-linejoin:round;stroke-miterlimit:2;stroke-dasharray:none;stroke-opacity:1"
     d="m 541.48463,379.84237 64.44325,-0.083"
     id="path67" /><path
     style="clip-rule:evenodd;display:inline;fill:none;fill-opacity:1;fill-rule:evenodd;stroke:#000000;stroke-width:1.91994;stroke-linejoin:round;stroke-miterlimit:2;stroke-dasharray:none;stroke-opacity:1"
     d="m 249.95489,396.37603 c 20.01048,-8.3738 39.94917,-16.80322 61.4082,-20.56766 l 0.0156,-10.73603 4.66977,1.31832 0.59254,8.4501 28.16826,-1.6886"
     id="path66" /><path
     style="clip-rule:evenodd;display:inline;fill:none;fill-opacity:1;fill-rule:evenodd;stroke:#000000;stroke-width:1.91994;stroke-linejoin:round;stroke-miterlimit:2;stroke-dasharray:none;stroke-opacity:1"
     d="m 503.43897,350.52887 24.34297,26.28919"
     id="path65" /><path
     style="clip-rule:evenodd;display:inline;fill:none;fill-opacity:1;fill-rule:evenodd;stroke:#000000;stroke-width:1.91994;stroke-linejoin:round;stroke-miterlimit:2;stroke-dasharray:none;stroke-opacity:1"
     d="M 351.31688,371.99009 491.40029,346.98503"
     id="path64" /><path
     style="clip-rule:evenodd;display:inline;fill:none;fill-opacity:1;fill-rule:evenodd;stroke:#000000;stroke-width:1.91994;stroke-linejoin:round;stroke-miterlimit:2;stroke-dasharray:none;stroke-opacity:1"
     d="m 416.04724,341.43248 0.0664,7.94896 -1.01755,2.46086 -2.86319,-2.2929 0.24414,-7.45484 z"
     id="path63" /><path
     style="clip-rule:evenodd;display:inline;fill:none;fill-opacity:1;fill-rule:evenodd;stroke:#000000;stroke-width:1.91994;stroke-linejoin:round;stroke-miterlimit:2;stroke-dasharray:none;stroke-opacity:1"
     d="m 525.02422,306.31055 0.46287,9.83172 -3.07998,3.24013 -1.8847,-2.93936 0.66599,-10.08757 z"
     id="path62" /><path
     style="clip-rule:evenodd;display:inline;fill:none;fill-opacity:1;fill-rule:evenodd;stroke:#000000;stroke-width:1.91994;stroke-linejoin:round;stroke-miterlimit:2;stroke-dasharray:none;stroke-opacity:1"
     d="m 511.50512,306.13282 0.38475,8.96456 -2.95889,3.48817 -1.62885,-2.2304 0.0879,-9.71258 z"
     id="path61" /><path
     style="clip-rule:evenodd;display:inline;fill:none;fill-opacity:1;fill-rule:evenodd;stroke:#000000;stroke-width:1.91994;stroke-linejoin:round;stroke-miterlimit:2;stroke-dasharray:none;stroke-opacity:1"
     d="m 568.24744,282.96364 c 4.39909,-9.31443 8.60818,-15.85499 12.72421,-20.03451 2.71316,-2.75501 5.41965,-4.48876 8.09739,-5.25374"
     id="path60" /><path
     style="clip-rule:evenodd;display:inline;fill:none;fill-opacity:1;fill-rule:evenodd;stroke:#000000;stroke-width:1.91994;stroke-linejoin:round;stroke-miterlimit:2;stroke-dasharray:none;stroke-opacity:1"
     d="m 594.92042,257.64019 c 3.35389,0.82036 6.52884,3.04087 9.54266,6.4705 3.52867,4.01551 6.89137,9.59862 10.16374,16.37252"
     id="path59" /><path
     style="clip-rule:evenodd;display:inline;fill:none;fill-opacity:1;fill-rule:evenodd;stroke:#4300ff;stroke-width:1.91994;stroke-linejoin:round;stroke-miterlimit:2;stroke-dasharray:none;stroke-opacity:1"
     d="M 78.278746,48.168381 H 666.37516 V 228.80909 l -9.1872,0.3203 c -31.62564,1.53095 -60.52332,8.66286 -95.12586,4.08385 -2.12402,-5.40855 -3.85566,-10.81749 -1.89643,-16.22604 -8.54438,-2.89872 -12.88096,-6.30706 -16.82954,-9.76336 -7.66606,10.49251 -16.83643,13.63577 -25.46598,19.42125 l 1.49019,11.13441 -15.69481,16.58931 c -6.12795,0.03 -10.18167,-2.62299 -13.07966,-6.76736 l -41.04752,21.46807 c -18.55053,10.03753 -41.75446,10.77343 -63.11907,15.18701 l -52.63699,-1.58198 c -10.01779,3.7178 8.32524,1.37289 -73.55233,20.45052 l -14.05229,-6.99783 c -11.35014,2.40367 -19.79023,1.24483 -22.81763,-6.54471 -11.69513,19.6671 -25.04053,31.58358 -38.76243,41.72523 L 78.278746,320.91356 Z"
     id="path58" /><path
     style="clip-rule:evenodd;display:inline;fill:none;fill-opacity:1;fill-rule:evenodd;stroke:#ff0000;stroke-width:1.91994;stroke-linejoin:round;stroke-miterlimit:2;stroke-dasharray:none;stroke-opacity:1"
     d="m 0,0 v 48.168381 65.138539 h 19.198605 v 671.9785 H 0 v 139.06977 h 172.58432 v -19.20056 h 383.98772 v 19.20056 h 4.46079 168.12548 V 785.28542 h -19.20056 v -671.9785 h 19.20056 V 0 H 556.57204 V 19.198605 H 172.58432 V 0 H 78.278746 Z"
     id="path10" /><path
     d="m 19.894932,396.44726 205.971918,3.46766"
     style="clip-rule:evenodd;display:inline;fill:none;fill-opacity:1;fill-rule:evenodd;stroke:#000000;stroke-width:1.91994;stroke-linejoin:round;stroke-miterlimit:2;stroke-dasharray:none;stroke-opacity:1"
     id="path1-7" /></g>
    
    
    
</svg>
