<?xml version="1.0" encoding="UTF-8" standalone="no"?>
<svg
   width="7.6156425in"
   height="9.6490088in"
   viewBox="0 0 731.07828 926.27517"
   version="1.1"
   xml:space="preserve"
   style="clip-rule:evenodd;fill-rule:evenodd;stroke-linejoin:round;stroke-miterlimit:2"
   id="svg10"
   xmlns="http://www.w3.org/2000/svg"
   xmlns:svg="http://www.w3.org/2000/svg"><defs
   id="defs10" />
    
    
    
    <g
   id="g56"
   style="display:inline"
   transform="translate(0.95997,0.95997)"><path
     style="clip-rule:evenodd;display:inline;fill:none;fill-rule:evenodd;stroke:#000000;stroke-width:1.91994;stroke-linejoin:round;stroke-miterlimit:2;stroke-dasharray:none;stroke-opacity:1"
     d="m 348.91659,679.40794 13.97219,19.02673 4.54089,1.92768 1.32221,11.90782 13.93508,10.07196 5.70101,14.39798 11.62073,2.45499 6.49197,10.31216 c 11.1247,0.13815 22.88569,7.99735 35.65315,27.99129 -15.62069,-1.86991 -30.8915,-2.22385 -45.88134,-1.37885 l 2.61318,-13.92142 -3.94517,-6.73027 c -7.6118,2.10767 -14.82386,2.50854 -21.65752,1.28121 -5.0756,-7.64673 -8.03857,-16.96953 -10.74769,-26.48939 4.12133,2.35507 7.86466,8.8864 11.51525,16.41746 -0.23697,-14.14002 -1.62237,-27.88096 -17.05413,-36.72931 z"
     id="path56" /><path
     style="clip-rule:evenodd;display:inline;fill:none;fill-rule:evenodd;stroke:#000000;stroke-width:1.91994;stroke-linejoin:round;stroke-miterlimit:2;stroke-dasharray:none;stroke-opacity:1"
     d="m 304.44338,612.96477 c 7.44433,6.49971 4.95259,44.81213 33.8544,100.61395 -6.00746,16.50473 0.44454,30.52792 12.00155,43.53378 l -3.40418,-18.40567 c 5.11083,10.3263 8.76523,22.35421 9.90204,37.3328 -20.51056,5.23062 -39.62427,7.20691 -57.84777,7.11695 -1.71322,-8.4853 -2.56635,-17.22374 -1.85736,-26.41909 9.22703,-22.63495 5.70356,-35.84342 -0.13867,-43.64115 1.99181,-31.90741 3.69818,-69.35511 7.48999,-100.13157 z"
     id="path55" /><path
     style="clip-rule:evenodd;display:inline;fill:none;fill-rule:evenodd;stroke:#000000;stroke-width:1.91994;stroke-linejoin:round;stroke-miterlimit:2;stroke-dasharray:none;stroke-opacity:1"
     d="m 336.72947,534.43211 7.26929,6.31035 -2.15619,12.45665 12.35117,11.55041 -8.93332,10.66956 5.38463,10.49966 -5.03696,5.85723 5.89824,8.35328 -6.76151,10.0309 5.33771,8.25365 -6.24392,10.45866 5.83381,10.76724 -2.36322,5.28498 -6.01348,-3.33192 -0.81444,-10.95082 -4.27525,-3.97254 c -4.62409,-32.90984 -3.10153,-62.56285 0.52344,-92.23729 z"
     id="path54" /><path
     style="clip-rule:evenodd;display:inline;fill:none;fill-rule:evenodd;stroke:#000000;stroke-width:1.91994;stroke-linejoin:round;stroke-miterlimit:2;stroke-dasharray:none;stroke-opacity:1"
     d="m 514.93859,205.08914 c -7.49973,7.14262 -15.17977,15.43146 -17.66153,20.3138 -4.42234,8.69767 -16.17008,16.10506 -24.33908,20.37631 7.63422,-5.42597 16.82786,-13.71879 19.92125,-22.97583 2.13592,-6.39626 12.15872,-14.73559 22.07936,-17.71428 z"
     id="path53" /><path
     style="clip-rule:evenodd;display:inline;fill:none;fill-rule:evenodd;stroke:#000000;stroke-width:1.91994;stroke-linejoin:round;stroke-miterlimit:2;stroke-dasharray:none;stroke-opacity:1"
     d="m 375.48018,197.81203 c -2.79879,10.57658 -3.51693,18.31057 -0.83983,21.40557 -4.73936,6.7561 -8.23512,13.47515 -10.86099,20.16732 -1.68119,-16.28175 1.08849,-30.63068 11.70082,-41.57289 z"
     id="path52" /><path
     style="clip-rule:evenodd;display:inline;fill:none;fill-rule:evenodd;stroke:#000000;stroke-width:1.91994;stroke-linejoin:round;stroke-miterlimit:2;stroke-dasharray:none;stroke-opacity:1"
     d="m 615.85725,46.283674 h 5.63459 c -1.39299,5.000895 -7.98352,10.193517 -17.77287,9.437198 6.67033,-1.268136 10.79653,-4.354695 12.13828,-9.437198 z"
     id="path51" /><path
     style="clip-rule:evenodd;display:inline;fill:none;fill-rule:evenodd;stroke:#3dff00;stroke-width:1.91994;stroke-linejoin:round;stroke-miterlimit:2;stroke-dasharray:none;stroke-opacity:1"
     d="m 257.62262,46.283674 c 6.92331,9.560336 14.64736,16.437507 23.13402,15.833479 -1.34207,21.722809 16.31751,38.359407 47.80706,31.614223 25.25954,-5.409899 39.21665,-7.775645 57.90832,8.322004 -17.49722,18.587 8.44199,38.00569 9.79655,48.71914 -3.26311,7.65636 -2.82796,13.87721 0.53123,18.96228 -26.07291,13.68604 -43.34636,36.20885 -45.7993,73.61483 9.69968,28.1014 -5.04458,81.22539 -23.85473,120.29695 l 4.32605,28.04791 c -3.18947,10.76646 -1.92729,23.00501 -2.05657,40.79557 -4.32307,19.28068 -5.44985,25.84173 -7.55054,44.83646 -3.50746,1.31729 -2.29359,2.20318 -3.73622,0.13086 -0.24625,-0.35342 -0.98201,-5.36293 -0.93942,-7.57984 l -4.99984,-5.84357 c 6.63831,-27.18444 -1.87286,-40.16383 -24.61445,-39.79755 -4.17704,-0.45302 -6.98674,-3.3637 -9.49188,-6.824 -4.90012,-0.93817 -9.22391,-2.57717 -12.82967,-5.08967 -14.5143,6.47723 -25.57424,44.35963 2.60929,85.78047 -3.29161,-9.25318 -6.28572,-21.31654 -3.94518,-30.49904 0.84508,4.86756 5.91752,12.14384 9.94694,16.33348 -5.65617,-12.4436 -6.84666,-22.20083 -4.55063,-29.86041 2.4222,7.37685 9.38028,18.85394 13.17145,21.21222 0.54631,0.34056 7.34194,-2.39385 9.89031,-4.18344 1.74556,6.14309 3.90246,11.43841 4.0155,14.95655 0,0 -7.77776,3.43409 -17.30804,8.58759 -7.39021,3.99687 -8.08211,7.78203 -7.78686,19.30995 0.24177,9.44596 -7.11481,72.17125 -31.27244,111.80893 l -7.80834,4.39439 c -6.84166,-2.04341 -10.20131,-2.61492 -15.33936,0.0292 -5.78875,2.97837 -30.59392,51.16974 -33.46572,58.71687 -2.1135,5.55512 14.07572,9.08174 14.07572,9.08174 4.64426,-12.45324 24.26083,-53.11583 30.17286,-49.4242 0.57513,1.77353 2.18694,2.32583 4.36705,2.20695 0.54279,2.77595 2.54211,2.52676 5.2967,0.70504 0.62157,1.83457 2.38157,2.50912 4.99399,2.31635 0,0 7.35319,1.57172 8.25559,1.93157 0.0263,-1.08918 5.16478,-12.45186 6.02715,-12.78279 l -3.92956,-2.31243 1.91986,-6.69902 22.99536,-42.15097 c -0.20335,33.58455 -3.47096,90.4254 -2.19134,120.70708 -10.03304,9.12146 -11.13789,21.3327 -5.98223,35.71369 0.14058,-5.65794 1.42308,-10.75226 4.10339,-15.16359 3.76587,18.03085 -8.00124,42.39329 -33.34659,37.9402 -5.04134,4.5045 -8.32026,9.46298 -8.57004,15.19482 -9.19725,0.12209 -15.6898,1.11468 -19.84507,2.85929 h -0.10546 c -0.006,0.0161 -0.0112,0.0347 -0.0176,0.0508 -1.85508,0.79359 -3.23608,1.74079 -4.1737,2.82996 0,0 -9.16802,46.83196 -0.52733,70.33762 0.19246,1.09881 0.39509,2.18529 0.60741,3.26161 l -94.52237,0.87106 c 5.62543,-89.84904 13.93452,-186.58467 14.70851,-279.4442 L 142.929,549.41982 140.88609,426.26359 c 0.34169,-14.76011 7.37874,-24.90661 18.72792,-37.24097 0.95908,-47.90128 -2.12739,-93.24323 -4.68344,-141.48572 7.34377,-0.56033 14.04224,0.56973 20.93097,-1.90228 l -1.86713,-10.9645 c -23.80186,2.01546 -40.95131,-1.77141 -61.91404,-3.97643 l -1.48042,-78.77678 -22.327407,-2.50773 C 89.358775,118.85123 87.522008,77.974171 86.579259,47.226939 Z"
     id="path50" /><path
     style="clip-rule:evenodd;display:inline;fill:none;fill-rule:evenodd;stroke:#1100ff;stroke-width:1.91994;stroke-linejoin:round;stroke-miterlimit:2;stroke-dasharray:none;stroke-opacity:1"
     d="m 667.09779,45.809082 c -0.839,13.924111 -8.94043,39.020151 -10.63443,52.224892 l -8.18527,2.484296 -1.06639,7.95678 8.71653,0.70115 c 3.15103,29.18029 1.80922,58.91636 0.0352,88.70614 l -42.41661,8.9919 -2.49211,180.65827 22.71997,44.95366 3.07998,146.44452 c -29.38086,-5.10852 -7.33519,129.30654 -7.14626,211.50885 -20.53298,14.49987 -41.38243,25.43456 -62.47261,33.69816 l -3.85339,41.89905 c 0,0 -55.98782,-0.86421 -63.0136,-0.9863 0.17932,-0.25703 0.36166,-0.51178 0.54099,-0.7656 -14.87776,-24.01972 -15.39929,-49.92439 -5.06235,-77.2534 l -27.99908,-6.20683 c -1.67158,-1.79602 5.70687,-13.31408 8.90594,-14.11088 -13.71213,1.25304 -47.8801,-19.91124 -44.88918,-26.93466 l -13.15581,-3.27335 -4.24595,-9.33758 -13.0875,-5.79866 -2.44327,-11.23205 -9.0837,-7.76342 -0.40038,-4.67173 17.16742,-5.80451 8.59349,-14.91748 12.81598,-5.85723 4.62485,-13.31208 c 0,0 11.18567,-2.64327 11.21449,-1.85932 0.0288,0.78074 6.80448,-12.91949 6.80448,-12.91949 l 11.97618,1.08978 5.35725,-3.56629 c 14.76888,-0.89962 31.68419,2.71034 51.2757,11.94103 -0.59242,-16.16736 4.71227,-25.78238 14.07572,-30.8877 -34.14264,2.84022 -61.60101,4.04837 -61.33202,-1.52924 l -10.88444,5.7557 -11.06017,-3.88659 -9.78093,11.21643 -10.96061,0.15036 -4.24987,11.65589 -11.51524,4.68539 -3.33972,12.31602 -10.29851,3.22843 -4.10535,11.24181 -9.11687,-1.68941 -8.27516,7.55641 -3.12487,-2.33585 1.40814,-5.68341 -10.59927,-16.53464 3.2382,-10.65982 -4.62485,-8.3181 4.65998,-4.50765 -4.34946,-7.65405 5.22249,-6.60526 -3.07998,-7.89037 6.79472,-8.04271 -6.17363,-9.63838 6.71267,-11.11683 -9.66571,-12.31795 5.69511,-9.67156 -8.59151,-12.48791 4.6815,-13.55816 -13.92729,-12.58552 1.43548,-11.09341 -11.94298,-14.61868 c 5.41825,-40.10676 6.73986,-53.44403 7.42752,-63.2499 -1.29539,-16.52181 -2.31967,-25.68188 -4.57407,-45.49269 l 6.14824,-9.99186 -3.02336,-7.99976 c 24.15795,-32.76783 64.83496,-116.96739 52.39092,-65.81625 11.99892,-25.33219 23.64188,-40.4044 34.97152,-46.35985 -17.56127,9.03053 -22.37387,7.03403 -10.23405,-9.61688 11.60184,-12.5538 25.98315,-12.65296 43.00644,-18.23379 -5.21971,15.73973 -11.47099,27.67497 -19.28454,33.67861 -6.24443,18.20596 -6.62938,29.11617 -1.89642,33.64541 -4.05087,-13.9813 25.82435,-41.08676 67.04082,-72.57971 9.16811,-19.45931 18.80554,-34.91591 31.04783,-28.42487 -7.045,-4.55559 11.26237,-40.5111 30.81545,-71.8434 6.75359,-7.9979 14.09679,-9.5474 16.0854,-20.16928 -9.98469,8.0824 -9.2228,2.6611 -3.17371,-9.405951 21.09658,-43.266979 36.19242,-27.541929 39.20576,-48.846095 z"
     id="path49" /><path
     style="clip-rule:evenodd;display:inline;fill:none;fill-rule:evenodd;stroke:#ff0000;stroke-width:1.91994;stroke-linejoin:round;stroke-miterlimit:2;stroke-dasharray:none;stroke-opacity:1"
     d="m 0,0 v 113.30692 h 19.198604 v 671.9785 H 0 v 139.06977 h 172.58432 v -19.20055 h 383.98773 v 19.20055 H 729.1583 V 785.28542 H 709.95776 V 113.30692 H 729.1583 V 0 H 556.57205 V 19.198604 H 172.58432 V 0 Z"
     id="path7" /></g>
    
</svg>
