<?xml version="1.0" encoding="UTF-8" standalone="no"?>
<svg
   width="7.6156425in"
   height="9.6490088in"
   viewBox="0 0 731.07828 926.27517"
   version="1.1"
   xml:space="preserve"
   style="clip-rule:evenodd;fill-rule:evenodd;stroke-linejoin:round;stroke-miterlimit:2"
   id="svg10"
   xmlns="http://www.w3.org/2000/svg"
   xmlns:svg="http://www.w3.org/2000/svg"><defs
   id="defs10" />
    
    
    
    
    <g
   id="g48"
   style="display:inline"
   transform="translate(0.95997,0.95997)"><path
     style="clip-rule:evenodd;display:inline;fill:none;fill-rule:evenodd;stroke:#000000;stroke-width:1.91994;stroke-linejoin:round;stroke-miterlimit:2;stroke-dasharray:none;stroke-opacity:1"
     d="M 78.485772,46.283674 H 285.13736 l 6.76346,7.314219 0.89645,-7.314219 h 64.01555 c 4.44475,4.049231 9.06925,10.493025 8.90594,16.060035 7.07382,-14.795774 29.24636,-8.92223 33.65909,-15.093267 2.46255,11.080043 58.83656,31.175965 1.73042,62.373008 28.04871,8.45509 33.89574,38.6051 16.71234,83.70825 7.77832,-19.28388 35.50713,-17.5859 56.13298,-66.55451 5.59437,-13.27606 36.11466,-16.7192 53.27565,-16.07565 13.26381,0.49736 48.24497,-40.862066 21.35868,-55.195502 l -1.00193,-9.222364 h 18.02288 c 5.64561,3.34721 8.40244,12.162681 6.41383,22.819584 0.22096,0.709732 3.8125,-15.192562 8.94895,-16.507285 4.63369,-1.186849 7.50072,-3.137301 8.54466,-6.312299 h 0.44918 c 0.37146,4.596711 0.70063,8.329377 -3.59362,13.972212 5.2101,-2.965517 6.04967,-7.591388 8.2048,-11.544553 0.50275,-0.922748 1.14305,-1.731421 1.88277,-2.427659 h 13.70269 c -0.11208,0.717443 -0.50368,1.542737 -1.24021,2.470625 3.5097,-1.228938 4.17337,-1.760572 4.70495,-2.470625 h 56.22865 c -0.83899,13.924111 -1.99338,27.586926 -3.68738,40.791666 l -8.18136,2.484293 -1.06835,7.956779 8.71848,0.701147 c 3.15104,29.180291 1.81047,58.916361 0.0332,88.706151 l -42.41466,8.9919 -2.4921,180.65632 22.71801,44.95559 3.08389,146.44455 c -29.38086,-5.10853 -7.34035,129.30724 -7.14821,211.51276 -20.53298,14.49666 -41.38314,25.42868 -62.47652,33.69229 l -3.1503,52.33622 c 0,0 -74.10112,-0.38282 -74.02107,-0.48242 -3.37199,-5.71256 -19.71614,-38.28067 -5.58771,-77.24364 -79.2915,-18.43568 -159.88078,-1.23109 -282.53392,1.24607 -8.70859,22.94018 -8.82879,52.57915 -4.1112,76.47999 h -99.614 c 5.62543,-89.84904 9.12022,-181.01913 9.89421,-273.88188 l 15.90575,-40.86784 -1.56441,-126.98813 c 0.34168,-14.7569 7.88654,-27.9287 19.23571,-40.26628 0.95908,-47.90128 0.61276,-95.92867 -1.94329,-144.17116 7.34377,-0.56034 14.413,-2.27198 21.30205,-4.74399 l 0.0566,-8.68332 c -23.80218,2.01546 -46.15981,1.8844 -67.12286,-0.3203 L 102.194,138.41745 78.184998,138.23386 c 1.086211,-30.55799 1.243843,-61.202955 0.300774,-91.950186 z"
     id="path48" /><path
     style="clip-rule:evenodd;display:inline;fill:none;fill-rule:evenodd;stroke:#ff0000;stroke-width:1.91994;stroke-linejoin:round;stroke-miterlimit:2;stroke-dasharray:none;stroke-opacity:1"
     d="M 0,0 V 924.35519 H 729.1583 V 0 Z"
     id="path8" /></g>
</svg>
