<?xml version="1.0" encoding="UTF-8" standalone="no"?>
<!-- Created with Inkscape (http://www.inkscape.org/) -->

<svg
   width="139.54759mm"
   height="175.11003mm"
   viewBox="0 0 139.54759 175.11003"
   version="1.1"
   id="svg1"
   xml:space="preserve"
   xmlns="http://www.w3.org/2000/svg"
   xmlns:svg="http://www.w3.org/2000/svg"><defs
     id="defs1" /><g
     id="layer8"
     style="display:inline"><path
       id="path3-5-3-5-0-9-3-6"
       style="clip-rule:evenodd;display:inline;fill:none;fill-opacity:1;fill-rule:evenodd;stroke:#5b00ff;stroke-width:1.91994;stroke-linejoin:round;stroke-miterlimit:2;stroke-dasharray:none;stroke-dashoffset:0;stroke-opacity:1"
       d="M 211.50374,335.2914 H 435.85761 M 0,335.2914 H 90.333161 M 569.54989,287.56924 h 90.3422 m -448.38818,0 H 448.38829 M 0,287.56924 H 90.333161 M 211.50374,239.84708 H 435.85761 M 0,239.84708 H 90.333161 M 569.54971,192.12491 h 90.34221 m -448.38818,0 H 448.38811 M 0,192.12491 H 90.333161 M 211.50391,144.40275 h 224.35388 m -435.857719,0 h 90.33316 M 569.54989,96.680592 h 90.3422 m -448.38818,0 H 448.38829 M 0,96.680592 H 90.333161 M 211.50391,48.958432 H 435.85779 M 0,48.958432 h 90.333041"
       transform="matrix(0,0.2645918,-0.2645918,0,139.5476,0)" /><path
       id="path25"
       style="clip-rule:evenodd;display:inline;fill:none;fill-opacity:1;fill-rule:evenodd;stroke:#5b00ff;stroke-width:1.91994;stroke-linejoin:round;stroke-miterlimit:2;stroke-dasharray:none;stroke-dashoffset:0;stroke-opacity:1"
       d="m 570.50981,478.18158 h 90.3422 m -448.38818,0 h 236.88438 m -448.388224,0 h 90.33316 M 212.46383,430.45942 h 224.35388 m -435.857795,0 H 91.293076 M 570.50981,382.73726 h 90.3422 m -448.38818,0 h 236.88438 m -448.388295,0 h 90.333041"
       transform="matrix(0,0.2645918,-0.2645918,0,139.5476,0)" /><path
       d="M 0.95997,0.95997 H 660.85206 V 526.44715 H 0.95997 Z"
       style="clip-rule:evenodd;display:inline;fill:none;fill-opacity:1;fill-rule:evenodd;stroke:#ff0000;stroke-width:1.91994;stroke-linejoin:round;stroke-miterlimit:2;stroke-dasharray:none;stroke-dashoffset:0;stroke-opacity:1"
       id="path1-7"
       transform="matrix(0,0.2645918,-0.2645918,0,139.5476,0)" /><path
       id="path29"
       style="clip-rule:evenodd;display:inline;fill:none;fill-opacity:0.428559;fill-rule:evenodd;stroke:#00ff11;stroke-width:0.3;stroke-linejoin:round;stroke-miterlimit:2;stroke-dasharray:none;stroke-opacity:1"
       d="m 205.2719,146.64825 c -0.64843,0.63644 -1.32872,1.31099 -1.62161,1.66295 -0.4939,0.5934 -0.59148,0.8419 -0.4408,1.12345 0.1315,0.24578 0.19036,2.72985 0.0734,3.09852 -0.0834,0.26281 -0.67602,0.86788 -1.89445,1.93321 -1.59539,1.39492 -1.97248,2.03817 -2.50579,4.27519 -0.0833,0.34925 -0.25217,1.01641 -0.37518,1.48208 -0.2672,1.01153 -0.38183,1.65768 -0.43563,2.45515 l -0.0398,0.59273 0.74569,0.22892 c 1.24239,0.3811 1.97451,0.55973 2.86236,0.69815 1.29119,0.20129 1.85197,0.31788 1.96939,0.40928 0.17339,0.13501 0.45386,0.84493 0.39016,0.98754 -0.0323,0.0723 -0.087,0.66478 -0.12144,1.31671 -0.0344,0.65194 -0.10219,1.56626 -0.1509,2.03192 -0.13827,1.32166 -0.43521,4.66272 -0.63975,7.19698 -0.0639,0.79162 -0.15831,1.87725 -0.20981,2.41277 -0.0515,0.53552 -0.1363,1.41166 -0.1881,1.94717 -0.0518,0.53551 -0.14459,1.62166 -0.20619,2.41329 -0.11642,1.4958 -0.19817,2.42461 -0.42116,4.78368 -0.15403,1.62944 -0.25471,2.79302 -0.41393,4.78369 -0.0633,0.79163 -0.15631,1.85817 -0.20671,2.3704 -0.1002,1.01805 -0.26106,2.71497 -0.34416,3.62923 -0.0458,0.50409 -0.0841,0.60532 -0.28836,0.76223 -0.12947,0.0995 -0.37439,0.29956 -0.54415,0.44494 l -0.30851,0.26458 -0.008,6.22804 h 10.64741 l -0.008,-6.22804 -0.3085,-0.26458 c -0.16965,-0.1455 -0.41469,-0.34545 -0.54416,-0.44494 -0.20421,-0.15691 -0.24253,-0.25814 -0.28835,-0.76223 -0.0831,-0.91426 -0.24397,-2.61118 -0.34417,-3.62923 -0.0504,-0.51223 -0.14338,-1.57877 -0.2067,-2.3704 -0.15922,-1.99067 -0.2599,-3.15425 -0.41393,-4.78369 -0.22299,-2.35907 -0.30474,-3.28788 -0.42116,-4.78368 -0.0616,-0.79163 -0.15438,-1.87778 -0.20619,-2.41329 -0.0518,-0.53551 -0.13656,-1.41165 -0.1881,-1.94717 -0.0515,-0.53552 -0.14591,-1.62115 -0.20981,-2.41277 -0.20454,-2.53426 -0.50148,-5.87532 -0.63975,-7.19698 -0.0487,-0.46566 -0.11649,-1.37998 -0.1509,-2.03192 -0.0344,-0.65193 -0.0891,-1.24442 -0.12144,-1.31671 -0.0637,-0.14261 0.21677,-0.85253 0.39016,-0.98754 0.11742,-0.0914 0.6782,-0.20799 1.96939,-0.40928 0.88786,-0.13842 1.61995,-0.31705 2.86235,-0.69815 l 0.74569,-0.22892 -0.0403,-0.59273 c -0.0542,-0.79744 -0.16843,-1.44362 -0.43564,-2.45515 -0.123,-0.46567 -0.2919,-1.13283 -0.37517,-1.48208 -0.53331,-2.23702 -0.9104,-2.88027 -2.50579,-4.27519 -1.21844,-1.06533 -1.81102,-1.6704 -1.89445,-1.93321 -0.11704,-0.36867 -0.0581,-2.85274 0.0734,-3.09852 0.15068,-0.28155 0.0531,-0.53005 -0.4408,-1.12345 -0.29299,-0.35206 -0.97302,-1.02688 -1.62161,-1.66295 z m 25.18089,0 c -0.64843,0.63644 -1.3282,1.31099 -1.62109,1.66295 -0.4939,0.5934 -0.59148,0.8419 -0.4408,1.12345 0.1315,0.24578 0.19036,2.72985 0.0734,3.09852 -0.0834,0.26281 -0.67602,0.86788 -1.89446,1.93321 -1.59538,1.39492 -1.97248,2.03817 -2.50579,4.27519 -0.0833,0.34925 -0.25217,1.01641 -0.37517,1.48208 -0.2672,1.01153 -0.38183,1.65768 -0.43563,2.45515 l -0.0398,0.59273 0.74569,0.22892 c 1.24239,0.3811 1.97451,0.55973 2.86236,0.69815 1.29119,0.20129 1.85197,0.31788 1.96939,0.40928 0.17339,0.13501 0.45385,0.84493 0.39015,0.98754 -0.0323,0.0723 -0.087,0.66478 -0.12144,1.31671 -0.0344,0.65194 -0.10218,1.56626 -0.15089,2.03192 -0.13827,1.32166 -0.43521,4.66272 -0.63975,7.19698 -0.0639,0.79162 -0.15831,1.87725 -0.20981,2.41277 -0.0515,0.53552 -0.1363,1.41166 -0.1881,1.94717 -0.0518,0.53551 -0.14459,1.62166 -0.20619,2.41329 -0.11642,1.4958 -0.19818,2.42461 -0.42117,4.78368 -0.15402,1.62944 -0.2547,2.79302 -0.41392,4.78369 -0.0633,0.79163 -0.15631,1.85817 -0.20671,2.3704 -0.1002,1.01805 -0.26106,2.71497 -0.34416,3.62923 -0.0458,0.50409 -0.0841,0.60532 -0.28836,0.76223 -0.12947,0.0995 -0.37439,0.29956 -0.54415,0.44494 l -0.30851,0.26458 -0.008,6.22804 h 10.64741 l -0.008,-6.22804 -0.30851,-0.26458 c -0.16964,-0.1455 -0.41468,-0.34545 -0.54415,-0.44494 -0.20421,-0.15691 -0.24253,-0.25814 -0.28835,-0.76223 -0.0831,-0.91426 -0.24397,-2.61118 -0.34417,-3.62923 -0.0504,-0.51223 -0.14338,-1.57877 -0.2067,-2.3704 -0.15922,-1.99067 -0.2599,-3.15425 -0.41393,-4.78369 -0.22299,-2.35907 -0.30474,-3.28788 -0.42117,-4.78368 -0.0616,-0.79163 -0.15437,-1.87778 -0.20618,-2.41329 -0.0518,-0.53551 -0.13657,-1.41165 -0.18811,-1.94717 -0.0515,-0.53552 -0.1459,-1.62115 -0.2098,-2.41277 -0.20454,-2.53426 -0.50149,-5.87532 -0.63976,-7.19698 -0.0487,-0.46566 -0.11648,-1.37998 -0.15089,-2.03192 -0.0344,-0.65193 -0.0891,-1.24442 -0.12144,-1.31671 -0.0637,-0.14261 0.21677,-0.85253 0.39016,-0.98754 0.11742,-0.0914 0.6782,-0.20799 1.96938,-0.40928 0.88787,-0.13842 1.61996,-0.31705 2.86236,-0.69815 l 0.74569,-0.22892 -0.0403,-0.59273 c -0.0542,-0.79744 -0.16844,-1.44362 -0.43564,-2.45515 -0.123,-0.46567 -0.2919,-1.13283 -0.37517,-1.48208 -0.53331,-2.23702 -0.9104,-2.88027 -2.50579,-4.27519 -1.21844,-1.06533 -1.81103,-1.6704 -1.89446,-1.93321 -0.11704,-0.36867 -0.0581,-2.85274 0.0734,-3.09852 0.15068,-0.28155 0.0531,-0.53005 -0.4408,-1.12345 -0.29299,-0.35206 -0.97353,-1.02688 -1.62212,-1.66295 z m 25.25376,0 c -0.64843,0.63644 -1.3282,1.31099 -1.62109,1.66295 -0.4939,0.5934 -0.59148,0.8419 -0.4408,1.12345 0.1315,0.24578 0.19036,2.72985 0.0734,3.09852 -0.0834,0.2628 -0.67602,0.86788 -1.89446,1.93321 -1.59539,1.39492 -1.97248,2.03816 -2.50579,4.27519 -0.0833,0.34925 -0.25217,1.01641 -0.37517,1.48208 -0.2672,1.01153 -0.38183,1.65768 -0.43563,2.45515 l -0.0398,0.59273 0.74569,0.22892 c 1.24238,0.3811 1.9745,0.55973 2.86235,0.69815 1.29119,0.20129 1.85197,0.31788 1.96939,0.40928 0.17339,0.13501 0.45386,0.84493 0.39016,0.98754 -0.0323,0.0723 -0.087,0.66478 -0.12144,1.31671 -0.0344,0.65194 -0.10219,1.56626 -0.1509,2.03192 -0.13827,1.32166 -0.43521,4.66272 -0.63975,7.19698 -0.0639,0.79163 -0.15831,1.87725 -0.20981,2.41277 -0.0515,0.53552 -0.1363,1.41166 -0.1881,1.94717 -0.0518,0.53552 -0.14459,1.62166 -0.20619,2.41329 -0.11642,1.4958 -0.19817,2.42461 -0.42116,4.78368 -0.15403,1.62944 -0.25471,2.79302 -0.41393,4.78369 -0.0633,0.79163 -0.1563,1.85817 -0.2067,2.3704 -0.1002,1.01805 -0.26107,2.71497 -0.34417,3.62923 -0.0458,0.50409 -0.0841,0.60532 -0.28835,0.76223 -0.12947,0.0995 -0.3744,0.29956 -0.54416,0.44494 l -0.3085,0.26458 -0.008,6.22804 h 10.64741 l -0.008,-6.22804 -0.30851,-0.26458 c -0.16965,-0.1455 -0.41468,-0.34545 -0.54415,-0.44494 -0.20421,-0.15691 -0.24254,-0.25814 -0.28836,-0.76223 -0.0831,-0.91426 -0.24396,-2.61118 -0.34416,-3.62923 -0.0504,-0.51223 -0.14339,-1.57877 -0.20671,-2.3704 -0.15922,-1.99067 -0.2599,-3.15425 -0.41393,-4.78369 -0.22299,-2.35907 -0.30474,-3.28788 -0.42116,-4.78368 -0.0616,-0.79163 -0.15438,-1.87777 -0.20619,-2.41329 -0.0518,-0.53551 -0.13656,-1.41165 -0.1881,-1.94717 -0.0515,-0.53552 -0.14591,-1.62114 -0.20981,-2.41277 -0.20454,-2.53426 -0.50148,-5.87532 -0.63975,-7.19698 -0.0487,-0.46566 -0.11649,-1.37998 -0.1509,-2.03192 -0.0344,-0.65193 -0.0891,-1.24442 -0.12144,-1.31671 -0.0637,-0.14261 0.21677,-0.85253 0.39016,-0.98754 0.11742,-0.0914 0.6782,-0.20799 1.96939,-0.40928 0.88786,-0.13842 1.61996,-0.31705 2.86236,-0.69815 l 0.74569,-0.22892 -0.0403,-0.59273 c -0.0542,-0.79744 -0.16843,-1.44362 -0.43563,-2.45515 -0.123,-0.46567 -0.2919,-1.13283 -0.37517,-1.48208 -0.53331,-2.23703 -0.9104,-2.88027 -2.50579,-4.27519 -1.21844,-1.06533 -1.81103,-1.67041 -1.89446,-1.93321 -0.11704,-0.36867 -0.0581,-2.85274 0.0734,-3.09852 0.15068,-0.28155 0.0531,-0.53005 -0.4408,-1.12345 -0.29299,-0.35206 -0.97353,-1.02688 -1.62212,-1.66295 z m 25.25427,0 c -0.64843,0.63644 -1.32872,1.31099 -1.62161,1.66295 -0.4939,0.5934 -0.59148,0.8419 -0.4408,1.12345 0.1315,0.24578 0.19036,2.72985 0.0734,3.09852 -0.0834,0.26281 -0.67602,0.86788 -1.89446,1.93321 -1.59538,1.39492 -1.97247,2.03817 -2.50579,4.27519 -0.0833,0.34925 -0.25217,1.01641 -0.37517,1.48208 -0.2672,1.01153 -0.38183,1.65768 -0.43563,2.45515 l -0.0398,0.59273 0.74569,0.22892 c 1.24239,0.3811 1.97451,0.55973 2.86236,0.69815 1.29119,0.20129 1.85197,0.31788 1.96939,0.40928 0.17339,0.13501 0.45385,0.84493 0.39015,0.98754 -0.0323,0.0723 -0.087,0.66478 -0.12144,1.31671 -0.0344,0.65194 -0.10218,1.56626 -0.15089,2.03192 -0.13827,1.32166 -0.43521,4.66272 -0.63975,7.19698 -0.0639,0.79162 -0.15831,1.87725 -0.20981,2.41277 -0.0515,0.53552 -0.1363,1.41166 -0.1881,1.94717 -0.0518,0.53551 -0.14459,1.62166 -0.20619,2.41329 -0.11642,1.4958 -0.19818,2.42461 -0.42116,4.78368 -0.15403,1.62944 -0.25471,2.79302 -0.41393,4.78369 -0.0633,0.79163 -0.15631,1.85817 -0.20671,2.3704 -0.1002,1.01805 -0.26106,2.71497 -0.34416,3.62923 -0.0458,0.50409 -0.0841,0.60532 -0.28836,0.76223 -0.12947,0.0995 -0.37439,0.29956 -0.54415,0.44494 l -0.30851,0.26458 -0.008,6.22804 h 10.64689 l -0.008,-6.22804 -0.30851,-0.26458 c -0.16964,-0.1455 -0.41468,-0.34545 -0.54415,-0.44494 -0.20421,-0.15691 -0.24253,-0.25814 -0.28835,-0.76223 -0.0831,-0.91426 -0.24397,-2.61118 -0.34417,-3.62923 -0.0504,-0.51223 -0.14338,-1.57877 -0.2067,-2.3704 -0.15922,-1.99067 -0.2599,-3.15425 -0.41393,-4.78369 -0.22299,-2.35907 -0.30474,-3.28788 -0.42116,-4.78368 -0.0616,-0.79163 -0.15438,-1.87778 -0.20619,-2.41329 -0.0518,-0.53551 -0.13657,-1.41165 -0.18811,-1.94717 -0.0515,-0.53552 -0.1459,-1.62115 -0.2098,-2.41277 -0.20454,-2.53426 -0.50149,-5.87532 -0.63976,-7.19698 -0.0487,-0.46566 -0.11648,-1.37998 -0.15089,-2.03192 -0.0344,-0.65193 -0.0891,-1.24442 -0.12144,-1.31671 -0.0637,-0.14261 0.21677,-0.85253 0.39016,-0.98754 0.11742,-0.0914 0.6782,-0.20799 1.96938,-0.40928 0.88787,-0.13842 1.61996,-0.31705 2.86236,-0.69815 l 0.74569,-0.22892 -0.0403,-0.59273 c -0.0542,-0.79744 -0.16844,-1.44362 -0.43564,-2.45515 -0.123,-0.46567 -0.2919,-1.13283 -0.37517,-1.48208 -0.53331,-2.23702 -0.9104,-2.88027 -2.50579,-4.27519 -1.21844,-1.06533 -1.81102,-1.6704 -1.89446,-1.93321 -0.11704,-0.36867 -0.0581,-2.85274 0.0734,-3.09852 0.15068,-0.28155 0.0531,-0.53005 -0.4408,-1.12345 -0.29299,-0.35206 -0.97301,-1.02688 -1.6216,-1.66295 z m 25.25375,0 c -0.64843,0.63644 -1.32871,1.31099 -1.6216,1.66295 -0.4939,0.5934 -0.59148,0.8419 -0.4408,1.12345 0.1315,0.24578 0.19036,2.72985 0.0734,3.09852 -0.0834,0.26281 -0.67602,0.86788 -1.89446,1.93321 -1.59539,1.39492 -1.97248,2.03817 -2.50579,4.27519 -0.0833,0.34925 -0.25217,1.01641 -0.37517,1.48208 -0.2672,1.01153 -0.38183,1.65768 -0.43563,2.45515 l -0.0398,0.59273 0.74569,0.22892 c 1.24239,0.3811 1.9745,0.55973 2.86235,0.69815 1.29119,0.20129 1.85197,0.31788 1.96939,0.40928 0.17339,0.13501 0.45386,0.84493 0.39016,0.98754 -0.0323,0.0723 -0.087,0.66478 -0.12144,1.31671 -0.0344,0.65194 -0.10218,1.56626 -0.1509,2.03192 -0.13826,1.32166 -0.43521,4.66272 -0.63975,7.19698 -0.0639,0.79162 -0.15831,1.87725 -0.20981,2.41277 -0.0515,0.53552 -0.1363,1.41166 -0.1881,1.94717 -0.0518,0.53551 -0.14459,1.62166 -0.20619,2.41329 -0.11642,1.4958 -0.19817,2.42461 -0.42116,4.78368 -0.15403,1.62944 -0.25471,2.79302 -0.41393,4.78369 -0.0633,0.79163 -0.1563,1.85817 -0.2067,2.3704 -0.1002,1.01805 -0.26107,2.71497 -0.34417,3.62923 -0.0458,0.50409 -0.0841,0.60532 -0.28835,0.76223 -0.12947,0.0995 -0.3744,0.29956 -0.54416,0.44494 l -0.3085,0.26458 -0.008,6.22804 h 10.6469 l -0.008,-6.22804 -0.30851,-0.26458 c -0.16965,-0.1455 -0.41468,-0.34545 -0.54415,-0.44494 -0.20421,-0.15691 -0.24254,-0.25814 -0.28836,-0.76223 -0.0831,-0.91426 -0.24396,-2.61118 -0.34416,-3.62923 -0.0504,-0.51223 -0.14339,-1.57877 -0.20671,-2.3704 -0.15922,-1.99067 -0.2599,-3.15425 -0.41393,-4.78369 -0.22299,-2.35907 -0.30474,-3.28788 -0.42116,-4.78368 -0.0616,-0.79163 -0.15438,-1.87778 -0.20619,-2.41329 -0.0518,-0.53551 -0.13656,-1.41165 -0.1881,-1.94717 -0.0515,-0.53552 -0.14591,-1.62115 -0.20981,-2.41277 -0.20454,-2.53426 -0.50148,-5.87532 -0.63975,-7.19698 -0.0487,-0.46566 -0.11649,-1.37998 -0.1509,-2.03192 -0.0344,-0.65193 -0.0891,-1.24442 -0.12144,-1.31671 -0.0637,-0.14261 0.21677,-0.85253 0.39016,-0.98754 0.11742,-0.0914 0.6782,-0.20799 1.96939,-0.40928 0.88786,-0.13842 1.61996,-0.31705 2.86236,-0.69815 l 0.74569,-0.22892 -0.0403,-0.59273 c -0.0542,-0.79744 -0.16843,-1.44362 -0.43563,-2.45515 -0.123,-0.46567 -0.2919,-1.13283 -0.37517,-1.48208 -0.53331,-2.23702 -0.9104,-2.88027 -2.50579,-4.27519 -1.21844,-1.06533 -1.81103,-1.6704 -1.89446,-1.93321 -0.11704,-0.36867 -0.0581,-2.85274 0.0734,-3.09852 0.15068,-0.28155 0.0531,-0.53005 -0.4408,-1.12345 -0.29299,-0.35206 -0.97302,-1.02688 -1.62161,-1.66295 z m -126.33905,5.2e-4 1.61179,18.02629 c 0.0166,-0.02 0.0354,-0.0553 0.0506,-0.0672 0.11742,-0.0914 0.6782,-0.20799 1.96939,-0.40928 0.88786,-0.13842 1.61996,-0.31705 2.86235,-0.69815 l 0.7457,-0.22892 -0.0403,-0.59273 c -0.0538,-0.79747 -0.16843,-1.44362 -0.43563,-2.45515 -0.123,-0.46567 -0.29191,-1.13283 -0.37518,-1.48208 -0.5333,-2.23703 -0.9104,-2.88027 -2.50579,-4.27519 -1.21843,-1.06533 -1.81102,-1.67041 -1.89445,-1.93321 -0.11704,-0.36867 -0.0581,-2.85274 0.0734,-3.09852 0.15068,-0.28155 0.0531,-0.53005 -0.4408,-1.12345 -0.29291,-0.35196 -0.97291,-1.02625 -1.62109,-1.66243 z m 1.61179,18.02629 c -0.17213,0.20738 -0.39761,0.7903 -0.33952,0.92036 0.0323,0.0723 0.087,0.66478 0.12144,1.31671 0.0344,0.65194 0.1022,1.56626 0.1509,2.03192 0.13827,1.32166 0.43521,4.66272 0.63975,7.19698 0.0639,0.79163 0.15831,1.87725 0.20981,2.41277 0.0515,0.53552 0.1363,1.41166 0.1881,1.94717 0.0518,0.53552 0.14459,1.62166 0.20619,2.41329 0.11642,1.49579 0.19817,2.42461 0.42116,4.78368 0.15403,1.62944 0.25471,2.79302 0.41393,4.78369 0.0633,0.79163 0.1563,1.85817 0.2067,2.3704 0.1002,1.01805 0.26107,2.71497 0.34417,3.62923 0.0458,0.50409 0.0841,0.60532 0.28835,0.76223 0.0618,0.0475 0.16582,0.13602 0.25942,0.21239 z m 3.1104,34.78082 0.60151,6.72517 -0.008,-6.22804 -0.30851,-0.26458 c -0.0888,-0.076 -0.1821,-0.14881 -0.28474,-0.23255 z"
       transform="translate(-179.62076,-31.325063)" /></g></svg>
