<?xml version="1.0" encoding="UTF-8" standalone="no"?>
<!-- Created with Inkscape (http://www.inkscape.org/) -->

<svg
   width="198.62465mm"
   height="278.73801mm"
   viewBox="0 0 198.62465 278.73801"
   version="1.1"
   id="svg1"
   xml:space="preserve"
   xmlns="http://www.w3.org/2000/svg"
   xmlns:svg="http://www.w3.org/2000/svg"><defs
     id="defs1" /><g
     id="layer10"
     style="display:inline"
     transform="translate(-0.07034021,0.73211182)"><g
       id="g28"
       style="clip-rule:evenodd;display:inline;fill-rule:evenodd;stroke-linejoin:round;stroke-miterlimit:2"
       transform="matrix(0.2645918,0,0,0.26459172,0.31430756,138.45833)"><path
         id="path26"
         style="clip-rule:evenodd;fill:none;fill-opacity:1;fill-rule:evenodd;stroke:#000000;stroke-width:1.91994;stroke-linejoin:round;stroke-miterlimit:2;stroke-dasharray:none;stroke-dashoffset:0;stroke-opacity:1"
         d="M -8.039484e-4,48.958368 H 90.296708 Z m 211.5049539484,0 h 236.88499 z m 358.10522,0 h 90.28277 z M -8.039484e-4,96.68145 H 90.296708 Z m 211.5049539484,0 h 236.88499 z m 358.10522,0 h 90.28277 z M -8.039484e-4,144.40258 H 90.296708 Z m 211.5049539484,0 h 236.88499 z m 358.10522,0 h 90.28277 z M -8.039484e-4,192.12566 H 90.296708 Z m 211.5049539484,0 h 236.88304 z m 358.10522,0 h 90.28277 z M -8.039484e-4,239.84679 H 90.296708 Z m 211.5049539484,0 h 236.88304 z m 358.10522,0 h 90.28277 z M -8.039484e-4,287.56987 H 90.296708 Z m 211.5049539484,0 h 236.88499 z m 358.10522,0 h 90.28277 z M -8.039484e-4,335.291 H 90.296708 Z m 211.5049539484,0 h 236.88304 z m 358.10522,0 h 90.28277 z M -8.039484e-4,383.01408 H 90.296708 Z m 211.5049539484,0 h 236.88304 z m 358.10522,0 h 90.28277 z M 0.9601028,430.45983 H 91.257615 Z m 211.5029972,0 h 236.885 z m 358.10718,0 H 660.8511 Z M 0.9601028,478.18096 H 91.257615 Z m 211.5029972,0 h 236.885 z m 358.10718,0 h 90.28082 z" /><path
         d="M 660.85206,0.95997 V 526.44715 H 0.95997 V 0.95997"
         style="clip-rule:evenodd;fill:none;fill-opacity:1;fill-rule:evenodd;stroke:#0009ff;stroke-width:1.91994;stroke-linejoin:round;stroke-miterlimit:2;stroke-dasharray:none;stroke-dashoffset:0;stroke-opacity:1"
         id="path27" /></g><path
       id="rect47"
       style="clip-rule:evenodd;display:inline;fill:none;fill-rule:evenodd;stroke:#5b00ff;stroke-width:1.86948;stroke-linejoin:round;stroke-miterlimit:2"
       d="m -1790.4696,328.13696 h 747.8665 v 526.08263 h -747.8665 z"
       transform="matrix(0.2645918,0,0,0.26459172,474.3119,-87.30711)" /><path
       style="clip-rule:evenodd;display:inline;fill:none;fill-opacity:1;fill-rule:evenodd;stroke:#ff0000;stroke-width:1.91994;stroke-linejoin:round;stroke-miterlimit:2;stroke-dasharray:none;stroke-dashoffset:0;stroke-opacity:1"
       d="m -1415.0964,328.13696 -1.44,526.08263"
       id="path47"
       transform="matrix(0.2645918,0,0,0.26459172,474.3119,-87.30711)" /><path
       id="path3-5-3-5-0-9-3"
       style="clip-rule:evenodd;display:inline;fill:none;fill-opacity:1;fill-rule:evenodd;stroke:#000000;stroke-width:1.91994;stroke-linejoin:round;stroke-miterlimit:2;stroke-dasharray:none;stroke-dashoffset:0;stroke-opacity:1"
       d="m -1791.4052,376.13633 h 23.9993 z m 119.9962,0 h 134.3961 z m 230.393,0 h 47.9985 z m 143.9954,0 h 134.3961 z m 230.3931,0 h 23.9992 z m -724.7777,47.99846 h 23.9993 z m 119.9962,0 h 134.3961 z m 230.393,0 h 47.9985 z m 143.9954,0 h 134.3961 z m 230.3931,0 h 23.9992 z m -724.7777,47.99846 h 23.9993 z m 119.9962,0 h 134.3961 z m 230.393,0 h 47.9985 z m 143.9954,0 h 134.3961 z m 230.3931,0 h 23.9992 z m -724.7777,47.99847 h 23.9993 z m 119.9962,0 h 134.3961 z m 230.393,0 h 47.9985 z m 143.9954,0 h 134.3961 z m 230.3931,0 h 23.9992 z m -724.7777,47.99846 h 23.9993 z m 119.9962,0 h 134.3961 z m 230.393,0 h 47.9985 z m 143.9954,0 h 134.3961 z m 230.3931,0 h 23.9992 z m -724.7777,47.99847 h 23.9993 z m 119.9962,0 h 134.3961 z m 230.393,0 h 47.9985 z m 143.9954,0 h 134.3961 z m 230.3931,0 h 23.9992 z m -724.7777,47.99846 h 23.9993 z m 119.9962,0 h 134.3961 z m 230.393,0 h 47.9985 z m 143.9954,0 h 134.3961 z m 230.3931,0 h 23.9992 z m -724.7777,47.99846 h 23.9993 z m 119.9962,0 h 134.3961 z m 230.393,0 h 47.9985 z m 143.9954,0 h 134.3961 z m 230.3931,0 h 23.9992 z m -724.7777,47.99847 h 23.9993 z m 119.9962,0 h 134.3961 z m 230.393,0 h 47.9985 z m 143.9954,0 h 134.3961 z m 230.3931,0 h 23.9992 z m -724.7777,47.99846 h 23.9993 z m 119.9962,0 h 134.3961 z m 230.393,0 h 47.9985 z m 143.9954,0 h 134.3961 z m 230.3931,0 h 23.9992 z"
       transform="matrix(0.2645918,0,0,0.26459172,474.3119,-87.30711)" /><path
       id="path38"
       style="clip-rule:evenodd;display:inline;fill:none;fill-rule:evenodd;stroke:#00ff16;stroke-width:0.2;stroke-linejoin:round;stroke-miterlimit:2;stroke-dasharray:none;stroke-opacity:1"
       d="m 101.56279,-118.35119 c -0.11849,0.004 -0.21222,0.0186 -0.27234,0.046 -0.118,0.0538 -0.33792,0.0977 -0.48834,0.0977 -0.41324,0 -0.67172,0.21558 -0.60771,0.50694 0.0462,0.2103 0.0161,0.25385 -0.270272,0.39378 -0.269433,0.13161 -0.326577,0.2059 -0.349332,0.45372 -0.01508,0.16298 -0.0627,0.33248 -0.105937,0.37672 -0.04331,0.0442 -0.07855,0.15115 -0.07855,0.23719 0,0.086 -0.0901,0.24007 -0.199988,0.34262 -0.109964,0.10255 -0.228532,0.28201 -0.264066,0.39842 -0.03551,0.11642 -0.140639,0.28354 -0.233061,0.37156 -0.255278,0.24315 -0.04414,2.79403 0.240295,2.90318 0.064,0.0246 0.158754,0.20126 0.210323,0.39274 0.04458,0.16538 0.141633,0.35471 0.225826,0.48472 -0.08419,0.13002 -0.181242,0.31935 -0.225826,0.48473 -0.05157,0.19148 -0.146318,0.3682 -0.210323,0.39274 -0.284436,0.10915 -0.495573,2.66003 -0.240295,2.90318 0.09242,0.088 0.197552,0.25514 0.233061,0.37156 0.03553,0.11641 0.154102,0.29587 0.264066,0.39842 0.109885,0.10255 0.199988,0.25658 0.199988,0.34262 0,0.086 0.03526,0.19295 0.07855,0.23719 0.04323,0.0442 0.09093,0.21374 0.105937,0.37672 0.02275,0.24781 0.0799,0.32211 0.349332,0.45372 0.286472,0.13993 0.316462,0.18347 0.270272,0.39378 -0.064,0.29136 0.19447,0.50694 0.60771,0.50694 0.15042,0 0.37034,0.0439 0.48834,0.0977 0.4809,0.2191 3.09925,-0.37469 3.53622,-0.80202 0.0603,-0.0589 0.36072,-0.24699 0.66818,-0.41806 0.62192,-0.34603 1.12818,-0.92284 1.4304,-1.62936 0.0996,-0.23283 0.25447,-0.50152 0.34417,-0.59738 0.0897,-0.0959 0.19713,-0.35449 0.23822,-0.57464 0.0411,-0.22014 0.13,-0.46538 0.19793,-0.54519 0.35944,-0.42263 0.50746,-1.54915 0.38757,-2.39262 0.11989,-0.84346 -0.0281,-1.96999 -0.38757,-2.39262 -0.0679,-0.0798 -0.15681,-0.32504 -0.19793,-0.54518 -0.0411,-0.22015 -0.1485,-0.47878 -0.23822,-0.57464 -0.0897,-0.0959 -0.24455,-0.36455 -0.34417,-0.59738 -0.30222,-0.70652 -0.80848,-1.28333 -1.4304,-1.62936 -0.30746,-0.17107 -0.60793,-0.35913 -0.66818,-0.41806 -0.38236,-0.37391 -2.43457,-0.8753 -3.26388,-0.84801 z m 0,25.400001 c -0.11849,0.0039 -0.21222,0.0186 -0.27234,0.04599 -0.118,0.05377 -0.33792,0.09767 -0.48834,0.09767 -0.41324,0 -0.67172,0.215586 -0.60771,0.506946 0.0462,0.210303 0.0161,0.253845 -0.270272,0.393774 -0.269433,0.131616 -0.326577,0.205908 -0.349332,0.45372 -0.01508,0.162983 -0.0627,0.332484 -0.105937,0.376721 -0.04331,0.04424 -0.07855,0.151152 -0.07855,0.237195 0,0.08604 -0.0901,0.240064 -0.199988,0.342615 -0.109964,0.102553 -0.228532,0.28201 -0.264066,0.398425 -0.03551,0.116418 -0.140639,0.283543 -0.233061,0.371554 -0.255278,0.243151 -0.04414,2.79403 0.240295,2.903182 0.064,0.02455 0.158754,0.201259 0.210323,0.392741 0.04458,0.165383 0.141633,0.35471 0.225826,0.484725 -0.08419,0.130015 -0.181242,0.319342 -0.225826,0.484725 -0.05157,0.191483 -0.146318,0.3682 -0.210323,0.392741 -0.284436,0.109152 -0.495573,2.660031 -0.240295,2.903183 0.09242,0.08801 0.197552,0.255136 0.233061,0.371554 0.03553,0.116415 0.154102,0.295872 0.264066,0.398425 0.109885,0.10255 0.199988,0.256575 0.199988,0.342615 0,0.08604 0.03526,0.192952 0.07855,0.237195 0.04323,0.04424 0.09093,0.213738 0.105937,0.376721 0.02275,0.247811 0.0799,0.322103 0.349332,0.453719 0.286472,0.139929 0.316462,0.183472 0.270272,0.393775 -0.064,0.291363 0.19447,0.506946 0.60771,0.506946 0.15042,0 0.37034,0.0439 0.48834,0.09767 0.4809,0.219103 3.09925,-0.374692 3.53622,-0.802018 0.0603,-0.05894 0.36072,-0.246996 0.66818,-0.418063 0.62192,-0.34603 1.12818,-0.922843 1.4304,-1.629358 0.0996,-0.232833 0.25447,-0.501521 0.34417,-0.59738 0.0897,-0.09586 0.19713,-0.354496 0.23822,-0.574642 0.0411,-0.220143 0.13,-0.465375 0.19793,-0.545186 0.35944,-0.42263 0.50746,-1.549155 0.38757,-2.39262 0.11989,-0.843465 -0.0281,-1.96999 -0.38757,-2.392619 -0.0679,-0.07981 -0.15681,-0.325044 -0.19793,-0.545187 -0.0411,-0.220145 -0.1485,-0.478783 -0.23822,-0.574642 -0.0897,-0.09586 -0.24455,-0.364544 -0.34417,-0.597379 -0.30222,-0.706515 -0.80848,-1.283328 -1.4304,-1.629359 -0.30746,-0.171066 -0.60793,-0.359127 -0.66818,-0.418062 -0.38236,-0.37391 -2.43457,-0.875295 -3.26388,-0.848011 z m 0,25.400007 c -0.11849,0.0039 -0.21222,0.0186 -0.27234,0.04599 -0.118,0.05377 -0.33792,0.09767 -0.48834,0.09767 -0.41324,0 -0.67172,0.215586 -0.60771,0.506946 0.0462,0.210303 0.0161,0.253845 -0.270272,0.393775 -0.269433,0.131615 -0.326577,0.205908 -0.349332,0.453719 -0.01508,0.162983 -0.0627,0.332484 -0.105937,0.376721 -0.04331,0.04424 -0.07855,0.151152 -0.07855,0.237195 0,0.08604 -0.0901,0.240064 -0.199988,0.342615 -0.109964,0.102553 -0.228532,0.28201 -0.264066,0.398425 -0.03551,0.116418 -0.140639,0.283543 -0.233061,0.371554 -0.255278,0.243151 -0.04414,2.794031 0.240295,2.903182 0.064,0.02455 0.158754,0.201259 0.210323,0.392741 0.04458,0.165383 0.141633,0.354711 0.225826,0.484725 -0.08419,0.130015 -0.181242,0.319343 -0.225826,0.484726 -0.05157,0.191482 -0.146318,0.3682 -0.210323,0.392741 -0.284436,0.109151 -0.495573,2.660031 -0.240295,2.903182 0.09242,0.08801 0.197552,0.255136 0.233061,0.371554 0.03553,0.116415 0.154102,0.295872 0.264066,0.398425 0.109885,0.102551 0.199988,0.256575 0.199988,0.342615 0,0.08604 0.03526,0.192953 0.07855,0.237195 0.04323,0.04424 0.09093,0.213738 0.105937,0.376721 0.02275,0.247811 0.0799,0.322104 0.349332,0.453719 0.286472,0.13993 0.316462,0.183472 0.270272,0.393775 -0.064,0.291363 0.19447,0.506946 0.60771,0.506946 0.15042,0 0.37034,0.0439 0.48834,0.09767 0.4809,0.219103 3.09925,-0.374692 3.53622,-0.802018 0.0603,-0.05893 0.36072,-0.246996 0.66818,-0.418063 0.62192,-0.34603 1.12818,-0.922843 1.4304,-1.629358 0.0996,-0.232832 0.25447,-0.501521 0.34417,-0.59738 0.0897,-0.09586 0.19713,-0.354496 0.23822,-0.574642 0.0411,-0.220142 0.13,-0.465375 0.19793,-0.545186 0.35944,-0.42263 0.50746,-1.549155 0.38757,-2.39262 0.11989,-0.843464 -0.0281,-1.969989 -0.38757,-2.392619 -0.0679,-0.07981 -0.15681,-0.325044 -0.19793,-0.545186 -0.0411,-0.220146 -0.1485,-0.478784 -0.23822,-0.574642 -0.0897,-0.09586 -0.24455,-0.364545 -0.34417,-0.59738 -0.30222,-0.706515 -0.80848,-1.283328 -1.4304,-1.629358 -0.30746,-0.171067 -0.60793,-0.359128 -0.66818,-0.418063 -0.38236,-0.37391 -2.43457,-0.875295 -3.26388,-0.84801 z m 0,25.400006 c -0.11849,0.0039 -0.21222,0.0186 -0.27234,0.04599 -0.118,0.05377 -0.33792,0.09767 -0.48834,0.09767 -0.41324,0 -0.67172,0.215586 -0.60771,0.506946 0.0462,0.210303 0.0161,0.253846 -0.270272,0.393775 -0.269433,0.131616 -0.326577,0.205908 -0.349332,0.453719 -0.01508,0.162983 -0.0627,0.332484 -0.105937,0.376721 -0.04331,0.04424 -0.07855,0.151153 -0.07855,0.237195 0,0.08604 -0.0901,0.240065 -0.199988,0.342615 -0.109964,0.102553 -0.228532,0.28201 -0.264066,0.398425 -0.03551,0.116418 -0.140639,0.283543 -0.233061,0.371554 -0.255278,0.243152 -0.04414,2.794031 0.240295,2.903183 0.064,0.02455 0.158754,0.201258 0.210323,0.392741 0.04458,0.165383 0.141633,0.35471 0.225826,0.484725 -0.08419,0.130015 -0.181242,0.319342 -0.225826,0.484725 -0.05157,0.191482 -0.146318,0.3682 -0.210323,0.392741 -0.284436,0.109152 -0.495573,2.660031 -0.240295,2.903182 0.09242,0.08801 0.197552,0.255136 0.233061,0.371554 0.03553,0.116415 0.154102,0.295872 0.264066,0.398425 0.109885,0.102551 0.199988,0.256575 0.199988,0.342615 0,0.08604 0.03526,0.192953 0.07855,0.237195 0.04323,0.04424 0.09093,0.213738 0.105937,0.376721 0.02275,0.247812 0.0799,0.322104 0.349332,0.45372 0.286472,0.139929 0.316462,0.183471 0.270272,0.393774 -0.064,0.291363 0.19447,0.506946 0.60771,0.506946 0.15042,0 0.37034,0.0439 0.48834,0.09767 0.4809,0.219103 3.09925,-0.374692 3.53622,-0.802018 0.0603,-0.05893 0.36072,-0.246996 0.66818,-0.418062 0.62192,-0.346031 1.12818,-0.922844 1.4304,-1.629359 0.0996,-0.232832 0.25447,-0.501521 0.34417,-0.597379 0.0897,-0.09586 0.19713,-0.354497 0.23822,-0.574642 0.0411,-0.220143 0.13,-0.465376 0.19793,-0.545187 0.35944,-0.422629 0.50746,-1.549154 0.38757,-2.392619 0.11989,-0.843465 -0.0281,-1.96999 -0.38757,-2.39262 -0.0679,-0.07981 -0.15681,-0.325043 -0.19793,-0.545186 -0.0411,-0.220146 -0.1485,-0.478783 -0.23822,-0.574642 -0.0897,-0.09586 -0.24455,-0.364545 -0.34417,-0.59738 -0.30222,-0.706515 -0.80848,-1.283328 -1.4304,-1.629358 -0.30746,-0.171067 -0.60793,-0.359128 -0.66818,-0.418063 -0.38236,-0.37391 -2.43457,-0.875295 -3.26388,-0.84801 z m 0,25.400006 c -0.11847,0.0039 -0.21223,0.0186 -0.27234,0.04599 -0.11801,0.05377 -0.33791,0.09767 -0.48834,0.09767 -0.41323,0 -0.67171,0.215585 -0.60771,0.506946 0.0462,0.210303 0.0162,0.253844 -0.270272,0.393775 -0.269449,0.131616 -0.326582,0.205907 -0.349332,0.453719 -0.015,0.162983 -0.06271,0.332483 -0.105937,0.376721 -0.0433,0.04424 -0.07855,0.151152 -0.07855,0.237195 0,0.08604 -0.09009,0.240064 -0.199988,0.342615 -0.10995,0.102552 -0.228527,0.28201 -0.264066,0.398425 -0.0355,0.116417 -0.140661,0.283545 -0.233061,0.371554 -0.25529,0.243152 -0.04415,2.79403 0.240295,2.903183 0.064,0.02454 0.158763,0.20126 0.210323,0.392741 0.04457,0.165384 0.141633,0.3547103 0.225826,0.4847248 -0.08419,0.1300147 -0.181256,0.3193412 -0.225826,0.4847251 -0.05156,0.1914808 -0.146323,0.368201 -0.210323,0.392741 -0.284445,0.1091529 -0.495585,2.6600309 -0.240295,2.9031826 0.0924,0.088009 0.197561,0.2551368 0.233061,0.3715537 0.03554,0.1164159 0.154116,0.2958735 0.264066,0.3984254 0.109898,0.1025509 0.199988,0.2565749 0.199988,0.3426148 0,0.086043 0.03525,0.1929549 0.07855,0.2371949 0.04323,0.044238 0.09094,0.2137384 0.105937,0.3767213 0.02275,0.2478117 0.07988,0.3221033 0.349332,0.4537191 0.286462,0.1399309 0.316472,0.1834718 0.270272,0.3937746 -0.064,0.2913617 0.19448,0.5069459 0.60771,0.5069459 0.15043,0 0.37033,0.043899 0.48834,0.097669 0.48089,0.2191034 3.09925,-0.3746939 3.53622,-0.8020185 0.0603,-0.058936 0.36072,-0.2469956 0.66818,-0.4180624 0.62191,-0.3460297 1.12818,-0.922842 1.4304,-1.6293583 0.0996,-0.2328328 0.25447,-0.5015198 0.34417,-0.5973797 0.0897,-0.095859 0.19712,-0.3544973 0.23822,-0.5746421 0.0411,-0.2201438 0.13003,-0.4653766 0.19793,-0.5451865 0.35947,-0.4226296 0.50745,-1.5491542 0.38757,-2.3926194 0.11988,-0.8434643 -0.0281,-1.9699893 -0.38757,-2.3926193 -0.0679,-0.07981 -0.15681,-0.325042 -0.19793,-0.545186 -0.0411,-0.220145 -0.14848,-0.478783 -0.23822,-0.574642 -0.0897,-0.09586 -0.24457,-0.364547 -0.34417,-0.59738 -0.30222,-0.706516 -0.80849,-1.283328 -1.4304,-1.629358 -0.30746,-0.171067 -0.60791,-0.359127 -0.66818,-0.418063 -0.38235,-0.373909 -2.43457,-0.875294 -3.26388,-0.848011 z m 0,24.8966776 c -0.11847,0.0039 -0.21223,0.018604 -0.27234,0.045992 -0.11801,0.05377 -0.33791,0.097668 -0.48834,0.097668 -0.41323,0 -0.67171,0.2155842 -0.60771,0.5069459 0.0462,0.2103028 0.0162,0.2538437 -0.270272,0.3937745 -0.269449,0.1316159 -0.326582,0.2059074 -0.349332,0.4537192 -0.015,0.1629828 -0.06271,0.3324828 -0.105937,0.3767218 -0.0433,0.04424 -0.07855,0.151152 -0.07855,0.237195 0,0.08604 -0.09009,0.240064 -0.199988,0.342615 -0.10995,0.102552 -0.228527,0.282009 -0.264066,0.398425 -0.0355,0.116417 -0.140661,0.283545 -0.233061,0.371554 -0.25529,0.243151 -0.04415,2.79403 0.240295,2.903182 0.064,0.02454 0.158763,0.201261 0.210323,0.392741 0.04457,0.165384 0.141634,0.354711 0.225826,0.484725 h 8.723502 c 0.11988,-0.843465 -0.0281,-1.969989 -0.38757,-2.392619 -0.0679,-0.07981 -0.15681,-0.325043 -0.19793,-0.545186 -0.0411,-0.220145 -0.14848,-0.478784 -0.23822,-0.574643 -0.0897,-0.09586 -0.24457,-0.364546 -0.34417,-0.597379 -0.30222,-0.706517 -0.80849,-1.2833294 -1.4304,-1.629359 -0.30746,-0.1710664 -0.60791,-0.359126 -0.66818,-0.418062 -0.38235,-0.373909 -2.43457,-0.8752946 -3.26388,-0.8480104 z"
       transform="translate(52.829854,123.56118)" /></g></svg>
