<?xml version="1.0" encoding="UTF-8" standalone="no"?>
<!-- Created with Inkscape (http://www.inkscape.org/) -->

<svg
   width="193.92931mm"
   height="245.577mm"
   viewBox="0 0 193.92931 245.577"
   version="1.1"
   id="svg1"
   xml:space="preserve"
   xmlns="http://www.w3.org/2000/svg"
   xmlns:svg="http://www.w3.org/2000/svg"><defs
     id="defs1" /><g
     id="layer3"
     style="display:inline"
     transform="translate(0.5,0.5)"><path
       style="display:inline;fill:none;stroke:#ff0707;stroke-opacity:1"
       d="m 111.34488,103.94806 c 0.36002,-0.13145 0.44676,-0.21107 0.63576,-0.58353 0.31147,-0.61386 0.43983,-0.7772 0.68355,-0.86986 0.16048,-0.061 0.26424,-0.21704 0.41087,-0.61782 0.49918,-1.36441 0.56061,-1.41898 1.60116,-1.42249 l 0.79777,-0.003 0.46556,-0.476841 c 0.25605,-0.26226 0.62329,-0.546615 0.81609,-0.631899 0.1928,-0.08528 0.40481,-0.256451 0.47113,-0.380371 0.34555,-0.645678 2.03023,-1.860585 3.27509,-2.361836 0.31529,-0.126956 0.67276,-0.283018 0.79437,-0.346805 0.12161,-0.06379 0.35118,-0.111086 0.51016,-0.105109 0.48393,0.01819 1.17357,-0.182019 1.17488,-0.341087 6.4e-4,-0.07685 0.0229,-0.220654 0.0494,-0.31957 l 0.0483,-0.179849 -0.70559,0.204596 c -1.02665,0.297695 -1.86906,0.400639 -2.25514,0.275583 -1.6533,-0.535517 -3.63966,-2.330934 -4.46479,-4.035602 -0.32787,-0.677368 -0.34278,-0.693512 -0.64279,-0.696329 -0.5173,-0.0049 -0.56056,-0.169646 -0.20939,-0.79759 0.34879,-0.623699 0.36589,-0.732487 0.14633,-0.931182 -0.1525,-0.138012 -0.1589,-0.129657 -0.16832,0.219711 -0.0283,1.051364 -0.5984,1.159759 -1.63244,0.310401 l -0.39296,-0.322772 -0.0436,0.230107 c -0.024,0.126559 -0.0683,0.306704 -0.0984,0.400321 -0.0433,0.134358 -0.002,0.190056 0.19475,0.264417 0.87638,0.330796 0.80937,1.98149 -0.12612,3.106699 -0.2417,0.29071 -0.24259,0.312082 -0.0281,0.675546 0.23533,0.398853 0.0861,0.52568 -0.53309,0.452912 l -0.4442,-0.05221 -0.1097,0.351503 c -0.67494,2.162574 -4.19806,4.282238 -6.31292,3.798128 -0.22737,-0.05205 -0.42424,-0.08379 -0.43748,-0.07055 -0.0648,0.06479 1.19113,1.020674 1.47061,1.119278 0.42756,0.150855 1.34079,0.61491 1.65341,0.84018 0.24356,0.17552 1.06635,1.75478 1.4543,2.79139 l 0.15301,0.40885 0.48498,-0.0563 0.48498,-0.0563 0.10509,0.31844 c 0.0909,0.27546 0.11869,0.29983 0.20589,0.18058 0.0554,-0.0758 0.28841,-0.20635 0.51771,-0.29008 z"
       id="path8-3"
       transform="translate(-8.3494454,-26.207001)" /><path
       style="display:inline;fill:none;stroke:#fff807;stroke-opacity:1"
       d="m 70.615434,108.85483 c 0.707005,-0.74766 -0.37924,-1.77195 -1.97566,-1.86298 -2.320902,-0.13233 -2.432223,1.40687 -0.142659,1.97251 0.849337,0.20983 1.866042,0.15726 2.118319,-0.10953 z"
       id="path7-1"
       transform="translate(-8.3494454,-26.207001)" /><path
       style="display:inline;fill:none;stroke:#fbff07;stroke-opacity:1"
       d="m 117.67956,110.88427 c 0.12865,-0.26917 0.36425,-0.64022 0.52357,-0.82457 0.36066,-0.41735 0.37127,-0.36634 -0.14933,-0.71803 -0.24126,-0.16299 -0.58635,-0.45546 -0.76687,-0.64994 l -0.32823,-0.3536 -0.43946,0.20461 c -0.44922,0.20915 -0.7851,0.26988 -0.69608,0.12584 0.18258,-0.29542 -0.30118,-0.23085 -0.61399,0.0819 -0.18542,0.18543 -0.4109,0.33714 -0.50106,0.33714 -0.32138,0 -1.00299,0.25399 -1.24499,0.46392 -0.4316,0.37441 -0.73417,0.25307 -1.30977,-0.52527 -0.17434,-0.23575 -0.22503,-0.2595 -0.381,-0.17849 -0.25134,0.13055 -0.24711,0.11982 -0.13214,0.33464 0.0571,0.10668 0.11073,0.39231 0.1192,0.63473 0.0245,0.70241 0.15936,0.83239 0.98983,0.9542 1.10239,0.16169 2.58033,0.33278 3.41521,0.39536 0.4191,0.0314 0.7982,0.0908 0.84243,0.13201 0.22136,0.20613 0.44062,0.071 0.67268,-0.4145 z"
       id="path6-2"
       transform="translate(-8.3494454,-26.207001)" /><path
       style="display:inline;fill:none;stroke:#fbff07;stroke-opacity:1"
       d="m 125.30571,144.90167 c 0.19668,-0.50903 0.0618,-2.06567 -0.49877,-5.75734 l -0.19928,-1.31233 -0.0104,0.84667 c -0.0134,1.09611 -0.2092,2.91023 -0.42824,3.96748 -0.225,1.08607 -0.21983,1.19088 0.0772,1.56198 0.54811,0.68484 0.62812,1.00964 0.66097,2.6832 0.0409,2.08633 0.13242,2.12557 0.19737,0.0847 0.0416,-1.307 0.0875,-1.78026 0.20111,-2.07433 z"
       id="path5-5"
       transform="translate(-8.3494454,-26.207001)" /><path
       style="display:inline;fill:none;stroke:#07ffc1;stroke-opacity:1"
       d="m 116.54604,149.29465 c 0.44198,-0.16342 1.61365,-2.05256 1.74923,-2.82038 0.20771,-1.17627 0.98972,-2.19419 1.8526,-2.41147 0.37371,-0.0941 0.39386,-0.1136 0.349,-0.33786 -0.0584,-0.29177 0.11482,-0.56223 0.40694,-0.63555 0.15117,-0.0379 0.21364,-0.11072 0.21364,-0.24893 0,-0.39036 -0.26661,-2.08959 -0.63712,-4.06069 -0.20839,-1.10856 -0.37888,-2.08964 -0.37888,-2.18017 0,-0.13198 -0.0593,-0.1646 -0.29929,-0.1646 -1.04255,0 -4.10482,-1.51946 -4.26586,-2.11667 -0.2788,-1.03391 -0.34349,-8.75945 -0.0993,-11.85333 0.28951,-3.66728 0.66133,-6.83514 0.94238,-8.02885 0.0913,-0.38785 0.16603,-0.73431 0.16603,-0.7699 0,-0.0356 -1.36207,-0.0612 -3.02683,-0.0568 l -3.02684,0.008 -0.48924,-0.23283 c -0.58329,-0.27758 -0.56429,-0.2751 -0.50977,-0.0666 0.0526,0.20119 -0.21937,0.78601 -0.54938,1.18129 l -0.24143,0.28917 0.15727,0.55749 c 0.19687,0.69785 0.42504,2.11708 1.16497,7.24616 1.30597,9.05288 1.62292,11.1486 1.87521,12.39935 0.451,2.23583 0.0916,3.36201 -1.3287,4.16358 l -0.43388,0.24487 -0.0541,1.1211 c -0.0775,1.60527 -0.0283,1.52849 -1.11495,1.74162 l -0.33866,0.0664 0.0229,0.75719 c 0.0126,0.41646 0.0444,0.96106 0.0707,1.21023 l 0.0478,0.45304 0.3667,-0.055 c 0.82092,-0.1231 1.01854,0.0882 1.36622,1.46051 l 0.24242,0.95694 0.55034,0.30434 c 0.48677,0.2692 1.38701,0.86378 2.5281,1.66975 0.34584,0.24427 0.42859,0.26341 1.31234,0.30354 0.97007,0.044 1.04798,0.0388 1.40948,-0.0949 z"
       id="path4-62"
       transform="translate(-8.3494454,-26.207001)" /><path
       style="display:inline;fill:none;stroke:#fbff07;stroke-opacity:1"
       d="m 103.42212,151.37858 0.97366,-0.0561 -0.0281,-1.37013 -0.0281,-1.37013 0.31456,-0.97242 c 0.6591,-2.03748 0.68183,-2.17151 0.64653,-3.81212 l -0.032,-1.48503 -0.54783,-0.15689 c -0.92722,-0.26555 -0.91671,-0.24578 -0.92405,-1.73721 -0.008,-1.60784 -0.0839,-1.75426 -0.62777,-1.21036 -0.19026,0.19026 -0.53034,0.46427 -0.75574,0.60891 l -0.40981,0.26297 -0.10334,1.11965 c -0.1522,1.64914 -0.20445,1.71684 -1.45069,1.87978 l -0.39032,0.051 -0.149197,1.30425 c -0.176731,1.54494 -0.218385,1.33799 0.686197,3.4092 0.71923,1.6468 0.8772,2.19386 0.87815,3.04097 7.5e-4,0.66497 0.0216,0.68899 0.53357,0.61418 0.24232,-0.0354 0.87874,-0.0896 1.41426,-0.12051 z"
       id="path3-01"
       transform="translate(-8.3494454,-26.207001)" /><path
       style="display:inline;fill:none;stroke:#ff0707;stroke-opacity:1"
       d="m 30.191066,168.57006 c 3.543667,-0.56302 4.80728,-0.81761 5.690788,-1.14658 0.976617,-0.36364 2.564723,-0.7608 3.53226,-0.88337 0.20955,-0.0265 0.8001,-0.10764 1.312333,-0.18022 0.582367,-0.0825 1.417422,-0.12566 2.228624,-0.11515 l 1.297291,0.0168 0.565376,-0.4227 c 2.295127,-1.71595 4.096019,-2.55496 6.317421,-2.94321 0.183358,-0.032 0.812008,-0.20383 1.397,-0.38173 0.584992,-0.1779 1.520822,-0.42841 2.079622,-0.5567 1.390067,-0.31912 1.479334,-0.36566 1.97407,-1.02917 1.375053,-1.84415 3.681669,-3.45526 5.624764,-3.92875 0.407458,-0.0993 0.741022,-0.22344 0.741252,-0.2759 4.13e-4,-0.094 -0.174536,-0.65958 -0.383093,-1.23839 -0.05873,-0.16298 -0.168052,-0.50588 -0.242946,-0.762 -0.07489,-0.25612 -0.19537,-0.65387 -0.267723,-0.88389 -0.07235,-0.23002 -0.228594,-0.78247 -0.347203,-1.22767 -0.118608,-0.44519 -0.249957,-0.93327 -0.291886,-1.08461 -0.04193,-0.15134 -0.115433,-0.41804 -0.163342,-0.59266 -0.04791,-0.17463 -0.104328,-0.37465 -0.125376,-0.4445 -0.02105,-0.0699 -0.07932,-0.3175 -0.129497,-0.55034 -0.05018,-0.23283 -0.123423,-0.49953 -0.162773,-0.59266 -0.03935,-0.0931 -0.135572,-0.43604 -0.213825,-0.762 -0.07825,-0.32597 -0.273417,-1.12607 -0.433695,-1.778 -0.160279,-0.65194 -0.309939,-1.28059 -0.332579,-1.397 -0.02264,-0.11642 -0.151208,-0.70697 -0.285706,-1.31234 -0.500838,-2.25423 -0.498013,-2.23943 -1.066433,-5.588 -0.110666,-0.65193 -0.219668,-1.36542 -0.242228,-1.58553 -0.02256,-0.2201 -0.05946,-0.43003 -0.082,-0.46651 -0.02254,-0.0365 -0.06318,-0.307 -0.0903,-0.60118 -0.02712,-0.29418 -0.0861,-0.77005 -0.131055,-1.05749 -0.0821,-0.52493 -0.121576,-0.85225 -0.216207,-1.79262 -0.09748,-0.96871 -0.144561,-1.27042 -0.211376,-1.35467 -0.03693,-0.0466 -0.09144,-0.56091 -0.121126,-1.143 -0.02969,-0.58208 -0.07008,-1.17263 -0.08977,-1.31233 -0.170519,-1.20993 -0.175115,-8.78274 -0.0061,-10.04991 0.0205,-0.15368 0.06108,-0.8216 0.09019,-1.48426 0.02911,-0.66266 0.06666,-1.29131 0.08346,-1.397 0.03877,-0.24396 0.108741,-1.07681 0.17263,-2.05483 0.02738,-0.4191 0.08385,-0.9525 0.125486,-1.18533 0.04164,-0.23284 0.09456,-0.59479 0.117601,-0.80434 0.122754,-1.11643 0.16136,-1.36047 0.221056,-1.39736 0.06334,-0.0391 0.214484,-0.64041 0.425575,-1.69297 0.201507,-1.00477 0.711661,-1.62112 2.070337,-2.50127 0.499224,-0.3234 0.783223,-0.55841 0.747743,-0.61876 -0.24813,-0.42204 -1.200428,-1.80858 -1.547277,-2.25283 -0.605401,-0.77539 -0.620692,-0.75567 0.597551,-0.77069 1.269364,-0.0157 3.688021,0.71907 4.935211,1.49919 0.405088,0.25339 0.561567,0.29981 1.121919,0.33284 1.99284,0.11747 4.241153,0.92739 5.152685,1.85618 1.687906,1.71985 2.252983,3.7087 2.104874,7.40834 -0.08857,2.21247 -0.05543,5.90498 0.06079,6.77333 0.04675,0.34925 0.102116,1.56845 0.123048,2.70934 0.08039,4.38189 0.144475,5.4637 0.466431,7.874 0.09019,0.67521 0.184707,1.39911 0.210034,1.60866 0.02533,0.20955 0.08704,0.62865 0.137131,0.93134 0.05009,0.30268 0.102116,0.64558 0.115603,0.762 0.04723,0.4077 0.217527,1.40413 0.376218,2.20133 0.154144,0.77435 0.230742,1.19338 0.317276,1.73567 0.02229,0.1397 0.07322,0.4064 0.11318,0.59266 0.03996,0.18627 0.132291,0.62442 0.205188,0.97367 0.0729,0.34925 0.14904,0.7112 0.169206,0.80433 0.02017,0.0931 0.09611,0.44402 0.168756,0.77974 0.07265,0.33572 0.24946,1.07867 0.392913,1.651 0.143452,0.57233 0.332024,1.32635 0.419049,1.6756 0.23802,0.95522 0.387987,1.50411 0.589884,2.159 0.217661,0.70602 0.341207,1.13902 0.374442,1.31233 0.0134,0.0699 0.06784,0.23426 0.120997,0.36535 0.05315,0.13108 0.09664,0.26218 0.09664,0.29132 0,0.0755 0.418947,1.44512 0.550186,1.79866 0.0605,0.16299 0.233805,0.68686 0.385122,1.16417 l 0.275123,0.86783 0.389618,-0.002 c 0.289237,-0.001 9.485127,-0.40515 9.543877,-0.41906 0.0056,-0.001 0.03632,-0.19889 0.06817,-0.439 0.126061,-0.9503 0.407469,-1.13548 2.038235,-1.34131 l 0.762,-0.0962 0.762,-0.7403 c 0.4191,-0.40716 1.00965,-0.92511 1.312334,-1.15101 0.302683,-0.22589 0.578973,-0.43509 0.613977,-0.46488 0.035,-0.0298 0.118797,-0.49878 0.186206,-1.04218 0.171122,-1.37944 0.317206,-1.58558 1.123656,-1.58558 h 0.446828 v -1.46401 -1.464 l -0.602578,-0.14142 c -1.074485,-0.25217 -1.153549,-0.50838 -0.78951,-2.55848 l 0.119846,-0.67491 -0.290788,-0.29876 c -1.052736,-1.08158 -1.045035,-1.91662 0.06796,-7.36842 1.211279,-5.93325 1.666803,-7.84302 1.861603,-7.80476 0.806633,0.15845 1.0514,-2.15966 0.389786,-3.69157 -0.08615,-0.19946 -0.122554,-0.3416 -0.08091,-0.31586 0.08036,0.0497 0.113011,-0.1499 0.256106,-1.56514 0.140409,-1.38868 0.333483,-2.68365 0.521565,-3.49822 0.09481,-0.4106 0.159074,-0.75684 0.142815,-0.76941 -0.01626,-0.0126 -0.248638,-0.16611 -0.516396,-0.34119 -0.573726,-0.37513 -0.566819,-0.32648 -0.192989,-1.35921 0.161615,-0.44647 0.317849,-1.01033 0.347186,-1.25303 0.02934,-0.2427 0.106658,-0.76059 0.171822,-1.15087 0.207581,-1.24322 0.128859,-2.80407 -0.141425,-2.80407 -0.13983,0 -3.917286,4.9602 -3.933168,5.16466 -0.01593,0.20504 -0.182611,0.78454 -0.426184,1.48167 -0.120798,0.34574 -0.311283,1.05048 -0.680882,2.51907 l -0.207812,0.82573 0.498635,0.7406 c 1.195871,1.77617 1.187303,5.30912 -0.01177,4.85324 -0.170361,-0.0648 -0.234419,-0.1929 -0.368789,-0.73762 l -0.162615,-0.65923 -0.191997,0.80111 c -0.105599,0.4406 -0.24497,0.97255 -0.309715,1.1821 -0.06475,0.20955 -0.135285,0.8763 -0.156756,1.48167 -0.04421,1.24645 -0.114898,1.50571 -0.459072,1.68369 -0.13345,0.069 -0.292152,0.18514 -0.352671,0.25806 -0.132677,0.15986 -0.592809,0.17411 -0.79717,0.0247 -0.14418,-0.10543 -0.23083,-0.23407 -0.795518,-1.18104 -0.151647,-0.25431 -0.363136,-0.50221 -0.469976,-0.55089 -0.236395,-0.10771 -0.675224,-0.91855 -0.827293,-1.52862 -0.149203,-0.59857 -0.01282,-1.33412 0.60747,-3.27632 0.148448,-0.46481 0.535017,-1.39826 0.859041,-2.07433 0.706796,-1.47473 0.711092,-1.48811 0.826215,-2.57213 0.05014,-0.47214 0.125411,-1.06799 0.167265,-1.3241 0.04185,-0.25612 0.13855,-0.88477 0.214879,-1.397 0.07633,-0.51224 0.173956,-1.11419 0.21695,-1.33767 0.04299,-0.22348 0.0782,-0.56638 0.07824,-0.762 6.5e-5,-0.34543 0.392646,-1.33275 0.574655,-1.44524 0.077,-0.0476 0.333798,-0.5266 1.358287,-2.53364 l 0.380055,-0.74455 -0.186246,-0.13046 c -0.609776,-0.4271 -0.646402,-0.77186 -0.177815,-1.67378 0.390265,-0.75117 0.647799,-0.9977 1.009663,-0.96653 0.292565,0.0252 0.295101,0.0223 1.082341,-1.23622 1.584891,-2.533697 1.574484,-2.524772 3.663661,-3.14185 0.582083,-0.171929 1.289612,-0.384703 1.572302,-0.472831 0.28268,-0.08813 0.57443,-0.160232 0.64833,-0.160232 0.10329,0 0.14199,-0.112554 0.16738,-0.486833 0.0683,-1.007174 -0.32458,-1.379588 -1.38375,-1.311614 -0.425648,0.02732 -0.662591,0.0091 -0.701501,-0.05382 -0.03231,-0.05229 -0.131082,-0.09507 -0.219482,-0.09507 -0.0884,0 -0.263819,-0.129201 -0.38982,-0.287113 -0.20907,-0.26202 -0.25074,-0.279566 -0.476793,-0.200764 -0.584193,0.203651 -1.565457,-0.133486 -2.044076,-0.702292 -0.330972,-0.393338 -0.290718,-0.439486 0.325761,-0.373467 0.687516,0.07363 0.760634,-0.07295 0.479983,-0.962194 -0.09882,-0.313105 -0.179668,-0.742322 -0.179668,-0.953817 0,-0.447118 -0.623376,-1.141607 -0.989019,-1.101843 -0.240516,0.02616 -0.361471,-0.207136 -0.351284,-0.677538 0.0044,-0.204218 -0.02102,-0.605931 -0.05655,-0.892696 -0.09946,-0.802844 0.167724,-1.94174 0.550127,-2.345006 0.03776,-0.03982 0.0074,-0.211268 -0.06757,-0.381 -0.09844,-0.22301 -0.136637,-0.572787 -0.137719,-1.261104 -8.24e-4,-0.523875 -0.03305,-0.9525 -0.07161,-0.9525 -0.124292,0 -0.603435,0.270442 -0.920498,0.519555 -0.630097,0.495061 -0.522903,-0.889015 0.147286,-1.901739 l 0.221673,-0.334969 -0.253274,-0.198216 c -0.561539,-0.43947 -0.800752,-1.905267 -0.255346,-1.564655 0.790877,0.493911 1.516481,0.118752 1.965908,-1.016434 0.492283,-1.243436 1.391924,-2.022875 2.334834,-2.022875 0.100414,0 0.297563,-0.181199 0.509943,-0.468686 0.691895,-0.936584 1.803325,-1.393627 2.707105,-1.113217 0.19487,0.06046 0.18959,0.0462 -0.0665,-0.179706 -0.15298,-0.134958 -0.42921,-0.290635 -0.61383,-0.34595 -0.61891,-0.185429 -0.31288,-0.460318 0.63268,-0.568312 0.46349,-0.05294 1.09819,0.115033 1.49353,0.39525 l 0.21822,0.154677 0.10613,-0.524528 c 0.24186,-1.195452 0.5276,-1.397004 0.8359,-0.589625 0.54378,1.424051 1.57692,1.993581 3.7936,2.091262 0.60944,0.02686 1.33334,0.08823 1.60867,0.136386 1.31752,0.23044 2.12834,0.919994 2.41006,2.049616 0.13591,0.544954 0.16785,0.523505 0.62332,-0.418608 1.15889,-2.397073 2.60521,-3.377624 4.23587,-2.87175 0.2446,0.07588 0.45581,0.09919 0.508,0.05608 0.89089,-0.735988 5.29817,-2.141976 6.56111,-2.093095 0.37524,0.01452 0.37593,0.01401 0.48617,-0.361557 0.17119,-0.583198 0.21268,-0.589508 0.8797,-0.133758 0.69807,0.476968 0.80653,0.619806 0.8862,1.167067 0.0948,0.650952 0.2085,0.550748 0.2085,-0.183704 v -0.679491 l 1.0795,-1.225139 c 1.11904,-1.270023 1.24296,-1.364468 1.37158,-1.045374 0.11934,0.296082 0.93779,3.057889 0.93662,3.160582 -7.1e-4,0.06253 0.17954,0.05334 0.57046,-0.02907 4.39579,-0.926747 6.18998,1.308771 6.37145,7.938657 0.0776,2.836934 0.13135,3.302071 0.51798,4.486247 0.39045,1.195868 1.24802,2.501553 2.0936,3.187606 0.65218,0.529141 0.65196,0.575547 -0.002,0.514437 -0.90654,-0.08465 -2.56666,-0.896887 -2.85959,-1.399081 -0.0587,-0.100663 -0.0841,0.108985 -0.0859,0.709591 -0.005,1.642981 -0.7537,3.113588 -1.99224,3.912992 -1.83416,1.183835 -4.28672,1.912085 -3.34606,0.99356 0.84967,-0.829689 0.97147,-2.17107 0.32686,-3.600019 -0.22589,-0.500741 -1.24057,-2.286 -1.29928,-2.286 -0.0136,0 -0.23217,0.109154 -0.48578,0.242563 -0.25362,0.13341 -0.51174,0.259436 -0.57361,0.280059 -0.083,0.02768 -0.0386,0.17185 0.16956,0.550539 0.39381,0.716345 0.34551,0.789102 -0.5252,0.791178 l -0.70116,0.0017 -0.381,0.480235 c -0.34566,0.435686 -1.38658,1.410355 -1.70785,1.599149 -0.0936,0.05502 -0.14372,0.279763 -0.17978,0.806609 l -0.05,0.730338 0.32481,0.04357 c 0.33838,0.04539 1.3333,0.659124 1.41542,0.873133 0.0254,0.06616 0.0816,0.120293 0.12502,0.120293 0.43571,0 3.0604,1.485586 3.66799,2.076098 0.77291,0.75118 1.56219,2.928053 2.08277,5.744383 l 0.18573,1.00481 0.53397,0.61225 c 0.81895,0.939 1.10338,1.66278 0.9889,2.51635 -0.037,0.27554 -0.0105,0.34898 0.17949,0.49844 0.29321,0.23064 0.28771,0.49332 -0.0312,1.48875 -0.29003,0.90542 -0.30013,1.03237 -0.12268,1.5419 0.22433,0.64416 -0.20805,0.9905 -1.57203,1.25922 l -0.65465,0.12897 0.0352,0.56025 c 0.0858,1.36619 0.0498,1.30414 0.81916,1.41287 0.23274,0.0329 0.50462,0.13935 0.62889,0.24624 l 0.21891,0.1883 -0.19622,1.54201 c -0.20747,1.63048 -0.20444,1.88376 0.0437,3.64782 0.33184,2.35921 0.20216,3.44641 -0.55634,4.66396 -0.18606,0.29867 -0.48093,0.80873 -0.65527,1.13346 -0.17434,0.32473 -0.4556,0.73453 -0.62503,0.91067 l -0.30804,0.32026 0.0696,0.65566 c 0.0631,0.59387 0.14833,2.24591 0.30044,5.82087 l 0.0541,1.27055 -0.89119,0.53086 c -0.49015,0.29197 -1.32439,0.73678 -1.85387,0.98846 l -0.9627,0.45761 -0.10695,1.00065 c -0.0588,0.55036 -0.17812,1.40071 -0.2651,1.88966 -0.087,0.48895 -0.26069,1.46701 -0.38602,2.17346 l -0.22789,1.28447 0.27295,0.39672 c 0.23673,0.34407 0.26633,0.44502 0.22306,0.76073 -0.0393,0.28652 -0.014,0.40959 0.11854,0.57814 0.30462,0.38726 0.43718,0.90352 0.43827,1.70681 8.5e-4,0.62362 0.0478,0.90038 0.25848,1.524 0.32798,0.97079 0.30019,0.94163 1.01193,1.06169 0.83008,0.14001 2.11092,0.59345 3.91713,1.38675 0.72214,0.31717 2.39624,1.34327 3.32053,2.03525 0.54986,0.41166 1.81351,0.93932 3.0718,1.28268 1.41147,0.38517 3.52208,1.16394 5.12233,1.89003 1.12425,0.51012 2.91624,1.15823 4.99534,1.80669 0.99309,0.30974 2.51488,0.91023 3.43104,1.35387 0.80517,0.38989 4.33915,1.92537 4.43134,1.92537 0.14772,0 1.79539,0.84399 2.62843,1.34636 1.49916,0.90409 1.80151,0.98325 6.18852,1.62031 3.51546,0.51049 4.81598,0.93778 6.64633,2.18367 0.41393,0.28175 0.82439,0.2465 5.715,-0.49073 3.06116,-0.46145 3.09785,-0.47359 2.56643,-0.84961 -0.4644,-0.32859 -0.86811,-0.64943 -1.99751,-1.5875 -0.57466,-0.47731 -1.07228,-0.86783 -1.10582,-0.86783 -0.11945,0 -1.26135,-1.15376 -1.46886,-1.48411 -0.17411,-0.2772 -0.22084,-0.48558 -0.26618,-1.18693 -0.0911,-1.40864 -0.29265,-1.79488 -1.03006,-1.97354 -0.18626,-0.0451 -0.54821,-0.16444 -0.80433,-0.26514 -0.25612,-0.1007 -0.78952,-0.25686 -1.18533,-0.34701 -2.29292,-0.52225 -2.26213,-0.5129 -3.34434,-1.01647 -0.83113,-0.38675 -2.99504,-2.27359 -3.72533,-3.24835 -0.19625,-0.26195 -0.67698,-0.39696 -1.18429,-0.3326 -0.5974,0.0758 -2.50496,-0.5496 -2.7735,-0.90928 -0.17277,-0.2314 -0.36662,-1.4834 -0.28018,-1.80957 0.0613,-0.23145 -0.1069,-3.2106 -0.20798,-3.683 -0.20349,-0.95097 -0.37278,-5.66421 -0.24024,-6.68867 0.19761,-1.52745 0.81085,-2.19925 4.1735,-4.572 0.36297,-0.25611 0.81731,-0.60334 1.00965,-0.77162 0.19234,-0.16827 0.76881,-0.56296 1.28104,-0.87708 0.51223,-0.31412 0.98848,-0.62127 1.05833,-0.68255 0.0699,-0.0613 0.889,-0.5 1.82034,-0.97494 0.93133,-0.47494 2.04972,-1.08739 2.48532,-1.361 0.43559,-0.27361 0.80993,-0.49747 0.83186,-0.49747 0.0219,0 0.23704,-0.15177 0.47802,-0.33727 0.24097,-0.1855 0.85383,-0.63317 1.36192,-0.99483 0.63063,-0.4489 1.01568,-0.7913 1.21339,-1.07898 l 0.28961,-0.42142 -0.0557,-1.18725 c -0.0306,-0.65299 -0.0868,-1.30155 -0.12483,-1.44125 -0.26224,-0.96345 -0.43528,-2.03645 -0.50297,-3.11875 -0.0929,-1.48551 0.004,-1.34015 -0.91393,-1.37522 -0.40958,-0.0156 -1.06854,-0.0896 -1.46436,-0.1644 -0.39582,-0.0748 -1.08242,-0.16687 -1.52578,-0.20469 -1.44573,-0.12332 -2.03947,-0.44139 -3.61883,-1.9386 -0.36028,-0.34154 -0.78841,-0.68995 -0.95139,-0.77425 -0.16298,-0.0843 -0.52493,-0.32057 -0.80433,-0.52506 -0.32411,-0.23721 -0.70722,-0.42619 -1.05834,-0.52204 -0.30268,-0.0826 -0.74083,-0.23836 -0.97366,-0.34604 -0.23284,-0.10769 -0.6174,-0.2411 -0.85459,-0.29647 -1.40319,-0.32759 -1.99223,-0.9826 -1.84454,-2.05113 0.0947,-0.6848 0.1183,-0.63296 -0.47587,-1.04329 -0.72033,-0.49745 -1.37664,-1.07378 -3.46326,-3.04127 -1.33367,-1.25753 -1.66869,-1.98633 -1.24525,-2.70887 0.45175,-0.77086 0.2379,-1.64206 -0.83342,-3.39526 -0.24638,-0.4032 -0.66231,-1.05179 -1.08773,-1.6962 -1.18051,-1.78817 -1.67913,-3.169844 -1.34339,-3.722458 0.55001,-0.905286 0.43706,-1.587326 -0.49076,-2.963333 -0.12559,-0.186267 -0.25361,-0.395817 -0.28448,-0.465667 -0.0309,-0.06985 -0.18016,-0.304328 -0.33176,-0.521062 -0.15159,-0.216734 -0.38992,-0.590776 -0.52962,-0.831206 -0.1397,-0.24043 -0.49938,-0.806052 -0.79928,-1.256938 -0.63741,-0.958313 -0.7255,-1.430549 -0.46877,-2.513127 0.25475,-1.074204 0.25235,-1.15377 -0.0513,-1.702118 -0.38748,-0.699708 -0.9906,-1.70688 -1.26225,-2.107882 -0.4276,-0.631202 -0.93206,-1.450832 -0.93206,-1.514386 0,-0.03478 -0.0918,-0.184529 -0.20388,-0.332763 -0.11214,-0.148235 -0.35344,-0.593368 -0.53621,-0.989185 -0.58143,-1.259119 -0.81475,-1.732257 -0.91855,-1.862666 -0.16673,-0.20947 -1.41093,-2.709951 -1.64302,-3.302 l -0.21574,-0.550334 -0.50613,-0.02259 c -0.754,-0.03366 -1.44643,-0.679966 -1.28018,-1.194903 0.0244,-0.07544 0.1414,-0.403714 0.2601,-0.729492 0.11922,-0.327215 0.19287,-0.668265 0.16456,-0.762 -0.0849,-0.281017 -0.94616,-1.522536 -1.46017,-2.104801 -0.26494,-0.30012 -0.69966,-0.863793 -0.96605,-1.252608 -0.26639,-0.388814 -0.74145,-0.975599 -1.0557,-1.303966 -0.89955,-0.939971 -1.69077,-1.83146 -2.05124,-2.311201 -0.56994,-0.758516 -2.26565,-2.509827 -3.22304,-3.328716 -0.25396,-0.217221 -0.6713,-0.579592 -0.92741,-0.805269 -0.49861,-0.439346 -0.83772,-0.666132 -1.905,-1.273992 -0.37254,-0.212173 -0.92499,-0.530586 -1.22767,-0.707585 -0.30268,-0.176999 -0.74083,-0.367136 -0.97367,-0.422525 -0.4877,-0.116021 -2.39349,-1.02493 -3.38666,-1.615169 -0.95435,-0.567161 -3.0381,-1.454322 -4.445,-1.892462 -0.34925,-0.108764 -0.80645,-0.261326 -1.016,-0.339028 -0.20955,-0.0777 -0.67104,-0.192441 -1.02552,-0.254976 -0.35448,-0.06254 -0.79263,-0.175974 -0.97366,-0.252086 -0.28816,-0.121148 -1.54139,-0.312097 -3.67349,-0.559712 -0.34925,-0.04056 -0.7493,-0.09381 -0.889,-0.118332 -0.1397,-0.02452 -0.76835,-0.07912 -1.397,-0.121332 -0.62865,-0.04221 -1.2937,-0.115636 -1.47788,-0.163168 -0.18419,-0.04753 -0.67949,-0.112332 -1.10067,-0.143999 -1.03955,-0.07816 -1.30986,-1.044029 -0.93451,-3.339083 0.0882,-0.539246 0.39997,-0.678207 0.76089,-0.339138 0.0989,0.09287 0.3581,0.202181 0.57608,0.242905 0.21798,0.04072 0.44435,0.112644 0.50304,0.159823 0.0587,0.04718 0.61466,0.260556 1.23548,0.474171 l 1.12877,0.388391 0.24999,-0.184828 c 0.60485,-0.447188 0.12243,-1.167875 -0.7799,-1.165077 -0.0743,2.31e-4 -0.20271,-0.07435 -0.28541,-0.165727 -0.0827,-0.09138 -0.28863,-0.211051 -0.45762,-0.265935 -0.85952,-0.279146 -1.08763,-0.647919 -0.51274,-0.828947 0.20614,-0.06491 0.56531,-0.205844 0.79814,-0.313174 1.06798,-0.492313 1.90416,-0.41932 1.90625,0.166403 0.003,0.765524 0.43025,1.038661 0.88416,0.564881 0.13582,-0.141762 0.28097,-0.257748 0.32256,-0.257748 0.0416,0 0.23449,-0.132778 0.42866,-0.295063 0.33108,-0.276711 1.2488,-0.975642 2.16947,-1.652271 1.16802,-0.858414 1.50263,-1.103349 1.67607,-1.226887 0.97202,-0.692328 -1.54494,-1.215781 -4.80483,-0.999262 -0.90035,0.0598 -0.8755,0.03916 -0.82372,0.684209 0.0632,0.786935 -0.0502,0.981131 -0.67802,1.161355 -0.26836,0.07704 -0.65144,0.230488 -0.85128,0.340999 -0.34101,0.188578 -0.76679,0.322518 -1.88032,0.591499 -0.25611,0.06187 -0.62739,0.161314 -0.82506,0.220994 -0.53282,0.160869 -0.56697,0.09204 -0.60001,-1.209277 -0.0336,-1.321337 -0.006,-1.458703 0.31757,-1.592798 0.46847,-0.194048 1.8695,-1.584211 1.8695,-1.855003 0,-0.03563 0.24673,-0.262492 0.54829,-0.504144 1.64575,-1.318821 2.2694,-3.696597 1.31648,-5.019304 -0.0877,-0.121707 -0.18588,-0.369357 -0.21822,-0.550333 -0.0323,-0.180976 -0.12711,-0.405248 -0.21061,-0.498381 -0.0835,-0.09313 -0.24506,-0.378883 -0.35904,-0.635 -0.31249,-0.702177 -0.81637,-1.272625 -1.45296,-1.64492 -0.30867,-0.180517 -0.58243,-0.362537 -0.60836,-0.40449 -0.096,-0.155385 -1.01299,-0.498372 -1.52697,-0.57116 -0.29193,-0.04134 -0.574,-0.101878 -0.62682,-0.134526 -0.22832,-0.141107 -1.13928,-0.186347 -1.42296,-0.07067 -0.15703,0.06404 -0.40468,0.117012 -0.55033,0.117725 -0.36925,0.0018 -0.48447,0.09866 -0.46238,0.388644 0.0233,0.30582 -0.0613,0.456726 -0.25618,0.456726 -0.21115,0 -0.3506,0.168676 -0.3506,0.424085 0,0.121486 -0.0559,0.294841 -0.12431,0.385233 -0.0684,0.09039 -0.12552,0.245692 -0.127,0.345111 -0.001,0.09942 -0.0933,0.240107 -0.20396,0.312639 -0.1107,0.07253 -0.22597,0.230282 -0.25615,0.350558 -0.0302,0.120275 -0.13182,0.295612 -0.22585,0.389638 -0.14721,0.147211 -0.16433,0.243935 -0.12329,0.696347 0.11174,1.231532 0.24491,1.971116 0.38427,2.134056 0.0797,0.09313 0.18896,0.300985 0.24288,0.461893 0.0539,0.160908 0.16169,0.389508 0.23946,0.508 0.0778,0.118492 0.36636,0.652625 0.6413,1.186962 0.27493,0.534336 0.60471,1.105836 0.73283,1.27 1.80336,2.310663 2.18928,5.859842 0.53732,4.941596 -0.65385,-0.363449 -0.94538,-0.477729 -1.69519,-0.664527 -0.24385,-0.06075 -0.73109,-0.252623 -1.08276,-0.426386 l -0.6394,-0.315934 -0.20841,0.19579 c -0.336,0.315656 -0.21119,0.552906 0.51247,0.974107 0.23217,0.135132 0.49598,0.313451 0.58625,0.396263 0.0903,0.08281 0.2165,0.150569 0.2805,0.150569 0.10878,0 0.6398,0.231396 1.6932,0.737826 0.58506,0.28127 0.56659,0.447237 -0.0635,0.570674 -0.16298,0.03193 -0.62628,0.169678 -1.02956,0.30611 -0.40328,0.136431 -0.79753,0.248057 -0.87611,0.248057 -0.21283,0 -1.57369,0.684419 -1.62459,0.817058 -0.24899,0.64886 0.64253,0.862485 1.70993,0.409728 0.1397,-0.05926 0.4445,-0.157074 0.67733,-0.217373 0.23284,-0.0603 0.64379,-0.198653 0.91324,-0.307453 1.59248,-0.643035 1.8866,-0.556982 1.79682,0.525707 -0.0309,0.372533 -0.0818,1.172633 -0.11311,1.778 l -0.057,1.100666 -0.508,0.02402 c -0.2794,0.01321 -0.62805,0.07989 -0.77479,0.148166 -0.14674,0.06828 -0.50869,0.125625 -0.80433,0.127429 -0.92833,0.0057 -3.12672,0.229058 -4.00888,0.407367 -0.46566,0.09412 -1.18956,0.213046 -1.60866,0.264272 -2.67997,0.327567 -2.887421,0.510628 -2.80777,2.47776 0.04865,1.201447 0.06014,1.172462 -0.438406,1.105593 -0.446405,-0.05988 -0.535298,-0.211258 -0.73596,-1.253328 -0.278504,-1.446316 -1.504081,-1.404918 -4.716764,0.159324 -1.004497,0.489086 -2.64257,1.362282 -3.036269,1.618522 -0.16784,0.10924 -0.68219,0.38992 -1.143001,0.623734 -0.843024,0.42775 -1.063584,0.574402 -2.506051,1.666294 -0.432916,0.3277 -0.996669,0.734788 -1.252786,0.90464 -0.602741,0.399726 -2.447105,1.978352 -3.722151,3.185858 -0.164734,0.156008 -0.441993,0.37531 -0.616132,0.487338 -0.17414,0.112028 -0.57419,0.477671 -0.889,0.812538 -0.314811,0.334868 -0.915429,0.953766 -1.334706,1.375329 -0.419278,0.421563 -0.911746,0.956978 -1.094375,1.189812 -0.182628,0.232833 -0.392033,0.48061 -0.465344,0.550615 -0.07331,0.07 -0.441547,0.584354 -0.818303,1.143 -1.086484,1.611015 -1.472915,2.167753 -1.858697,2.677855 -0.19833,0.262243 -0.408657,0.566601 -0.467395,0.676353 -0.05874,0.109752 -0.284891,0.429031 -0.502564,0.70951 -0.217673,0.280479 -0.445241,0.60477 -0.505708,0.720647 -0.06047,0.115878 -0.438143,0.700208 -0.839282,1.298513 -0.401139,0.598304 -0.824593,1.251572 -0.94101,1.451707 -0.116417,0.200135 -0.272662,0.453563 -0.347213,0.563174 -1.173076,1.724772 -1.814306,3.017998 -1.608091,3.24318 0.802218,0.876003 0.844367,1.372929 0.265612,3.131516 -0.23083,0.701395 -0.501783,1.580063 -0.602117,1.952596 -0.784355,2.912247 -1.820693,5.445807 -2.809594,6.868683 -0.244345,0.351575 -0.526502,0.762835 -0.627015,0.913913 -0.761391,1.144423 -4.819067,4.443218 -5.104041,4.149468 -0.042,-0.0433 -0.119489,-0.68833 -0.172191,-1.433397 -0.0527,-0.745067 -0.132569,-1.735667 -0.177482,-2.201333 -0.04491,-0.465667 -0.121272,-1.437217 -0.169687,-2.159 -0.04842,-0.721784 -0.139574,-1.502834 -0.202575,-1.735667 -0.063,-0.232833 -0.140472,-0.861483 -0.172157,-1.397 C 60.337212,91.02615 60.258368,90.18795 60.193688,89.699 60.129008,89.21005 60.075913,88.5814 60.0757,88.302 60.075486,88.0226 59.999842,87.05105 59.9076,86.143 59.73395,84.433537 59.489803,81.589145 59.235373,78.311334 59.184769,77.6594 59.068139,76.61165 58.976195,75.983 c -0.09194,-0.62865 -0.205873,-1.50495 -0.253177,-1.947333 -0.0473,-0.442383 -0.139451,-1.109133 -0.204772,-1.481667 -0.358276,-2.043305 -0.331038,-2.133449 0.829146,-2.744039 1.4196,-0.747118 1.45529,-1.083806 0.900182,-8.49206 l -0.150419,-2.007433 -0.347634,-0.724489 c -0.191199,-0.398469 -0.407557,-0.747483 -0.480795,-0.775587 -0.07324,-0.02811 -0.247288,-0.216978 -0.386778,-0.419718 -0.266197,-0.386905 -0.73465,-0.974272 -1.175324,-1.473673 -0.291127,-0.329925 -0.706288,-0.863883 -1.119105,-1.439334 -0.150327,-0.20955 -0.377958,-0.479972 -0.505847,-0.600939 -0.261507,-0.247352 -0.279078,-0.309055 -0.407509,-1.431061 -0.134527,-1.175264 -0.332093,-2.358605 -0.466475,-2.794 -0.485603,-1.573342 -0.593717,-3.157184 -0.251243,-3.680639 0.292037,-0.446364 0.10922,-2.449717 -0.294883,-3.23141 -0.09296,-0.179823 -0.210636,-0.590628 -0.2615,-0.912899 -0.05086,-0.322272 -0.110188,-0.6146 -0.13183,-0.649619 -0.02164,-0.03502 -0.07557,-0.254662 -0.119841,-0.488097 -0.08811,-0.464578 -0.587558,-1.057822 -1.124221,-1.335337 -0.151281,-0.07823 -0.377693,-0.218116 -0.50314,-0.310861 -0.542514,-0.40109 -2.317304,-0.231306 -3.149164,0.301264 -0.951317,0.609048 -1.094298,0.902841 -1.123368,2.308265 -0.01538,0.74377 -0.06682,1.225721 -0.158137,1.481667 -0.09178,0.257245 -0.150747,0.81533 -0.183219,1.734 l -0.04788,1.354666 0.33701,0.381 c 0.581326,0.657208 0.615145,0.776686 0.701844,2.479529 0.167011,3.280245 0.190265,3.219835 -1.275646,3.313888 -0.486577,0.03122 -1.154491,0.09466 -1.484253,0.140971 -1.341093,0.188357 -1.562139,0.0028 -1.698821,-1.425795 -0.173185,-1.810186 -0.152432,-2.399984 0.09639,-2.739239 0.522659,-0.712625 0.555279,-0.9953 0.297002,-2.573687 -0.09144,-0.5588 -0.167879,-1.2065 -0.169867,-1.439333 -0.02126,-2.489349 -1.47042,-3.944074 -3.865418,-3.880249 -0.856772,0.02283 -2.399382,1.06073 -2.399382,1.614351 0,0.08782 -0.07348,0.443073 -0.16329,0.789452 -0.08981,0.346378 -0.186164,0.984632 -0.214124,1.418342 -0.02796,0.433709 -0.104778,1.0705 -0.170709,1.41509 -0.172761,0.902937 -0.0922,1.721048 0.23738,2.41068 l 0.26301,0.550334 -0.0018,1.952698 c -0.0023,2.536246 -0.154027,2.816402 -1.601471,2.957658 -0.565513,0.05519 -1.58774,0.309494 -1.787353,0.44465 -0.288836,0.195568 -0.358518,0.563963 -0.284899,1.506195 0.03989,0.510473 0.11498,1.690132 0.16688,2.621465 0.0519,0.931334 0.133352,1.998134 0.181006,2.370667 0.09171,0.716912 0.210395,2.098212 0.313045,3.643209 0.08794,1.323635 0.795804,2.066178 2.935321,3.079136 0.186266,0.08819 0.52364,0.350657 0.74972,0.583263 l 0.411053,0.42292 0.110073,0.961736 c 0.06054,0.528955 0.171821,2.123786 0.247291,3.544069 0.07547,1.420283 0.173028,2.982383 0.216794,3.471333 0.04377,0.48895 0.101281,1.32715 0.127809,1.862667 0.09563,1.930531 0.128937,2.519782 0.220136,3.894667 0.05096,0.76835 0.106036,2.3495 0.122379,3.513666 0.03909,2.784523 0.09152,3.737037 0.256326,4.656667 0.07511,0.4191 0.167085,1.2192 0.204397,1.778 0.0995,1.490178 0.240624,3.689586 0.344964,5.376333 0.05041,0.814917 0.144879,2.034117 0.209932,2.70933 0.06505,0.67522 0.158398,2.04682 0.207432,3.048 0.106441,2.17331 0.229419,4.24032 0.334979,5.63034 0.04244,0.5588 0.100976,1.53035 0.130089,2.159 0.02911,0.62865 0.08878,1.50495 0.132588,1.94733 0.106984,1.08028 0.315635,4.50686 0.420175,6.90033 0.04678,1.07104 0.103983,2.05799 0.127119,2.19322 0.03645,0.21307 -0.02416,0.30913 -0.45405,0.71967 -0.734793,0.70171 -1.376094,1.28987 -1.700371,1.55945 l -0.28749,0.239 0.09368,1.07333 c 0.05152,0.59033 0.134626,1.28288 0.18467,1.539 0.05004,0.25612 0.15148,1.39912 0.225415,2.54 0.07394,1.14088 0.152943,2.31777 0.175572,2.61531 0.04901,0.64435 -1.33e-4,0.70093 -1.159684,1.33513 -0.702706,0.38433 -1.859034,1.13139 -2.794,1.80509 -0.405424,0.29213 -2.097024,1.18714 -2.243743,1.18714 -0.0291,0 -0.250544,0.0925 -0.492087,0.20566 -0.948292,0.44408 -1.901845,0.83516 -2.386504,0.97878 -1.336156,0.39594 -3.16631,1.06275 -3.461977,1.26135 -0.633371,0.42545 -0.696243,0.86573 -0.309671,2.16854 0.09672,0.32597 0.273957,0.95047 0.393858,1.38779 0.119902,0.43732 0.312809,1.01373 0.428683,1.28091 l 0.210679,0.48579 0.734214,0.18752 c 4.233131,1.08112 4.101517,0.96595 4.744021,4.15099 0.136209,0.67522 0.326338,1.51342 0.42251,1.86267 0.316806,1.15048 0.513247,1.8135 0.687473,2.32031 0.09453,0.27498 0.171877,0.56795 0.171877,0.65104 0,0.0831 0.119828,0.62009 0.266284,1.19335 0.317299,1.24198 0.428368,2.29732 0.275006,2.61302 -0.121627,0.25038 -0.830802,0.92694 -0.97162,0.92694 -0.0955,0 -0.389865,0.18747 -1.263004,0.80434 -0.256116,0.18094 -0.637116,0.44349 -0.846666,0.58344 -0.20955,0.13995 -0.40005,0.27994 -0.423334,0.31109 -0.02328,0.0311 -0.26975,0.20155 -0.547704,0.37867 -0.284002,0.18098 -1.19263,1.01188 -2.074334,1.89688 -0.862929,0.86615 -1.797562,1.77031 -2.076962,2.00923 -0.2794,0.23892 -0.67945,0.60007 -0.889,0.80255 -0.539137,0.52094 -0.885645,0.79368 -1.866033,1.4688 -0.473357,0.32597 -1.061532,0.75115 -1.307055,0.94485 -0.245522,0.19371 -0.555944,0.41189 -0.689825,0.48485 -0.26159,0.14257 -0.74864,0.55465 -0.69769,0.5903 0.545828,0.38192 5.108136,0.44508 7.275555,0.10073 z"
       id="path2-01"
       transform="translate(-8.3494454,-26.207001)" /><path
       id="path23"
       style="clip-rule:evenodd;display:inline;fill:none;fill-opacity:1;fill-rule:evenodd;stroke:#0029ff;stroke-width:1;stroke-linejoin:round;stroke-miterlimit:2;stroke-dasharray:none;stroke-opacity:1"
       d="M 0,0 V 29.980083 H 3 V 207.78008 H 0 v 36.79672 l 45.6644,2e-4 v -3 h 101.6 v 2.9998 h 45.66491 V 207.78008 H 189.929 V 29.980083 h 3 L 192.92931,0 H 147.2644 v 3 h -101.6 V 0 Z" /></g></svg>
