<?xml version="1.0" encoding="UTF-8" standalone="no"?>
<!-- Created with Inkscape (http://www.inkscape.org/) -->

<svg
   width="193.92931mm"
   height="245.577mm"
   viewBox="0 0 193.92931 245.577"
   version="1.1"
   id="svg1"
   xml:space="preserve"
   xmlns="http://www.w3.org/2000/svg"
   xmlns:svg="http://www.w3.org/2000/svg"><defs
     id="defs1" /><g
     id="layer4"
     style="display:inline"
     transform="translate(0.5,0.5)"><path
       style="display:inline;fill:none;stroke:#fff918;stroke-opacity:1"
       d="m 168.93417,232.30326 c 0.34504,-0.0601 0.33594,-0.014 0.39945,-2.02476 l 0.0511,-1.61816 -0.31766,-0.0515 c -0.36982,-0.06 -0.44843,0.0193 -0.45032,0.45448 -0.001,0.26304 -0.33821,2.49832 -0.47703,3.16337 -0.0502,0.24026 -0.0453,0.24407 0.23343,0.18504 0.15655,-0.0331 0.40901,-0.0819 0.56102,-0.10842 z"
       id="path5-9"
       transform="translate(-8.3494454,-26.207001)" /><path
       style="display:inline;fill:none;stroke:#ff0505;stroke-opacity:1"
       d="m 48.764253,236.26773 c 0.235874,-0.13148 0.743708,-0.41628 1.128521,-0.63289 0.384813,-0.21661 0.743486,-0.39384 0.797051,-0.39384 0.440029,0 0.739512,-0.28467 0.688791,-0.65473 -0.04099,-0.29905 -0.01556,-0.41915 0.130633,-0.61688 0.226508,-0.30637 0.230271,-0.59169 0.01252,-0.94884 -0.29273,-0.48013 -0.196144,-0.66121 0.576345,-1.08055 l 0.391751,-0.21267 0.143436,-1.10066 c 0.07889,-0.60537 0.206489,-1.44357 0.283553,-1.86267 0.07706,-0.4191 0.192315,-1.1811 0.256112,-1.69333 0.0638,-0.51224 0.215471,-1.65524 0.337052,-2.54 0.121581,-0.88477 0.243295,-1.91441 0.270475,-2.28809 l 0.04942,-0.67942 -0.947687,-1.04365 c -0.535732,-0.58999 -1.043308,-1.23862 -1.167661,-1.49217 l -0.219974,-0.44852 0.725559,-2.10408 c 0.729439,-2.11533 1.454957,-4.18847 2.262288,-6.46441 0.59017,-1.66374 0.694185,-2.2758 0.669068,-3.937 -0.01127,-0.74506 -0.02101,-1.54516 -0.02166,-1.778 -6.46e-4,-0.23283 0.07906,-0.72813 0.177131,-1.10066 0.09807,-0.37254 0.259357,-1.40124 0.35842,-2.286 0.190758,-1.70373 0.272689,-2.07875 0.525036,-2.40326 0.330673,-0.42522 0.159421,-1.17557 -0.304999,-1.33636 -0.375508,-0.13 -0.638648,-0.33883 -0.638648,-0.50684 0,-0.18408 -0.138512,-0.13119 -0.299368,0.1143 -1.327671,2.02629 -1.515872,2.11267 -4.484299,2.05825 -1.2573,-0.023 -2.80035,-0.0421 -3.429,-0.0423 l -1.143,-4.2e-4 -0.0087,0.254 c -0.02325,0.67528 -0.709467,1.18171 -1.757986,1.29738 l -0.51927,0.0573 -0.04606,0.55033 c -0.04611,0.55087 0.322778,4.13254 1.321084,12.827 0.06951,0.60537 0.146157,1.32927 0.170328,1.60867 0.02417,0.2794 0.135152,1.25095 0.246623,2.159 0.111471,0.90805 0.225069,1.89865 0.25244,2.20133 0.02737,0.30268 0.142091,1.29328 0.254933,2.20133 0.112841,0.90805 0.227329,1.8796 0.254417,2.159 0.02709,0.2794 0.141755,1.27 0.254815,2.20134 0.11306,0.93133 0.227499,1.92193 0.254309,2.20133 0.02681,0.2794 0.14131,1.25095 0.254446,2.159 0.113136,0.90805 0.227785,1.8796 0.254774,2.159 0.08251,0.85418 0.381872,3.37557 0.423369,3.56587 0.05569,0.25537 0.693422,0.19171 1.263663,-0.12614 z"
       id="path4-66"
       transform="translate(-8.3494454,-26.207001)" /><path
       style="display:inline;fill:none;stroke:#ffdd05;stroke-opacity:1"
       d="m 60.242115,237.0708 c 0,-0.0181 -0.09705,-0.36777 -0.215677,-0.77711 -0.251472,-0.86778 -0.204922,-1.11122 0.25437,-1.33024 0.351402,-0.16757 0.360398,-0.21906 0.432218,-2.47412 0.02966,-0.93133 0.06564,-1.90288 0.07996,-2.159 0.01432,-0.25611 0.05304,-1.91346 0.08604,-3.683 l 0.06001,-3.21733 -0.43477,-0.92546 c -0.247971,-0.52784 -0.465318,-0.89161 -0.505871,-0.84667 -0.07625,0.0845 -0.504328,3.20905 -0.985168,7.1908 -0.163079,1.35043 -0.372396,3.07033 -0.465148,3.822 -0.211192,1.71152 -0.210911,1.92734 0.0029,2.21652 l 0.171524,0.232 -0.263292,0.82991 c -0.14481,0.45646 -0.238387,0.85534 -0.207949,0.88641 0.114571,0.11694 1.99086,0.3387 1.99086,0.23529 z"
       id="path3-0"
       transform="translate(-8.3494454,-26.207001)" /><path
       style="display:inline;fill:none;stroke:#fe0000;stroke-opacity:1"
       d="m 106.8579,239.70913 c 0.0503,-0.0317 0.83135,-0.098 1.73567,-0.14721 2.10228,-0.11447 3.00004,-0.21251 4.77688,-0.52163 1.98235,-0.34489 3.92776,-0.62692 6.05367,-0.87762 0.62865,-0.0741 1.4859,-0.19072 1.905,-0.25906 0.80835,-0.13183 2.23959,-0.32595 3.429,-0.46508 1.98836,-0.23259 4.04557,-0.49895 5.50333,-0.71256 0.8567,-0.12553 2.7164,-0.32678 4.32249,-0.46777 0.53798,-0.0472 2.32911,-0.0859 3.98028,-0.0859 2.88245,0 3.04344,-0.009 4.03797,-0.21422 1.25529,-0.2596 2.25444,-0.28947 4.4656,-0.13347 1.75512,0.12382 2.22652,0.12467 2.85658,0.005 0.22875,-0.0434 0.84164,-0.11851 1.36199,-0.16696 1.43319,-0.13343 4.60043,-0.6523 5.22176,-0.85544 0.30268,-0.099 1.01133,-0.36494 1.57478,-0.59107 0.56345,-0.22612 1.40165,-0.50393 1.86267,-0.61734 0.46102,-0.1134 1.27637,-0.32015 1.81188,-0.45944 0.53552,-0.13928 1.24037,-0.27744 1.56634,-0.30701 0.32596,-0.0296 0.71106,-0.072 0.85576,-0.0942 l 0.26309,-0.0405 0.0448,-1.96693 c 0.0526,-2.30829 0.12371,-2.10611 -0.60598,-1.72267 -1.58576,0.83329 -2.87569,0.89623 -4.17715,0.20382 -0.79582,-0.42339 -2.15959,-1.80902 -1.52404,-1.54845 0.0815,0.0334 0.31419,0.081 0.51712,0.10576 l 0.36895,0.045 -0.60127,-0.60127 c -2.36627,-2.36627 -2.47516,-4.01244 -0.57788,-8.73614 0.37302,-0.92872 0.4252,-1.13351 0.42611,-1.67217 0.001,-0.74652 0.0717,-0.76953 1.01552,-0.33156 1.13265,0.52559 1.20446,0.62431 1.87055,2.57152 0.60314,1.76322 0.67412,1.91819 1.08037,2.35892 0.45602,0.49473 0.43634,0.51081 0.65496,-0.53488 0.35184,-1.68286 1.13411,-3.83547 2.01732,-5.55112 0.35697,-0.69341 0.37589,-0.76194 0.26697,-0.96719 -0.0776,-0.14616 -0.11166,-0.45946 -0.10078,-0.92588 0.0189,-0.8114 0.0369,-0.8009 -0.68849,-0.40218 -0.67481,0.37093 -0.6961,0.35894 -0.7704,-0.43399 -0.0329,-0.35093 -0.0837,-0.62659 -0.11301,-0.61257 -0.0293,0.014 -0.32246,0.16502 -0.65153,0.33555 -1.38582,0.71815 -1.72605,0.40734 -1.18627,-1.08369 0.26911,-0.74339 0.27365,-0.68401 -0.0631,-0.8247 -0.68319,-0.28546 -1.19827,-1.01435 -1.4023,-1.98439 -0.16239,-0.77205 -0.0935,-1.37409 0.11804,-1.03179 0.0588,0.0952 0.66878,0.42212 0.78751,0.42212 0.0414,0 -0.0188,-0.31433 -0.13392,-0.6985 -0.33009,-1.10186 -0.35981,-2.78411 -0.0691,-3.91006 l 0.21713,-0.84088 -0.2124,-0.36244 c -0.62062,-1.05901 -3.39119,-5.21639 -4.11079,-6.16845 -0.45755,-0.60537 -1.36329,-1.79894 -2.01275,-2.65238 -2.32857,-3.05994 -2.32862,-3.62042 -3e-4,-3.18392 3.21074,0.60194 7.18624,2.09034 10.42438,3.90282 0.56762,0.31771 0.5745,0.31916 0.80433,0.16942 0.69545,-0.45313 0.95618,-0.52194 1.97761,-0.52194 h 0.9838 l 0.70967,0.35983 c 0.87584,0.44409 0.78333,0.46302 0.96196,-0.19689 0.18144,-0.67027 0.22303,-0.67201 1.26032,-0.0527 1.30795,0.78091 2.44198,1.93119 3.14731,3.19245 0.24064,0.4303 0.40006,0.59539 0.8654,0.89616 0.31372,0.20279 0.8557,0.64211 1.2044,0.97627 l 0.63398,0.60758 0.032,0.70551 c 0.0319,0.70139 0.0343,0.70798 0.41612,1.13031 0.8573,0.94821 1.10587,2.16852 0.73755,3.62098 -0.0431,0.16981 -0.0275,0.23283 0.0575,0.23283 0.21499,0 0.74849,0.42461 0.74849,0.59572 0,0.11544 0.0583,0.16685 0.1905,0.16814 1.18184,0.0115 1.90739,1.33601 1.45762,2.6608 -0.11302,0.33288 -0.1143,0.413 -0.01,0.61679 0.74415,1.45173 1.21645,5.10255 0.66011,5.10255 -0.0755,0 -0.6585,-0.52031 -1.29565,-1.15624 l -1.15846,-1.15624 -0.28651,0.30378 c -0.49471,0.52454 -0.76944,0.49752 -1.70553,-0.16775 -0.48765,-0.34657 -0.46196,-0.36726 -0.80993,0.65245 -0.8982,2.63212 -1.17627,2.8094 -2.0479,1.30564 -0.26779,-0.46198 -0.53695,-0.83418 -0.59814,-0.8271 -0.0612,0.007 -0.45417,0.10598 -0.87327,0.21978 l -0.762,0.2069 -0.0604,0.71708 c -0.0332,0.3944 -0.0946,0.80935 -0.13629,0.92213 -0.13935,0.3767 0.24731,1.29651 0.73931,1.75872 0.63838,0.59971 0.89541,1.2191 0.90209,2.17385 0.004,0.53104 0.0593,0.92881 0.18325,1.31233 1.17304,3.62837 1.22701,4.79984 0.31686,6.87815 -0.3699,0.84465 -0.43798,0.92634 -0.505,0.60593 -0.0282,-0.13479 -0.0791,-0.35839 -0.11306,-0.49688 l -0.0618,-0.2518 -0.18074,0.29413 c -0.14176,0.23069 -0.20084,0.53158 -0.27388,1.39481 -0.0856,1.01217 -0.28508,2.40138 -0.39947,2.78247 -0.0854,0.28446 2.14891,0.15232 3.15442,-0.18655 0.42419,-0.14296 1.12904,-0.32279 1.56634,-0.39963 0.43729,-0.0768 1.15702,-0.28488 1.5994,-0.46233 0.96086,-0.3854 1.59193,-0.55584 2.83634,-0.76604 0.51223,-0.0865 1.27423,-0.22034 1.69333,-0.29737 1.72461,-0.317 7.99363,0.21015 9.54617,0.80272 l 0.23283,0.0889 v -2.1533 -2.15329 l -0.30824,-0.23644 c -0.89644,-0.68763 -0.83862,-0.48366 -1.05102,-3.70778 -0.0491,-0.74507 -0.12208,-1.46897 -0.16222,-1.60867 -0.0401,-0.1397 -0.0975,-0.7112 -0.12741,-1.27 -0.0299,-0.5588 -0.0936,-1.33985 -0.14147,-1.73566 -0.0896,-0.74029 -0.24264,-2.53454 -0.44426,-5.207 -0.0632,-0.8382 -0.13769,-1.58115 -0.16544,-1.651 -0.0278,-0.0699 -0.0897,-0.75565 -0.13757,-1.524 -0.0479,-0.76835 -0.12595,-1.6637 -0.17343,-1.98967 -0.0475,-0.32597 -0.12167,-1.10702 -0.16486,-1.73567 -0.10225,-1.4886 -0.30504,-3.87151 -0.42103,-4.94743 -0.11572,-1.07344 -0.23109,-2.37884 -0.38209,-4.32357 -0.0651,-0.8382 -0.16064,-1.84785 -0.21234,-2.24366 -0.0517,-0.39582 -0.0902,-0.94827 -0.0857,-1.22767 0.005,-0.2794 -0.0142,-0.6604 -0.0418,-0.84667 -0.0619,-0.41821 0.22698,-0.98177 0.54945,-1.07189 0.51208,-0.14312 1.50383,-0.32718 1.75751,-0.32619 0.33515,0.001 2.75449,-0.62108 3.26518,-0.83999 l 0.36389,-0.15598 -0.0315,-0.53864 c -0.0375,-0.64048 -0.2786,-1.86413 -0.63169,-3.20564 -0.14095,-0.53552 -0.3067,-1.18322 -0.36833,-1.43933 -0.34254,-1.42344 -0.93757,-2.46146 -1.82001,-3.175 -0.82072,-0.66364 -1.60355,-1.37968 -2.0072,-1.83597 l -0.44389,-0.50177 0.0232,-1.49813 c 0.0155,-1.00062 0.0583,-1.56114 0.12896,-1.68787 0.22744,-0.40786 -0.43681,-1.21839 -2.85468,-3.48334 -0.91539,-0.85749 -1.63693,-1.49715 -1.72979,-1.53349 -1.30118,-0.50921 -2.08423,-2.60419 -1.4182,-3.79431 0.12911,-0.23072 -0.0637,-0.46806 -0.77035,-0.94809 -0.97743,-0.66399 -1.02126,-0.69731 -2.39293,-1.8197 -0.68291,-0.5588 -1.32926,-1.07315 -1.43633,-1.143 -1.15146,-0.75117 -1.70156,-1.59011 -1.77654,-2.70933 -0.0986,-1.47248 -0.25255,-1.78328 -0.98252,-1.98413 -0.25611,-0.0705 -0.80399,-0.24341 -1.21749,-0.38433 -0.41351,-0.14092 -0.81841,-0.25621 -0.89979,-0.25621 -0.34738,0 -2.47669,-0.61258 -3.05366,-0.87851 -1.21536,-0.56016 -2.72591,-1.8616 -4.07806,-3.51349 -0.081,-0.099 -0.23344,-0.18306 -0.33867,-0.1868 -0.10523,-0.004 -0.49613,-0.0172 -0.86866,-0.0299 -0.49313,-0.0168 -0.83851,-0.0856 -1.27,-0.25294 -0.32597,-0.12642 -0.712,-0.26035 -0.85785,-0.29762 -0.60318,-0.15412 -0.71436,-0.43673 -0.74892,-1.90371 -0.038,-1.61066 -0.12667,-3.14439 -0.21833,-3.77438 -0.27324,-1.8781 -0.40281,-6.18068 -0.21326,-7.08177 0.24491,-1.16425 1.24465,-2.23957 3.57034,-3.84023 0.88784,-0.61106 1.31721,-0.92343 1.64302,-1.1953 0.54902,-0.45812 2.41038,-1.6099 3.64067,-2.25277 0.58208,-0.30416 1.09643,-0.57984 1.143,-0.61262 0.0466,-0.0328 0.21801,-0.11195 0.381,-0.17594 0.16298,-0.064 0.70751,-0.37517 1.21006,-0.69152 0.50255,-0.31635 0.9489,-0.57519 0.99188,-0.57519 0.043,0 0.20332,-0.10807 0.35628,-0.24016 0.15296,-0.13208 0.67983,-0.52319 1.17081,-0.86911 1.22772,-0.86499 1.27141,-0.9042 1.59202,-1.42841 l 0.28339,-0.46336 -0.0554,-1.01831 c -0.056,-1.03067 -0.24834,-2.24118 -0.40219,-2.53158 -0.0462,-0.0872 -0.13971,-0.90559 -0.20776,-1.81858 -0.14565,-1.95392 -0.0156,-1.71004 -0.92961,-1.74306 -0.41242,-0.0149 -1.09277,-0.0874 -1.51187,-0.16109 -0.4191,-0.0737 -1.13115,-0.17085 -1.58234,-0.21588 -1.3408,-0.13381 -1.93986,-0.43199 -3.24757,-1.61644 -0.59043,-0.53477 -1.21209,-1.0513 -1.38146,-1.14784 -0.16938,-0.0965 -0.49025,-0.315 -0.71306,-0.48547 -0.23504,-0.17984 -0.64954,-0.38275 -0.9874,-0.48337 -0.32026,-0.0954 -0.79628,-0.26804 -1.05781,-0.38371 -0.26154,-0.11566 -0.54988,-0.21029 -0.64076,-0.21029 -1.20238,0 -2.1692,-1.08896 -1.95776,-2.20508 0.0993,-0.52402 0.0742,-0.55986 -0.79317,-1.13374 -1.14358,-0.75663 -4.12057,-3.6723 -4.51682,-4.42378 -0.15458,-0.29317 -0.11434,-0.7028 0.10595,-1.07872 0.45746,-0.78058 0.24885,-1.62929 -0.83399,-3.39302 -0.29134,-0.47454 -0.68932,-1.09902 -1.07915,-1.69333 -1.25201,-1.908733 -1.69488,-3.163174 -1.32877,-3.763734 0.3167,-0.519509 0.41752,-0.988051 0.29022,-1.348836 -0.16115,-0.456764 -0.6302,-1.36482 -0.86198,-1.668755 -0.10989,-0.144095 -0.19979,-0.285278 -0.19979,-0.31374 0,-0.02846 -0.1524,-0.269307 -0.33867,-0.535211 -0.18627,-0.265905 -0.33867,-0.516789 -0.33867,-0.557522 0,-0.04073 -0.0726,-0.177291 -0.16126,-0.303463 -1.57672,-2.24294 -1.66409,-2.497454 -1.31396,-3.827739 0.26942,-1.023625 0.15587,-1.488622 -0.65501,-2.682254 -0.13224,-0.194657 -0.24043,-0.381564 -0.24043,-0.415349 0,-0.03378 -0.1782,-0.33172 -0.396,-0.662078 -0.84618,-1.283509 -0.95867,-1.461604 -0.95867,-1.517748 0,-0.03192 -0.10899,-0.208486 -0.24219,-0.392369 -0.1332,-0.183883 -0.44462,-0.783628 -0.69205,-1.332767 -0.24742,-0.549139 -0.53853,-1.150835 -0.64691,-1.337101 -0.42778,-0.735233 -1.59794,-3.066134 -1.69067,-3.367737 -0.19932,-0.648291 -0.31102,-0.738597 -0.91361,-0.738597 -0.72403,0 -1.34481,-0.699927 -1.07384,-1.21075 0.25316,-0.477238 0.4239,-1.257019 0.32521,-1.485257 -0.16721,-0.38671 -0.874,-1.40176 -1.31036,-1.881873 -0.22984,-0.252882 -0.60161,-0.726486 -0.82614,-1.052453 -0.56117,-0.814662 -1.15423,-1.553338 -1.52258,-1.896413 -0.39921,-0.371811 -1.5401,-1.646629 -1.86411,-2.08292 -0.37232,-0.501347 -1.47553,-1.729696 -1.95274,-2.174241 -0.92229,-0.85916 -0.95306,-0.886534 -2.27037,-2.019783 -0.50712,-0.436266 -0.95877,-0.759998 -1.35433,-0.970751 -0.82001,-0.436895 -1.7701,-0.973395 -1.86868,-1.055214 -0.12848,-0.106628 -1.04907,-0.42134 -1.24105,-0.424263 -0.0752,-0.0011 -0.22761,-0.0706 -0.33866,-0.15434 -0.11106,-0.08374 -0.58292,-0.32757 -1.04859,-0.541839 -0.46566,-0.214269 -1.07526,-0.52403 -1.35466,-0.688358 -0.76076,-0.447434 -2.01561,-1.043729 -2.87596,-1.366628 -0.42059,-0.157853 -0.93616,-0.365049 -1.14571,-0.460435 -0.20955,-0.09539 -0.45085,-0.174266 -0.53623,-0.175289 -0.0854,-0.001 -0.44287,-0.117037 -0.79444,-0.257811 -0.35156,-0.140773 -0.98576,-0.315756 -1.40932,-0.388852 -0.42357,-0.07309 -0.87369,-0.186457 -1.00027,-0.251915 -0.23336,-0.120674 -2.09764,-0.396214 -3.69883,-0.546686 -0.48258,-0.04535 -0.90967,-0.102385 -0.94909,-0.126744 -0.0705,-0.04355 -1.45114,-0.139769 -1.84729,-0.128738 -0.11135,0.0031 -0.35229,-0.03471 -0.53542,-0.08402 -0.18313,-0.04931 -0.49207,-0.104558 -0.68654,-0.122771 -1.915,-0.179345 -1.71841,0.0085 -1.70092,-1.624861 0.0218,-2.033553 0.22223,-2.561148 0.75105,-1.976801 0.0863,0.09534 0.25631,0.173341 0.37784,0.173341 0.12153,0 0.36153,0.07534 0.53333,0.167416 0.1718,0.09208 0.78083,0.325623 1.35341,0.518987 0.57258,0.193365 1.08452,0.36816 1.13766,0.388435 0.14455,0.05516 0.70772,-0.474685 0.70772,-0.665842 0,-0.395785 -0.31802,-0.640325 -1.01044,-0.776961 -0.15993,-0.03156 -0.35874,-0.118882 -0.4418,-0.194052 -0.0831,-0.07517 -0.39036,-0.25599 -0.68289,-0.401824 -0.63436,-0.316248 -0.67266,-0.470102 -0.15087,-0.605958 0.20955,-0.05456 0.51435,-0.176632 0.67734,-0.271275 0.77859,-0.452121 1.778,-0.411495 1.778,0.07228 0,0.832946 0.54519,1.157193 1.06802,0.635199 0.0985,-0.0983 0.51756,-0.426004 0.93133,-0.728223 0.41377,-0.302219 0.92376,-0.690654 1.13331,-0.86319 0.49089,-0.404179 1.14543,-0.882332 1.97176,-1.440397 0.67621,-0.456689 0.80271,-0.643561 0.70342,-1.039146 -0.0849,-0.33824 -0.28185,-0.377824 -2.13755,-0.429585 -0.97091,-0.02708 -1.82056,-0.06762 -1.88811,-0.09008 -0.90194,-0.299894 -1.99048,0.163593 -1.92204,0.81838 0.0736,0.703921 -0.0386,0.878705 -0.70681,1.101182 -0.30268,0.100778 -0.68368,0.255559 -0.84667,0.343957 -0.16298,0.0884 -0.63923,0.25059 -1.05833,0.360429 -0.4191,0.109838 -1.0179,0.269409 -1.33066,0.354604 -0.72588,0.197722 -0.70134,0.240313 -0.70134,-1.217417 V 46.56522 l 0.36152,-0.199714 c 0.41719,-0.230474 0.74069,-0.531615 1.33306,-1.240922 0.44533,-0.533248 1.14404,-1.23025 1.23325,-1.23025 0.11202,0 0.89498,-1.080999 1.14986,-1.587551 0.49248,-0.978767 0.44367,-2.591926 -0.10274,-3.396054 -0.11401,-0.16777 -0.20728,-0.424303 -0.20728,-0.570074 0,-0.167015 -0.0939,-0.383245 -0.254,-0.584654 -0.1397,-0.17579 -0.254,-0.367962 -0.254,-0.427048 0,-0.342342 -0.86064,-1.366091 -1.41673,-1.685221 -0.31512,-0.180842 -0.64914,-0.393832 -0.74227,-0.473312 -0.24459,-0.208728 -1.25366,-0.589419 -1.56233,-0.589419 -0.14489,0 -0.39541,-0.05514 -0.55671,-0.122532 -0.37713,-0.157576 -1.24534,-0.182865 -1.7333,-0.05049 -0.20955,0.05685 -0.47625,0.12967 -0.59266,0.161826 -0.16037,0.04429 -0.21491,0.119431 -0.22506,0.309997 -0.007,0.138342 -0.0169,0.294394 -0.0212,0.346781 -0.004,0.05239 -0.12298,0.11829 -0.26378,0.14645 -0.1408,0.02816 -0.27101,0.0996 -0.28937,0.15875 -0.0183,0.05915 -0.0995,0.33615 -0.18028,0.61555 -0.0808,0.2794 -0.23634,0.595267 -0.34564,0.701926 -0.10929,0.10666 -0.19871,0.256604 -0.19871,0.33321 0,0.07661 -0.0857,0.230555 -0.1905,0.342108 -0.28455,0.302958 -0.13734,2.562993 0.19155,2.940756 0.0811,0.09313 0.19503,0.321733 0.25322,0.508 0.0582,0.186267 0.15598,0.396439 0.21732,0.467051 0.0613,0.07061 0.34162,0.575789 0.62286,1.122618 0.28125,0.546829 0.71202,1.282986 0.95729,1.635904 0.24526,0.352918 0.52614,0.76214 0.62419,0.909382 0.26551,0.398727 0.73255,1.74867 0.7224,2.088045 -0.009,0.31743 -0.0693,1.416027 -0.0862,1.581794 -0.0222,0.219058 -0.34849,0.198816 -0.84637,-0.05251 -0.60443,-0.305117 -1.07905,-0.484064 -1.68229,-0.634287 -0.24429,-0.06083 -0.72899,-0.257161 -1.0771,-0.43628 l -0.63292,-0.325672 -0.25641,0.245653 c -0.44317,0.424585 -0.33865,0.59258 0.80193,1.288972 0.17922,0.109424 0.49332,0.262182 1.18533,0.576462 1.70571,0.774658 1.71277,0.781523 0.97222,0.945973 -0.24931,0.05536 -0.66531,0.176625 -0.92443,0.269468 -0.25912,0.09284 -0.64257,0.210446 -0.85212,0.261341 -0.68456,0.166261 -1.69364,0.69582 -1.74942,0.918085 -0.18749,0.74699 0.72934,0.963167 1.87642,0.442438 0.18626,-0.08456 0.48643,-0.179266 0.66704,-0.210464 0.1806,-0.0312 0.54255,-0.152304 0.80433,-0.269126 1.35702,-0.605588 1.81997,-0.521547 1.75391,0.318394 -0.0271,0.343986 -0.0721,1.149304 -0.10019,1.789595 l -0.051,1.164167 -0.43638,5.22e-4 c -0.24001,2.86e-4 -0.53858,0.05384 -0.66349,0.119009 -0.1407,0.07341 -0.65611,0.139749 -1.35466,0.17437 -1.6984,0.08418 -2.62705,0.186495 -3.79456,0.418089 -0.58209,0.115465 -1.36314,0.235124 -1.73567,0.265909 -0.95507,0.07892 -2.05774,0.418124 -2.34525,0.72144 l -0.22858,0.24115 0.01692,1.294589 0.01691,1.294589 -0.296333,-0.0279 c -0.459886,-0.04329 -0.59045,-0.325284 -0.897799,-1.939064 -0.19433,-1.020363 -3.012267,-0.131253 -7.399535,2.334687 -0.20955,0.117781 -0.778284,0.419087 -1.263853,0.669569 -0.931087,0.480303 -1.391507,0.776191 -2.073396,1.332467 -0.430017,0.350802 -0.855154,0.659448 -1.658084,1.20376 -0.479908,0.325332 -2.399005,1.882309 -2.624667,2.129411 -0.221223,0.24224 -1.830186,1.650802 -2.23817,1.959399 -0.215474,0.162983 -0.638711,0.584796 -0.940527,0.937361 -0.301816,0.352566 -0.659441,0.722861 -0.794722,0.822878 -0.218598,0.161617 -0.883659,0.89733 -1.672916,1.850638 -0.447384,0.540375 -0.562851,0.700863 -1.406649,1.955108 -0.446108,0.663109 -0.915921,1.348909 -1.044029,1.524 -0.128107,0.175092 -0.339923,0.470748 -0.470701,0.657015 -0.130778,0.186266 -0.461287,0.643466 -0.734464,1.016 -0.273178,0.372533 -0.578105,0.829733 -0.677617,1.016 -0.09951,0.186266 -0.253128,0.433916 -0.341369,0.550333 -0.155347,0.20495 -1.169438,1.764051 -1.467107,2.255584 -0.08063,0.133146 -0.392613,0.623083 -0.693292,1.088749 -1.162348,1.800149 -1.33364,2.279798 -0.992344,2.778746 0.594717,0.869429 0.652427,1.288785 0.308546,2.242102 -0.116248,0.322267 -0.398476,1.229412 -0.627174,2.015879 -2.004467,6.893149 -3.412906,9.061744 -7.805999,12.019017 -0.971433,0.653938 -0.867815,0.837038 -1.009439,-1.783744 -0.05536,-1.024466 -0.129823,-1.919816 -0.16547,-1.989666 -0.03565,-0.06985 -0.09143,-0.71755 -0.123956,-1.439334 -0.03436,-0.762457 -0.127607,-1.622371 -0.22254,-2.05227 -0.08987,-0.406965 -0.16414,-1.016565 -0.165049,-1.354667 -9.09e-4,-0.338101 -0.05544,-1.018718 -0.121173,-1.512482 -0.06574,-0.493764 -0.144202,-1.370064 -0.174367,-1.947334 -0.03016,-0.577269 -0.107665,-1.50678 -0.172222,-2.06558 -0.06456,-0.5588 -0.15848,-1.68275 -0.208717,-2.497667 -0.05024,-0.814916 -0.12486,-1.729316 -0.165828,-2.032 -0.04097,-0.302683 -0.117117,-1.121833 -0.16922,-1.820333 -0.154594,-2.0725 -0.253437,-3.013135 -0.382562,-3.640667 -0.06707,-0.325966 -0.159852,-1.049866 -0.206174,-1.608666 -0.04632,-0.5588 -0.161237,-1.45415 -0.255365,-1.989667 -0.307326,-1.748448 -0.285958,-1.81066 0.813026,-2.367134 1.132533,-0.573462 1.436691,-1.420353 1.293601,-3.601866 -0.03971,-0.605367 -0.153448,-2.356811 -0.252756,-3.892098 -0.119451,-1.846683 -0.224463,-2.921249 -0.310279,-3.175 -0.207773,-0.614375 -0.605689,-1.348518 -0.793037,-1.463132 -0.09509,-0.05817 -0.25456,-0.236917 -0.354378,-0.397209 -0.09982,-0.160292 -0.345304,-0.475888 -0.545525,-0.701326 -0.200221,-0.225438 -0.364038,-0.440652 -0.364038,-0.478254 0,-0.0376 -0.142875,-0.222008 -0.3175,-0.409792 -0.399428,-0.429526 -0.858681,-0.994703 -1.120435,-1.378855 -0.111054,-0.162984 -0.328249,-0.439319 -0.482657,-0.614078 -0.221312,-0.250481 -0.280741,-0.391797 -0.280741,-0.667571 0,-0.192405 -0.04067,-0.601871 -0.09038,-0.909923 -0.04971,-0.308052 -0.147045,-0.922045 -0.216301,-1.364428 -0.06926,-0.442384 -0.179746,-0.994834 -0.245535,-1.227667 -0.475372,-1.682409 -0.58748,-2.970481 -0.305606,-3.511269 0.304385,-0.583975 0.305804,-0.757683 0.02077,-2.542398 -0.04091,-0.256116 -0.15759,-0.625083 -0.2593,-0.819925 -0.101386,-0.19484 -0.217193,-0.57584 -0.257024,-0.846664 -0.256343,-1.742943 -0.591138,-2.230727 -2.032961,-2.961946 -1.882316,-0.954615 -4.251565,0.544196 -4.291353,2.714754 -0.01361,0.742205 -0.06418,1.236864 -0.151857,1.485375 -0.358289,1.015502 -0.265116,3.069716 0.160789,3.54496 0.569272,0.635217 0.583355,0.699206 0.670449,3.046161 l 0.07945,2.141047 -0.195832,0.208453 c -0.139996,0.14902 -0.285606,0.208454 -0.510697,0.208454 -0.173176,0 -0.854216,0.05692 -1.513423,0.126487 -1.890028,0.199459 -2.052205,0.125224 -2.169847,-0.993225 -0.174842,-1.662272 -0.108217,-2.774612 0.191502,-3.197262 0.446162,-0.629156 0.446073,-0.613363 0.02045,-3.662202 -0.09602,-0.6878 -0.244913,-1.367184 -0.363713,-1.659552 -0.110629,-0.272259 -0.252289,-0.694577 -0.314801,-0.938485 -0.09441,-0.368351 -0.195711,-0.516851 -0.598067,-0.876687 l -0.48441,-0.433218 -1.042823,-0.152943 c -1.86623,-0.273707 -3.614115,0.578906 -3.627921,1.769688 -0.0015,0.131119 -0.07648,0.447949 -0.166569,0.704066 -0.09009,0.256116 -0.165274,0.675216 -0.167069,0.931333 -0.0018,0.256117 -0.06019,0.843347 -0.129764,1.304956 -0.217593,1.443658 -0.176895,2.16908 0.166553,2.968711 l 0.293054,0.682299 -0.01863,1.877133 c -0.02344,2.362445 -0.170778,2.639371 -1.475131,2.772599 -1.245362,0.127203 -1.971942,0.401733 -2.140547,0.808779 -0.162476,0.392254 0.02404,3.666039 0.46788,8.21219 0.06592,0.675216 0.12101,1.51812 0.12242,1.873119 0.0029,0.719002 0.332311,1.328032 0.890476,1.646136 0.140299,0.07996 0.350339,0.229641 0.466756,0.332629 0.200757,0.177599 0.737515,0.492569 1.627044,0.95475 0.219658,0.11413 0.56503,0.384604 0.767494,0.601054 l 0.368116,0.393546 0.101409,1.226883 c 0.149538,1.809172 0.25584,3.446101 0.3106,4.782882 0.02671,0.651934 0.08453,1.490134 0.128499,1.862667 0.04397,0.372533 0.121026,1.572683 0.171241,2.667 0.05021,1.094317 0.145385,2.770717 0.211491,3.725333 0.06611,0.954617 0.111549,2.250017 0.100983,2.878667 -0.02575,1.531963 0.101834,3.958284 0.249312,4.741333 0.138557,0.735691 0.217938,1.653501 0.406412,4.699 0.07493,1.210734 0.173949,2.810934 0.220049,3.556 0.0461,0.745067 0.118716,1.54517 0.16137,1.778 0.04266,0.23283 0.119767,1.43298 0.17136,2.667 0.05159,1.23402 0.12967,2.77707 0.173503,3.429 0.04383,0.65193 0.137617,2.09973 0.208409,3.21733 0.07079,1.1176 0.183412,2.7559 0.250266,3.64067 0.06685,0.88477 0.147343,1.95157 0.178866,2.37067 0.03152,0.4191 0.119097,2.06945 0.194611,3.66744 l 0.137298,2.90544 -0.384449,0.39656 c -0.211448,0.21811 -0.630548,0.61335 -0.931334,0.87833 -0.300786,0.26497 -0.673502,0.59471 -0.828257,0.73276 l -0.281373,0.25099 0.08703,1.04524 c 0.04787,0.57488 0.143155,1.44529 0.21175,1.93424 0.0686,0.48895 0.168241,1.651 0.221437,2.58233 0.0532,0.93133 0.116683,1.91337 0.141083,2.1823 0.06044,0.66612 -0.222237,0.93558 -1.834222,1.74844 -0.302684,0.15264 -0.702734,0.39105 -0.889,0.52982 -1.662008,1.2382 -2.726568,1.82424 -4.656667,2.56348 -0.2794,0.10702 -0.724634,0.29441 -0.989408,0.41643 -0.264775,0.12203 -0.517797,0.22186 -0.562271,0.22186 -0.978447,0 -3.850054,1.34304 -4.061512,1.89955 -0.173514,0.45665 -0.167912,0.51312 0.16012,1.61412 0.09712,0.32597 0.253454,0.89747 0.347411,1.27 0.191936,0.76101 0.476247,1.53544 0.663063,1.80612 0.09392,0.13608 0.385163,0.24514 1.18293,0.44297 3.67439,0.9112 3.696144,0.92967 4.230061,3.59291 0.350121,1.74644 0.773148,3.37611 1.184711,4.56398 0.09528,0.27498 0.173228,0.57086 0.173228,0.6575 0,0.0866 0.131686,0.66689 0.292635,1.28943 0.185016,0.71564 0.301779,1.383 0.3175,1.81468 l 0.02486,0.68279 -0.338666,0.34836 c -0.186267,0.19159 -0.529167,0.44424 -0.762001,0.56144 -0.232833,0.11719 -0.575733,0.32517 -0.762,0.46217 -0.750167,0.55177 -2.049157,1.46605 -2.369256,1.66758 -0.187042,0.11775 -0.968727,0.8511 -1.737077,1.62966 -0.76835,0.77856 -1.7399,1.71331 -2.159,2.07723 -0.4191,0.36392 -0.938541,0.83799 -1.154312,1.05349 -0.215771,0.21549 -0.596771,0.53319 -0.846667,0.70599 -0.907426,0.62746 -1.65026,1.15818 -2.147688,1.53441 -0.2794,0.21132 -0.727075,0.54259 -0.994834,0.73614 -0.732156,0.52926 -0.712516,0.85058 0.08467,1.38519 0.314325,0.21079 0.762,0.5172 0.994834,0.6809 0.39691,0.27907 1.553046,0.87039 2.559091,1.30889 1.079878,0.47068 1.160106,0.9167 1.201919,6.682 0.0069,0.95287 0.0451,1.75297 0.08486,1.778 0.03989,0.0251 0.03847,0.55782 -0.0032,1.1885 -0.626764,9.49271 -0.751602,11.1199 -0.866584,11.29539 -0.07583,0.11573 -0.141308,0.52147 -0.17278,1.07065 -0.02787,0.48636 -0.08922,1.32245 -0.136328,1.85796 -0.04711,0.53552 -0.105741,1.37372 -0.130293,1.86267 -0.02455,0.48895 -0.06254,0.97229 -0.08443,1.07408 -0.02188,0.1018 -0.135258,1.4734 -0.251944,3.048 -0.116685,1.57461 -0.23327,3.11057 -0.259077,3.41325 -0.02581,0.30269 -0.06081,0.74084 -0.07779,0.97367 -0.01698,0.23283 -0.149566,1.98543 -0.294645,3.89467 -0.145079,1.90923 -0.282975,3.81423 -0.306435,4.23333 -0.02346,0.4191 -0.0768,1.0287 -0.118524,1.35467 -0.04173,0.32596 -0.06959,0.64981 -0.06192,0.71966 0.0077,0.0699 -0.01444,0.4318 -0.04914,0.80434 -0.0347,0.37253 -0.08051,0.96308 -0.101799,1.31233 -0.02129,0.34925 -0.07798,1.1303 -0.125987,1.73567 -0.07976,1.00593 -0.07251,1.69848 0.04215,4.02166 0.02183,0.44239 0.07761,2.36644 0.123959,4.27567 0.113705,4.68419 0.152505,5.33339 0.328009,5.48818 0.88578,0.78123 2.698645,1.16647 7.84485,1.66705 1.023128,0.0995 2.460814,0.2829 3.640667,0.46438 0.4191,0.0645 1.16205,0.176 1.651,0.24787 0.963764,0.14164 2.629222,0.45378 4.106334,0.76959 2.445613,0.52288 3.136162,0.48823 3.062839,-0.15371 -0.493508,-4.3206 -0.73312,-6.48372 -0.77559,-7.00169 -0.02864,-0.34925 -0.143496,-1.37795 -0.255246,-2.286 -0.11175,-0.90805 -0.225821,-1.8796 -0.253491,-2.159 -0.02767,-0.2794 -0.142315,-1.27 -0.254767,-2.20134 -0.112452,-0.93133 -0.226415,-1.92193 -0.253251,-2.20133 -0.02684,-0.2794 -0.141685,-1.25095 -0.25522,-2.159 -0.113536,-0.90805 -0.227809,-1.89865 -0.253941,-2.20133 -0.02613,-0.30269 -0.06334,-0.62654 -0.08268,-0.71967 -0.01934,-0.0931 -0.05764,-0.37888 -0.08511,-0.635 -0.02747,-0.25612 -0.122461,-1.05622 -0.211096,-1.778 -0.08864,-0.72178 -0.184539,-1.55998 -0.213118,-1.86267 -0.02858,-0.30268 -0.124739,-1.14088 -0.213689,-1.86266 -0.08895,-0.72179 -0.183644,-1.54094 -0.210432,-1.82034 -0.04561,-0.47572 -0.426479,-3.70694 -0.513959,-4.36033 -0.02182,-0.16298 -0.05598,-0.6932 -0.07591,-1.17825 -0.04488,-1.09242 -0.23348,-1.30834 -0.970612,-1.1112 -0.171767,0.0459 -0.273463,-0.002 -0.522469,-0.24492 -0.578961,-0.56543 -0.592439,-0.62587 -0.713741,-3.2005 -0.01368,-0.29033 -0.07056,-0.66633 -0.12641,-0.83554 -0.256437,-0.77701 0.01636,-1.34967 0.840703,-1.7648 0.734695,-0.36999 0.717035,-0.30059 0.514436,-2.02151 -0.515551,-4.37921 -0.495496,-4.29061 -0.971253,-4.29061 -0.448385,0 -0.652905,-0.54188 -0.64711,-1.7145 0.0018,-0.3609 -0.01411,-0.65617 -0.03533,-0.65617 -0.02121,0 -0.714543,-0.15106 -1.540733,-0.33569 -0.82619,-0.18463 -1.864114,-0.3963 -2.306497,-0.47037 -1.342618,-0.22481 -1.389496,-0.27322 -0.486834,-0.50266 0.951146,-0.24177 2.883936,-0.87331 3.045156,-0.99501 0.116702,-0.0881 1.505678,-2.30661 1.505678,-2.40492 0,-0.0151 0.17378,-0.29604 0.386177,-0.62437 0.497793,-0.76951 0.523401,-0.72227 -0.987262,-1.82131 -2.099758,-1.52763 -2.040046,-1.42299 -1.016198,-1.78071 2.251783,-0.78672 5.443427,-0.75629 6.038549,0.0576 0.08008,0.10951 0.213592,0.46257 0.296694,0.78456 l 0.151095,0.58545 0.624451,0.31688 c 0.343448,0.17429 0.700747,0.39318 0.793999,0.48643 l 0.169547,0.16955 -0.171954,0.24046 c -0.09457,0.13225 -0.364105,0.42194 -0.598956,0.64376 l -0.427003,0.40331 0.129568,0.4363 c 0.449729,1.51441 -0.108768,2.64241 -1.959707,3.95803 -0.4191,0.29789 -0.794961,0.57028 -0.835247,0.60532 -0.0403,0.035 -0.013,0.22881 0.06068,0.43071 0.07366,0.20186 0.144721,0.6512 0.157914,0.99852 l 0.02399,0.6315 -0.370198,0.20606 c -0.369292,0.20556 -0.37008,0.20702 -0.322014,0.59617 0.619311,5.01408 0.71686,5.42777 1.279861,5.42777 0.402414,0 0.518993,0.0729 1.269157,0.79306 l 0.429194,0.41206 3.037386,-0.1107 c 3.796291,-0.13836 3.333921,0.22915 3.739575,-2.97231 l 0.146758,-1.15823 -0.265693,-0.36128 c -0.321962,-0.4378 -0.325268,-0.50773 -0.0465,-0.98341 l 0.219191,-0.37402 -0.153294,-0.75836 c -0.177179,-0.87653 -0.148662,-0.96868 0.374328,-1.20962 0.34644,-0.1596 0.349308,-0.16464 0.299632,-0.52707 -0.04878,-0.35593 -0.038,-0.37716 0.394486,-0.77689 l 0.444643,-0.41095 -0.107434,-0.90651 c -0.123494,-1.04204 -0.07811,-1.20775 0.414072,-1.51194 0.162306,-0.10031 0.422618,-0.32353 0.578469,-0.49603 0.182839,-0.20239 0.380398,-0.32762 0.556876,-0.35301 0.648745,-0.0933 2.559435,-0.84894 2.855841,-1.12939 0.162984,-0.1542 0.475731,-0.35954 0.694994,-0.4563 0.472688,-0.20859 0.481941,-0.22083 0.429139,-0.56765 l -0.04104,-0.26956 -1.041417,0.0492 -1.041416,0.0492 -0.460812,-0.43581 c -0.558474,-0.52819 -0.547371,-0.5272 -0.618209,-0.0548 -0.03142,0.20955 -0.09384,0.381 -0.1387,0.381 -0.18195,0 -0.579097,-0.51513 -0.675747,-0.87649 -0.099,-0.37013 -0.116663,-0.38638 -0.446434,-0.41061 l -0.34336,-0.0252 0.02118,-0.67206 0.02118,-0.67205 -0.386115,-0.49146 c -0.475911,-0.60576 -1.053237,-1.58193 -1.053237,-1.78087 0,-0.0866 -0.137106,-0.21774 -0.331349,-0.31683 -1.316463,-0.67161 -3.513169,-5.18814 -2.677827,-5.50573 0.41698,-0.15854 0.478482,-1.34956 0.06996,-1.35471 -0.151626,-0.002 -0.701446,-0.50754 -0.701446,-0.64506 0,-0.066 0.0841,-0.11843 0.1905,-0.11868 0.527106,-10e-4 0.697261,-0.25034 0.697905,-1.02172 6.51e-4,-0.7808 0.0905,-0.98346 0.592823,-1.33717 0.190445,-0.13411 0.286511,-0.3018 0.381958,-0.66675 0.148109,-0.56631 0.590688,-0.93202 1.626922,-1.34434 l 0.569108,-0.22645 0.136881,-0.47439 c 0.260129,-0.90155 0.787908,-1.55475 1.60357,-1.98465 l 0.508,-0.26775 h 1.654285 c 1.8773,0 1.915775,-0.011 2.391446,-0.68588 0.369394,-0.52406 0.574849,0.37484 0.268276,1.17376 -0.08246,0.21488 0.08935,0.18319 0.496739,-0.0916 1.329934,-0.89713 2.593168,-0.66892 4.375588,0.79047 1.048849,0.85876 1.738804,1.26751 2.388657,1.4151 0.651201,0.1479 0.615833,0.41693 -0.124801,0.94931 l -0.344586,0.24769 0.201033,0.13259 c 0.508602,0.33544 0.724793,0.60051 1.031822,1.26507 0.424597,0.91904 0.66757,1.22912 1.143719,1.45962 l 0.387581,0.18763 -0.225046,0.19357 c -0.345386,0.29709 -0.282626,0.37103 0.314921,0.37103 0.999083,0 0.844333,2.45338 -0.158966,2.52024 -0.811451,0.0541 -0.82043,0.0692 -0.510373,0.86038 0.229912,0.58666 0.211843,0.69359 -0.190032,1.12463 -0.307635,0.32997 -0.137971,0.7937 0.380648,1.04042 0.51628,0.2456 0.39841,0.57744 -0.363769,1.0241 -0.435378,0.25515 -0.422184,0.20569 -0.206348,0.77356 0.511406,1.34552 0.311083,1.76147 -0.621405,1.29028 -0.677555,-0.34237 -0.817055,-0.35787 -0.817055,-0.0908 0,0.27374 -0.33979,1.48531 -0.44608,1.59056 -0.08219,0.0814 -0.201055,0.0227 -0.561642,-0.27745 -0.69214,-0.57607 -0.823752,-0.45946 -0.844927,0.7486 -0.01186,0.67646 -0.118567,0.72938 -0.626497,0.3107 -0.373454,-0.30783 -0.348881,-0.31372 -0.813507,0.19492 l -0.365192,0.39979 0.05742,0.49473 c 0.0726,0.62549 0.0717,0.62435 0.679426,0.86324 0.605866,0.23816 0.973667,0.47831 0.973667,0.63574 0,0.0771 0.326072,0.18934 0.994833,0.3423 2.714316,0.62082 3.333145,0.821 3.648515,1.18018 0.237911,0.27097 0.317566,0.4701 0.64438,1.6109 0.127447,0.44488 0.227932,0.58863 0.808672,1.15685 0.800174,0.78293 0.811415,0.80282 0.887099,1.5695 l 0.06019,0.60968 0.542158,0.2537 c 0.652604,0.30539 0.650957,0.28895 0.106968,1.06808 -0.46708,0.66898 -0.453107,0.58995 -0.273861,1.54877 0.04129,0.22083 0.01136,0.32351 -0.141811,0.48655 -0.239665,0.25512 -0.239163,0.87369 0.0014,1.67365 0.309347,1.02888 0.348639,1.63886 0.366391,5.68789 l 0.01745,3.97933 0.433822,0.889 c 1.545302,3.16668 1.632636,6.0332 0.205489,6.74471 -0.113942,0.0568 -0.27756,0.2405 -0.363594,0.4082 -0.188447,0.36731 -0.489343,0.52987 -0.758498,0.40977 -0.125937,-0.0562 -0.265767,-0.0544 -0.424057,0.005 l -0.236163,0.0891 -8.89e-4,3.51627 c -4.9e-4,1.93395 0.0442,4.24027 0.09932,5.12517 0.138903,2.23013 0.08723,2.31009 -1.923839,2.97714 -0.649141,0.21532 -1.213533,0.42115 -1.254202,0.4574 -0.07247,0.0646 -0.315004,2.92992 -0.433867,5.12577 l -0.06008,1.10988 0.305112,0.89295 c 0.407773,1.19341 0.401273,1.26345 -0.287555,3.09859 -0.707081,1.88376 -0.692808,1.67403 -0.148166,2.17712 0.430441,0.3976 0.646955,0.67349 0.653166,0.8323 0.0016,0.0422 -0.262951,0.3308 -0.588002,0.64136 -0.58114,0.55522 -0.589583,0.56949 -0.50594,0.85462 0.04678,0.15948 0.0649,0.42332 0.04025,0.5863 -0.03243,0.21444 3.55e-4,0.35429 0.118622,0.50604 l 0.163435,0.2097 1.085818,-0.15824 c 0.5972,-0.087 1.619218,-0.16764 2.271152,-0.17911 0.651933,-0.0115 1.448699,-0.0649 1.770591,-0.11878 0.321892,-0.0539 0.874342,-0.1361 1.227667,-0.18276 0.857378,-0.11324 6.231289,-0.10809 7.033198,0.007 0.348401,0.0499 1.396151,0.12722 2.328334,0.17185 2.020935,0.0968 3.965037,0.27341 4.954544,0.45019 1.78648,0.31916 2.853215,0.48588 3.863797,0.60388 0.599062,0.07 1.394003,0.16538 1.766537,0.21206 0.856972,0.10738 2.118256,0.16823 4.529667,0.21851 1.04775,0.0218 2.171697,0.0679 2.497667,0.10232 0.69661,0.0736 6.3077,7.6e-4 6.44145,-0.0836 z"
       id="path2-0"
       transform="translate(-8.3494454,-26.207001)" /><path
       id="path22"
       style="clip-rule:evenodd;display:inline;fill:none;fill-opacity:1;fill-rule:evenodd;stroke:#0029ff;stroke-width:1;stroke-linejoin:round;stroke-miterlimit:2;stroke-dasharray:none;stroke-opacity:1"
       d="M 0,0 V 29.980083 H 3 V 207.78008 H 0 v 36.79672 l 45.6644,2e-4 v -3 h 101.6 v 2.9998 h 45.66491 V 207.78008 H 189.929 V 29.980083 h 3 L 192.92931,0 H 147.2644 v 3 h -101.6 V 0 Z" /><path
       style="display:inline;fill:none;stroke:#fff405;stroke-opacity:1"
       d="m 68.623476,197.41617 c -3.52e-4,-0.17463 -0.03763,-0.5461 -0.08284,-0.8255 -0.09384,-0.57998 -0.389206,-2.78725 -0.514202,-3.84265 -0.14702,-1.24134 -0.244792,-1.22551 -0.464578,0.0752 -0.143507,0.84931 -0.143573,0.91587 -0.0015,1.48167 0.275362,1.09645 0.270989,1.36491 -0.0283,1.73734 -0.328154,0.40834 -0.365809,0.29717 0.351197,1.03682 0.719786,0.74251 0.74103,0.75219 0.740194,0.33709 z"
       id="path6"
       transform="translate(-8.3494454,-26.207001)" /></g></svg>
