<?xml version="1.0" encoding="UTF-8" standalone="no"?>
<!-- Created with Inkscape (http://www.inkscape.org/) -->

<svg
   width="193.92931mm"
   height="245.577mm"
   viewBox="0 0 193.92931 245.577"
   version="1.1"
   id="svg1"
   xml:space="preserve"
   xmlns="http://www.w3.org/2000/svg"
   xmlns:svg="http://www.w3.org/2000/svg"><defs
     id="defs1" /><g
     id="layer2"
     style="display:inline"
     transform="translate(0.5,0.5)"><path
       style="display:inline;fill:none;stroke:#ff0d0d;stroke-opacity:1"
       d="m 121.45612,81.608341 c 1.00118,-0.873429 1.94816,-1.698691 2.10439,-1.833916 0.34236,-0.296325 0.38672,-0.24744 -0.55441,-0.610904 -1.87285,-0.723296 -6.01987,-1.656521 -7.36117,-1.656521 -0.009,0 0.42279,0.771525 0.95979,1.7145 0.537,0.942975 1.29929,2.334058 1.69398,3.091295 l 0.71762,1.376795 0.30973,-0.246599 c 0.17036,-0.135629 1.12888,-0.961222 2.13007,-1.83465 z"
       id="path18"
       transform="translate(-8.3494454,-26.207001)" /><path
       style="display:inline;fill:none;stroke:#ff0d0d;stroke-opacity:1"
       d="m 106.77058,86.947334 c 1.01394,-2.437415 2.49979,-5.380236 4.28331,-8.483373 0.27293,-0.474855 0.49623,-0.878013 0.49623,-0.895906 0,-0.142305 -2.86881,0.353939 -4.52967,0.783536 -2.8987,0.749779 -6.61065,2.503077 -8.591829,4.058254 l -0.209828,0.16471 0.209828,0.164814 c 0.115406,0.09065 1.864329,1.465992 3.886499,3.05632 2.02217,1.590328 3.70133,2.861987 3.73147,2.825908 0.0301,-0.03608 0.35593,-0.789497 0.72399,-1.674263 z"
       id="path17"
       transform="translate(-8.3494454,-26.207001)" /><path
       style="display:inline;fill:none;stroke:#ff0d0d;stroke-opacity:1"
       d="m 139.18342,97.1285 c -0.76755,-2.660575 -2.92143,-7.39019 -3.11325,-6.836281 -0.2983,0.861352 -1.83278,5.696114 -1.81328,5.713207 0.0144,0.01265 0.54058,0.177454 1.16923,0.366226 0.62865,0.188772 1.7145,0.532501 2.413,0.763842 1.60526,0.531659 1.49986,0.532207 1.3443,-0.007 z"
       id="path16"
       transform="translate(-8.3494454,-26.207001)" /><path
       style="display:inline;fill:none;stroke:#ff0d0d;stroke-opacity:1"
       d="m 129.07612,96.63747 c 0.86148,-0.23684 1.86444,-0.51376 2.22879,-0.615378 l 0.66246,-0.184758 0.83048,-2.54 c 1.97481,-6.039925 1.84346,-5.353484 1.18181,-6.175957 -1.76791,-2.19764 -4.32753,-4.408814 -6.82451,-5.895481 l -1.14063,-0.679114 -0.5647,0.478918 c -0.57544,0.488025 -4.63172,4.013159 -5.16802,4.491302 l -0.295,0.263003 0.60674,1.454869 c 1.43935,3.451338 2.23301,6.058931 2.8502,9.36446 0.12172,0.651933 0.23802,1.265641 0.25844,1.363795 0.0361,0.173484 0.0897,0.16349 1.92236,-0.358289 1.03689,-0.295214 2.5901,-0.73053 3.45158,-0.96737 z"
       id="path15"
       transform="translate(-8.3494454,-26.207001)" /><path
       style="display:inline;fill:none;stroke:#ff0d0d;stroke-opacity:1"
       d="m 100.37412,102.56175 c 0.86148,-0.1441 1.83303,-0.30731 2.159,-0.36268 l 0.59266,-0.10067 0.0218,-0.33653 c 0.19818,-3.06148 0.7913,-6.484188 1.60619,-9.26887 0.21121,-0.721783 0.40012,-1.388533 0.41978,-1.481666 0.0264,-0.12498 -0.0819,-0.261536 -0.41334,-0.521347 -0.24699,-0.193607 -1.30633,-1.024135 -2.35408,-1.845618 l -1.905,-1.493604 -0.22855,1.591618 c -0.12571,0.875389 -0.365881,2.639367 -0.533727,3.919951 -0.167845,1.280583 -0.550773,4.035074 -0.85095,6.121091 -0.639733,4.445685 -0.615609,4.131185 -0.312943,4.079835 0.128059,-0.0217 0.937684,-0.1574 1.79917,-0.30151 z"
       id="path14"
       transform="translate(-8.3494454,-26.207001)" /><path
       style="display:inline;fill:none;stroke:#ff0d0d;stroke-opacity:1"
       d="m 94.913117,103.48581 c 0.605367,-0.10171 1.105816,-0.18783 1.11211,-0.19137 0.01508,-0.008 1.230907,-8.593686 1.936229,-13.672148 0.306594,-2.20754 0.527192,-4.043145 0.490219,-4.079123 -0.248454,-0.241763 -1.932494,-1.516835 -2.003346,-1.516835 -0.155881,0 -2.458827,2.386568 -3.186303,3.302 -2.156664,2.713875 -4.138093,6.499789 -4.903839,9.369759 l -0.09412,0.352759 1.62228,2.017907 c 0.892254,1.109851 2.08349,2.596871 2.647192,3.304481 0.563702,0.70762 1.082062,1.28903 1.151912,1.29204 0.06985,0.003 0.6223,-0.0777 1.227666,-0.17947 z"
       id="path13"
       transform="translate(-8.3494454,-26.207001)" /><path
       style="display:inline;fill:none;stroke:#ff0d0d;stroke-opacity:1"
       d="m 90.50909,109.63849 1.481896,-4.47433 -1.541168,-1.91175 c -0.847643,-1.05146 -1.827215,-2.26791 -2.176828,-2.70323 -0.349613,-0.43532 -0.644882,-0.759167 -0.656154,-0.719666 -0.589,2.064196 -0.495294,7.088916 0.193548,10.378386 0.297911,1.42264 1.085055,4.03667 1.185336,3.93639 0.01731,-0.0173 0.698327,-2.04492 1.51337,-4.5058 z"
       id="path12"
       transform="translate(-8.3494454,-26.207001)" /><path
       style="display:inline;fill:none;stroke:#ff0d0d;stroke-opacity:1"
       d="m 129.40074,112.66384 c 0.62093,-2.03674 1.703,-5.57007 2.4046,-7.85184 1.10694,-3.60002 2.00793,-6.566191 2.01113,-6.62084 0.007,-0.125293 -0.98299,-0.295146 -1.28798,-0.220908 -0.88133,0.214519 -3.77897,1.008102 -6.0347,1.652738 l -2.45534,0.70168 0.0423,1.143 c 0.1662,4.4875 -0.37279,9.61421 -1.40253,13.3403 -0.0416,0.15062 0.008,0.18844 0.35963,0.27501 0.22434,0.0552 1.41755,0.36442 2.65156,0.68715 1.23402,0.32273 2.31987,0.58906 2.413,0.59183 0.15031,0.004 0.29618,-0.41101 1.29829,-3.69812 z"
       id="path11"
       transform="translate(-8.3494454,-26.207001)" /><path
       style="display:inline;fill:none;stroke:#ff0d0d;stroke-opacity:1"
       d="m 136.53331,118.29517 c 2.85576,-4.53262 4.47964,-13.34881 3.3271,-18.0631 -0.0492,-0.20113 -3.79407,-1.475965 -3.92307,-1.335492 -0.0371,0.04038 -0.10775,0.206772 -0.15702,0.369756 -0.0493,0.162983 -0.75563,2.468036 -1.56966,5.122336 -2.08164,6.78751 -3.79995,12.43233 -3.81199,12.52275 -0.0447,0.3354 5.94406,1.68623 6.13464,1.38375 z"
       id="path10"
       transform="translate(-8.3494454,-26.207001)" /><path
       style="display:inline;fill:none;stroke:#ff0d0d;stroke-opacity:1"
       d="m 104.53383,114.66585 c -0.71323,-2.85128 -1.18935,-5.93982 -1.36101,-8.8286 -0.0467,-0.78654 -0.10223,-1.44733 -0.12331,-1.46841 -0.035,-0.035 -2.1443,0.30616 -7.120393,1.15162 l -1.862667,0.31648 -1.881386,5.62586 c -1.034763,3.09423 -1.865092,5.70211 -1.845175,5.7953 0.209718,0.98126 2.888342,4.64779 4.814399,6.59001 l 1.172505,1.18234 4.319367,-4.31937 4.31938,-4.31937 z"
       id="path9"
       transform="translate(-8.3494454,-26.207001)" /><path
       style="display:inline;fill:none;stroke:#ff0d0d;stroke-opacity:1"
       d="m 127.21345,127.85133 c 0.79352,-0.49669 1.8808,-1.26012 2.70934,-1.90235 1.78945,-1.38707 5.38181,-5.2931 5.01447,-5.45232 -0.20287,-0.0879 -4.64138,-1.27801 -8.14714,-2.18446 -1.60655,-0.41539 -3.32861,-0.86656 -3.82679,-1.00261 l -0.90579,-0.24737 -0.43855,1.32556 c -0.24121,0.72905 -0.64505,1.87436 -0.89742,2.54513 -0.25238,0.67077 -0.43997,1.26881 -0.41688,1.32899 0.0231,0.0602 0.53185,0.80677 1.13058,1.65909 0.59872,0.85232 1.65229,2.36052 2.34125,3.35155 l 1.25267,1.80187 0.81696,-0.4393 c 0.44933,-0.24162 1.06462,-0.59431 1.3673,-0.78378 z"
       id="path8-4"
       transform="translate(-8.3494454,-26.207001)" /><path
       style="display:inline;fill:none;stroke:#ff0d0d;stroke-opacity:1"
       d="m 115.97289,126.656 c 8.27323,-17.53359 7.96347,-30.079777 -1.13913,-46.139013 -1.32091,-2.330426 -1.18547,-2.161971 -1.42033,-1.766543 -10.62337,17.886276 -10.80778,30.150616 -0.76361,50.784226 l 0.94794,1.94733 0.76809,-1.524 c 0.42245,-0.8382 1.14562,-2.3241 1.60704,-3.302 z"
       id="path7-2"
       transform="translate(-8.3494454,-26.207001)" /><path
       style="display:inline;fill:none;stroke:#ff0d0d;stroke-opacity:1"
       d="m 117.26512,131.40076 c 1.57012,-0.22341 2.81044,-0.51911 4.50766,-1.07467 1.31471,-0.43035 1.3178,-0.22689 -0.033,-2.16664 -2.84925,-4.09165 -2.38024,-3.70335 -2.94091,-2.43478 -0.60269,1.36368 -2.1181,4.53144 -2.47458,5.1728 -0.4068,0.73189 -0.46122,0.70278 0.94079,0.50329 z"
       id="path6-4"
       transform="translate(-8.3494454,-26.207001)" /><path
       style="display:inline;fill:none;stroke:#ff0d0d;stroke-opacity:1"
       d="m 109.94296,128.92083 c -1.34176,-2.79299 -2.05756,-4.40951 -2.72744,-6.1595 -0.43853,-1.14559 -1.263,-3.38834 -1.39117,-3.78429 -0.0716,-0.22117 -0.194,-0.11006 -3.92112,3.55927 -2.242518,2.20776 -3.823184,3.82647 -3.789597,3.88081 0.09571,0.15487 1.989097,1.40054 2.935597,1.93136 2.63914,1.48008 5.94741,2.5885 9.18855,3.07859 1.08644,0.16428 1.11833,0.43536 -0.29482,-2.50624 z"
       id="path5-1"
       transform="translate(-8.3494454,-26.207001)" /><path
       style="display:inline;fill:none;stroke:#ffdb0d;stroke-opacity:1"
       d="m 147.16987,140.98583 c -0.1519,-5.39038 -1.102,-8.52817 -2.58279,-8.52985 -0.64555,-7.3e-4 -1.37163,0.69392 -1.37163,1.31226 0,0.32171 -0.0257,0.38076 -0.16593,0.38076 -0.47002,0 -0.99761,3.1939 -1.07949,6.53503 l -0.0491,2.00537 0.37212,0.033 c 0.20467,0.0181 1.3971,0.0397 2.64984,0.0478 l 2.27773,0.0148 z"
       id="path4-0"
       transform="translate(-8.3494454,-26.207001)" /><path
       style="display:inline;fill:none;stroke:#ffd70d;stroke-opacity:1"
       d="m 83.483116,153.65605 c 1.2573,-0.0749 2.30505,-0.15438 2.328334,-0.17672 0.131323,-0.12595 0.03552,-6.89194 -0.113008,-7.98125 -0.465246,-3.41209 -1.420099,-4.98889 -2.77523,-4.58288 -1.748325,0.52381 -2.561199,4.3746 -2.463106,11.66835 l 0.01734,1.28954 0.359834,-0.0405 c 0.197908,-0.0222 1.388533,-0.10171 2.645833,-0.17658 z"
       id="path3-05"
       transform="translate(-8.3494454,-26.207001)" /><path
       style="display:inline;fill:none;stroke:#ffd70d;stroke-opacity:1"
       d="m 141.82061,166.76683 c 0.45263,-16.09621 -2.28038,-26.13214 -6.57162,-24.13171 -2.36053,1.1004 -3.65668,5.48274 -4.0635,13.73888 -0.1465,2.97307 -10e-4,10.98043 0.22464,12.3825 l 0.0443,0.27517 h 5.15123 5.15123 z"
       id="path2-06"
       transform="translate(-8.3494454,-26.207001)" /><path
       id="path20"
       style="clip-rule:evenodd;display:inline;fill:none;fill-opacity:1;fill-rule:evenodd;stroke:#0029ff;stroke-width:1;stroke-linejoin:round;stroke-miterlimit:2;stroke-dasharray:none;stroke-opacity:1"
       d="M 0,0 V 29.980083 H 3 V 207.78008 H 0 v 36.79672 l 45.6644,2e-4 v -3 h 101.6 v 2.9998 h 45.66491 V 207.78008 H 189.929 V 29.980083 h 3 L 192.92931,0 H 147.2644 v 3 h -101.6 V 0 Z" /></g></svg>
