<?xml version="1.0" encoding="UTF-8" standalone="no"?>
<!-- Created with Inkscape (http://www.inkscape.org/) -->

<svg
   width="193.92931mm"
   height="245.577mm"
   viewBox="0 0 193.92931 245.577"
   version="1.1"
   id="svg1"
   xml:space="preserve"
   xmlns="http://www.w3.org/2000/svg"
   xmlns:svg="http://www.w3.org/2000/svg"><defs
     id="defs1" /><g
     id="layer6"
     style="display:inline"
     transform="translate(0.5,0.5)"><path
       style="display:inline;fill:none;stroke:#ffed0e;stroke-opacity:1"
       d="m 123.5694,199.08743 c -0.0882,-0.25562 -0.16166,-0.527 -0.16318,-0.60306 -0.002,-0.0761 -0.33614,-0.37898 -0.7436,-0.67315 -0.40746,-0.29417 -1.49361,-1.13681 -2.41367,-1.87253 -1.81455,-1.45101 -1.75617,-1.41198 -1.75617,-1.17413 0,0.09 -0.1143,0.47355 -0.254,0.85244 -0.22472,0.60948 -0.254,0.79558 -0.254,1.61444 0,0.98279 0.0206,1.02462 0.36902,0.75052 1.33113,-1.04706 3.10369,-0.65636 4.79091,1.05602 0.63954,0.64907 0.63132,0.64811 0.42469,0.0495 z"
       id="path7"
       transform="translate(-8.3494454,-26.207001)" /><path
       style="display:inline;fill:none;stroke:#0eff76;stroke-opacity:1"
       d="m 99.798862,221.35567 c 1.749578,-5.43341 2.792168,-8.17139 4.098798,-10.76406 0.90892,-1.80351 0.92675,-1.93272 0.15108,-1.0949 -0.60702,0.65565 -1.1645,0.93696 -1.8568,0.93696 -0.66875,0 -0.67182,-0.006 -0.29301,-0.5761 0.54644,-0.82232 0.79111,-1.49746 0.78987,-2.17959 -9.8e-4,-0.54165 -0.1829,-1.23699 -0.19831,-0.75798 -0.003,0.0931 -0.0791,0.32173 -0.16904,0.508 -0.09,0.18627 -0.16488,0.3782 -0.16646,0.42652 -0.011,0.3368 -1.04332,1.05515 -1.51631,1.05515 -0.4238,0 -0.48555,-0.0913 -0.22643,-0.33473 0.53704,-0.50451 0.50216,-0.70229 -0.435092,-2.46713 -1.292966,-2.43466 -1.337835,-3.84475 -0.160046,-5.02981 0.566218,-0.56971 0.626638,-0.85649 0.279408,-1.32615 -0.24738,-0.33459 -0.211705,-0.35989 -1.198714,0.84999 -3.351821,4.10868 -5.632215,6.37934 -6.099323,6.07328 -0.837275,-0.54861 -2.799467,-4.17536 -4.943095,-9.13642 -0.246843,-0.57128 -0.637469,-0.36868 -0.78213,0.40566 -0.230056,1.23143 -0.542797,1.75329 -1.272222,2.12292 l -0.406656,0.20606 0.936816,2.73067 c 0.515249,1.50186 1.087068,3.16881 1.270708,3.70432 0.183641,0.53552 0.521784,1.54517 0.751428,2.24367 0.229644,0.6985 0.460421,1.3843 0.512838,1.524 0.05242,0.1397 0.202738,0.57785 0.334048,0.97367 0.131309,0.39581 0.474662,1.38641 0.763007,2.20133 0.288344,0.81492 0.611659,1.74837 0.718478,2.07433 0.106819,0.32597 0.773269,2.28812 1.481001,4.36034 1.156861,3.38725 3.391493,9.65611 3.619806,10.34663 z"
       id="path5"
       transform="translate(-8.3494454,-26.207001)" /><path
       style="display:inline;fill:none;stroke:#ffe60e;stroke-opacity:1"
       d="m 117.13538,247.64855 c 0.0714,-0.13757 0.39068,-0.69002 0.70961,-1.22767 l 0.57988,-0.97755 -0.22122,-1.22766 c -0.5722,-3.17547 -0.93502,-4.83051 -1.07773,-4.91615 -1.47005,-0.88215 -2.30626,-1.67506 -2.24514,-2.12888 0.13387,-0.9939 0.16239,-2.77631 0.0444,-2.77631 -0.39322,0 -1.48666,-0.81304 -1.95102,-1.4507 l -0.35158,-0.4828 -0.49107,0.49875 c -0.27009,0.27432 -0.7031,0.61842 -0.96225,0.76467 -0.33448,0.18877 -0.45979,0.30613 -0.43195,0.4045 0.0216,0.0762 0.0656,0.96798 0.0977,1.98169 l 0.0585,1.84311 -0.23055,0.33269 c -0.21538,0.31079 -1.17032,1.15059 -1.65637,1.45666 -0.2436,0.15339 -0.30657,0.44304 -0.76077,3.4991 -0.13841,0.93133 -0.29211,1.92193 -0.34155,2.20133 -0.0894,0.50521 -0.0877,0.51249 0.29771,1.32515 l 0.38759,0.81714 2.51741,0.0474 c 1.38457,0.0261 3.10795,0.10185 3.82973,0.16836 1.85122,0.17061 2.03754,0.15765 2.1986,-0.15285 z"
       id="path4"
       transform="translate(-8.3494454,-26.207001)" /><path
       style="display:inline;fill:none;stroke:#fbff0e;stroke-opacity:1"
       d="m 102.86858,249.56885 c 0.40925,-0.22488 0.42295,-0.24509 0.52949,-0.78118 0.12968,-0.65249 0.3933,-1.33683 0.71755,-1.86267 l 0.23493,-0.381 -0.123,-2.49767 c -0.17546,-3.56274 -0.27216,-4.59457 -0.4404,-4.699 -1.00437,-0.6234 -2.39723,-2.04487 -2.39571,-2.44493 0.002,-0.53374 0.42567,-2.1578 0.87772,-3.36474 l 0.30226,-0.80701 -0.46405,-0.47911 c -0.93771,-0.96813 -0.98428,-1.24181 -0.4315,-2.53601 l 0.37043,-0.86724 -0.097,-0.59167 c -0.0702,-0.42815 -0.13514,-0.59899 -0.23489,-0.6182 -0.41866,-0.0806 -2.712787,3.83428 -4.076803,6.95703 l -0.29125,0.66678 1.33641,3.94755 c 3.035933,8.96769 3.600363,10.59162 3.681063,10.59079 0.0466,-4.7e-4 0.27373,-0.10474 0.5048,-0.23172 z"
       id="path3"
       transform="translate(-8.3494454,-26.207001)" /><path
       style="display:inline;fill:none;stroke:#ff0e0e;stroke-opacity:1"
       d="m 83.874639,254.46293 c 1.966558,-0.97763 3.066054,-1.44556 4.815477,-2.04939 4.355544,-1.50336 3.905356,-1.3775 5.869785,-1.64104 2.731855,-0.36651 3.218207,-0.44563 4.036216,-0.65666 0.442383,-0.11413 1.137708,-0.23448 1.545163,-0.26744 0.40746,-0.033 0.74084,-0.0688 0.74084,-0.0797 0,-0.0109 -0.32699,-0.95044 -0.72664,-2.0879 -0.399658,-1.13746 -1.080415,-3.11586 -1.512799,-4.39645 -0.432383,-1.28058 -1.083844,-3.17872 -1.447689,-4.21809 -0.488824,-1.3805 -0.962358,-2.76627 -1.437743,-4.15143 -0.275622,-0.82178 -0.933886,-2.73239 -1.462807,-4.24581 -0.528922,-1.51342 -1.553142,-4.46617 -2.276045,-6.56167 -0.722903,-2.0955 -1.50354,-4.3434 -1.734749,-4.99533 -0.231209,-0.65193 -0.471855,-1.33773 -0.534769,-1.524 -0.06291,-0.18627 -0.38756,-1.11972 -0.721434,-2.07433 -0.333875,-0.95462 -0.693279,-2.00237 -0.798677,-2.32834 -0.105397,-0.32596 -0.669619,-1.94521 -1.253826,-3.59833 -1.022435,-2.89316 -2.516555,-7.18155 -2.881679,-8.27094 -0.165249,-0.49304 -0.188975,-0.52126 -0.402316,-0.47859 -0.435837,0.0872 -1.181498,-0.51321 -1.181498,-0.9513 0,-0.11284 -0.03286,-0.20517 -0.07302,-0.20517 -0.307254,0 -0.982908,-0.79333 -1.069708,-1.25602 -0.03221,-0.17167 -0.201737,-0.46493 -0.396613,-0.68607 -0.315757,-0.35832 -0.337585,-0.41532 -0.301937,-0.78841 0.02113,-0.22119 0.0067,-0.40217 -0.03209,-0.40217 -0.137373,0 -0.412626,-0.6755 -0.412626,-1.01262 0,-0.38426 0.195679,-0.63967 0.597341,-0.77969 0.242366,-0.0845 0.244552,-0.0912 0.192485,-0.58934 -0.0323,-0.30902 -0.01317,-0.62533 0.04945,-0.81794 0.09527,-0.293 0.07014,-0.40497 -0.374415,-1.66874 -0.262093,-0.74507 -0.895631,-2.57387 -1.407863,-4.064 -0.512231,-1.49013 -1.084328,-3.14748 -1.271325,-3.683 -0.186997,-0.53552 -0.410504,-1.18322 -0.496681,-1.43933 -0.08618,-0.25612 -0.33416,-0.96097 -0.551072,-1.56634 -0.216912,-0.60536 -0.462198,-1.31021 -0.545082,-1.56633 -0.353844,-1.09341 -0.520749,-1.39324 -1.11978,-2.0116 -0.509296,-0.52574 -0.589046,-0.64816 -0.551523,-0.84667 0.168727,-0.89261 0.216439,-0.76675 -0.537325,-1.4174 -1.751665,-1.51202 -3.609089,-3.65743 -3.782911,-4.36943 -0.731889,-2.99792 -0.732592,-6.3041 -0.0014,-6.82022 1.197288,-0.84517 3.775963,-1.51959 4.558035,-1.19209 1.01926,0.42682 2.832822,2.89585 3.554887,4.8397 0.296318,0.79771 0.02939,2.06698 -1.283293,6.10211 -0.409682,1.25934 -0.42838,1.09985 0.194628,1.66023 l 0.527301,0.47429 -0.150627,0.75337 -0.150626,0.75338 1.09306,3.25966 c 1.226721,3.65826 3.335376,9.88773 3.489285,10.30817 0.08314,0.22713 0.145186,0.27517 0.355391,0.27517 0.756232,0 1.822482,0.45706 2.171107,0.93068 0.201223,0.27336 0.774999,1.85325 0.774999,2.13395 0,0.99812 5.036162,-1.71033 10.117667,-5.44129 0.512233,-0.3761 1.090561,-0.80074 1.285172,-0.94365 l 0.353839,-0.25984 -0.164227,-0.41665 c -0.09032,-0.22915 -0.209484,-0.77497 -0.264798,-1.21291 -0.107238,-0.84906 -0.154513,-0.92329 -0.230836,-0.36245 -0.0819,0.60183 -0.224507,0.46852 -0.424459,-0.39678 -0.626486,-2.71113 -0.499009,-5.91618 0.346227,-8.70496 0.211241,-0.69697 0.195731,-0.72145 -0.251665,-0.39736 -0.574224,0.41596 -0.57443,0.37079 -0.0049,-1.06647 2.785416,-7.02879 6.479669,-10.87094 10.452489,-10.87094 0.77703,0 0.78598,-0.0628 0.0513,-0.36012 -1.5584,-0.63065 -4.0551,-4.25619 -2.58636,-3.75574 0.5998,0.20438 1.02386,0.16842 2.03565,-0.17262 2.31134,-0.77907 4.13579,-0.35953 5.3946,1.24048 l 0.23314,0.29633 -0.0585,-0.381 c -0.1519,-0.9894 -0.76278,-2.6077 -1.44298,-3.82267 -0.65198,-1.16457 -0.71063,-1.12686 0.93612,-0.60188 4.6226,1.47369 6.24091,4.67716 4.44989,8.80863 -0.1066,0.24589 -0.1791,0.45793 -0.16111,0.47119 0.018,0.0133 0.31663,0.14874 0.66365,0.30107 5.10505,2.24095 7.30099,7.83186 6.57069,16.72915 -0.0726,0.88431 -0.13197,1.96381 -0.13197,2.39889 0,0.94125 -0.0872,0.97906 -0.46567,0.20202 -0.31398,-0.64459 -0.32255,-0.64468 -0.45469,-0.005 -0.12545,0.60737 -0.47492,1.51605 -0.9466,2.4613 -0.47604,0.95398 -0.62583,0.76854 2.12096,2.62567 1.94988,1.31832 1.92452,1.30576 4.08481,2.02309 4.08278,1.35568 5.40144,2.96742 4.89319,5.98069 -0.4215,2.49891 -3.3661,4.06413 -5.53451,2.94188 -0.32174,-0.16651 -0.44455,-0.19248 -0.57646,-0.12188 -0.0922,0.0493 -0.28206,0.0646 -0.42191,0.0339 -0.23467,-0.0515 -0.30647,-0.001 -0.93048,0.65053 -0.6508,0.67986 -0.68094,0.70003 -0.80276,0.53705 -0.0696,-0.0931 -0.36653,-0.49337 -0.65981,-0.88941 -2.8635,-3.86682 -5.54174,-0.79528 -3.21175,3.68341 1.79879,3.45762 4.17965,3.39611 4.91641,-0.127 l 0.0797,-0.381 0.14077,0.31631 c 0.58501,1.3145 0.27915,3.39163 -0.62456,4.24152 l -0.34505,0.32449 -0.99061,-0.0288 c -0.92289,-0.0268 -1.02764,-0.0477 -1.5321,-0.30513 -0.67163,-0.34275 -0.65695,-0.37224 -0.25634,0.51462 0.18416,0.4077 0.41453,0.9974 0.51194,1.31045 0.0974,0.31306 0.24614,0.74065 0.33052,0.9502 0.32086,0.79684 1.4959,5.48221 1.81546,7.239 0.0678,0.37253 0.19935,1.04506 0.2924,1.49451 0.22935,1.10771 0.94856,5.5702 1.26988,7.8792 0.0931,0.66885 -0.0899,2.96162 -0.22557,2.82598 -0.0222,-0.0222 -0.0954,-0.33181 -0.16263,-0.68808 -0.31749,-1.68143 -1.29523,-3.00823 -1.5982,-2.16876 l -0.1727,0.47848 0.31967,0.59267 c 0.53521,0.99227 0.28984,2.11086 -0.707,3.22316 -0.15131,0.16884 -0.15216,0.23464 -0.0234,1.82034 0.36993,4.55632 0.24955,6.05528 -0.40978,5.1023 -0.15039,-0.21736 -0.35795,-0.49358 -0.46125,-0.61383 l -0.18782,-0.21864 -0.003,2.59073 c -0.001,1.42489 -0.0257,2.87269 -0.0538,3.21733 l -0.0511,0.62661 0.39999,0.20769 c 0.63862,0.3316 1.67684,1.10565 2.69043,2.00587 1.16142,1.03152 1.41771,1.12158 2.93843,1.03261 0.53552,-0.0313 1.33026,-0.0602 1.76609,-0.0641 0.73905,-0.007 0.85024,-0.0319 1.651,-0.37496 1.23886,-0.5308 1.25638,-0.53651 2.50958,-0.8182 1.74781,-0.39287 2.04509,-0.41751 5.21591,-0.43238 3.45343,-0.0162 4.72026,-0.0838 6.17495,-0.32944 1.23936,-0.20929 1.17415,-0.20775 6.34681,-0.14975 5.55059,0.0622 7.39179,0.31842 10.541,1.46669 1.51403,0.55204 3.88145,1.19737 4.953,1.35012 0.51223,0.073 1.63618,0.26797 2.49766,0.43324 2.70573,0.51906 6.35399,0.50099 8.84767,-0.0438 1.0421,-0.22767 1.65331,-0.35919 2.24367,-0.48282 0.34925,-0.0731 0.7874,-0.16683 0.97366,-0.20822 0.18627,-0.0414 0.77682,-0.11324 1.31234,-0.15968 0.53552,-0.0464 1.33562,-0.12479 1.778,-0.17413 0.89933,-0.10031 2.80328,-0.12583 4.40267,-0.059 1.72124,0.0719 2.49798,-0.12615 4.05037,-1.03279 l 0.5959,-0.34803 -0.0168,-10.66425 c -0.0189,-12.03293 0.0632,-10.65518 -0.66421,-11.13577 -0.41917,-0.27692 -0.44369,-0.32838 -0.50449,-1.05858 -0.0923,-1.10875 -0.24251,-2.72195 -0.33894,-3.64067 -0.0513,-0.48895 -0.14785,-1.55575 -0.21451,-2.37066 -0.32895,-4.02134 -0.42968,-5.16873 -0.63549,-7.239 -0.0509,-0.51224 -0.14212,-1.55999 -0.20267,-2.32834 -0.17437,-2.21298 -0.2821,-3.44598 -0.38467,-4.40266 -0.0524,-0.48895 -0.14957,-1.55575 -0.2159,-2.37067 -0.0663,-0.81492 -0.17363,-2.09127 -0.23844,-2.83633 -0.0648,-0.74507 -0.15906,-1.84997 -0.20944,-2.45534 -0.0504,-0.60536 -0.13344,-1.46261 -0.18459,-1.905 -0.0512,-0.44238 -0.11857,-1.31868 -0.1498,-1.94733 -0.0312,-0.62865 -0.0848,-1.18811 -0.11911,-1.24325 -0.0683,-0.10992 0.15618,-0.76242 0.32576,-0.94677 0.11699,-0.12717 0.45626,-0.20917 1.60467,-0.38782 0.94885,-0.14761 1.58207,-0.27817 2.07434,-0.4277 0.20955,-0.0637 0.59055,-0.17288 0.84666,-0.24272 0.25612,-0.0698 0.60854,-0.17698 0.78317,-0.23808 l 0.3175,-0.11109 v -0.54478 c 0,-0.29962 -0.0359,-0.66177 -0.0797,-0.80478 -0.0438,-0.14301 -0.11556,-0.46956 -0.15936,-0.72568 -0.12372,-0.72345 -0.81864,-3.35831 -1.06999,-4.05699 -0.42359,-1.17745 -0.6403,-1.45867 -2.12323,-2.7554 -1.10076,-0.96256 -1.81635,-1.7193 -1.82399,-1.9289 -0.0368,-1.00955 -0.0164,-2.2242 0.0437,-2.60404 0.13616,-0.86066 0.11286,-0.9637 -0.3385,-1.49726 -0.7768,-0.91826 -3.44568,-3.47038 -4.10088,-3.92148 -1.52454,-1.04961 -1.98215,-1.9932 -1.62904,-3.35912 0.225,-0.8704 0.2138,-0.89884 -0.54753,-1.38964 -0.58308,-0.3759 -1.89835,-1.38143 -2.52934,-1.9337 -0.44761,-0.39177 -0.63646,-0.54333 -1.25809,-1.00969 -1.46384,-1.0982 -1.83378,-1.65821 -1.90986,-2.89111 -0.056,-0.90704 -0.28349,-1.65602 -0.52499,-1.7283 -0.0606,-0.0181 -0.4721,-0.15505 -0.91449,-0.30427 -0.44238,-0.14921 -1.33773,-0.39622 -1.98966,-0.5489 -2.44629,-0.57294 -3.77571,-1.16421 -4.34905,-1.93428 -0.0636,-0.0855 -0.22611,-0.22256 -0.36103,-0.30461 -0.39119,-0.2379 -1.59612,-1.44099 -1.98311,-1.9801 -0.16447,-0.22912 -0.21067,-0.2417 -1.14178,-0.31087 -0.64549,-0.048 -1.12627,-0.13292 -1.43603,-0.25379 -0.25612,-0.0999 -0.64639,-0.23768 -0.86727,-0.30608 -0.63912,-0.19791 -0.67308,-0.31734 -0.75579,-2.65813 -0.0387,-1.09432 -0.10922,-2.31352 -0.15679,-2.70934 -0.24505,-2.03913 -0.44387,-6.28248 -0.32434,-6.92229 0.0384,-0.20556 0.0838,-0.50035 0.10082,-0.6551 0.0797,-0.72286 0.9189,-1.73979 2.2523,-2.72918 2.44197,-1.81196 2.85078,-2.1157 3.257,-2.4199 0.39802,-0.29805 0.74292,-0.51131 1.30999,-0.80998 0.12196,-0.0642 0.30712,-0.19438 0.41147,-0.2892 0.20335,-0.18479 1.00129,-0.6173 2.56194,-1.38864 0.53552,-0.26467 1.28704,-0.68206 1.67004,-0.92753 0.38301,-0.24546 0.81608,-0.5082 0.96237,-0.58385 0.14629,-0.0757 0.63303,-0.4117 1.08162,-0.74677 0.4486,-0.33508 1.03671,-0.75861 1.3069,-0.94119 0.31428,-0.21236 0.61165,-0.51223 0.82544,-0.83238 l 0.33418,-0.50043 -0.0923,-1.23928 c -0.0507,-0.6816 -0.12521,-1.37263 -0.16548,-1.53561 -0.0403,-0.16298 -0.13165,-0.52493 -0.20309,-0.80433 -0.0714,-0.2794 -0.17332,-1.1557 -0.2264,-1.94734 -0.11415,-1.70261 -0.0222,-1.55165 -0.95814,-1.57354 -0.41608,-0.01 -0.89233,-0.0504 -1.05834,-0.0903 -0.47676,-0.11468 -1.52253,-0.25768 -2.10613,-0.28799 -0.47202,-0.0245 -1.17046,-0.21206 -1.41303,-0.37941 -0.0466,-0.0321 -0.19263,-0.0843 -0.32459,-0.11582 -0.13196,-0.0316 -0.37961,-0.18877 -0.55034,-0.34932 -1.2891,-1.21235 -1.69003,-1.55962 -2.11354,-1.83066 -0.26557,-0.16997 -0.59717,-0.40275 -0.73687,-0.51729 -0.36518,-0.29941 -0.69508,-0.45315 -1.31608,-0.61333 -0.30062,-0.0775 -0.60373,-0.18984 -0.67358,-0.24957 -0.0698,-0.0597 -0.3937,-0.17315 -0.71967,-0.25206 -1.59937,-0.38716 -2.03583,-0.8194 -2.02265,-2.00304 0.005,-0.46164 -0.0139,-0.84023 -0.0423,-0.8413 -0.16329,-0.006 -2.00546,-1.50173 -2.76129,-2.24171 -0.19025,-0.18627 -0.63116,-0.60537 -0.97979,-0.93133 -1.5661,-1.46428 -1.88251,-2.0929 -1.44147,-2.86376 0.54176,-0.9469 0.15452,-1.97357 -1.95365,-5.17958 -0.40897,-0.62193 -0.74877,-1.23873 -1.07281,-1.94733 -0.10648,-0.232833 -0.24765,-0.518583 -0.31372,-0.635 -0.18401,-0.324224 -0.14736,-0.636744 0.13925,-1.187446 0.4983,-0.957456 0.36688,-1.455525 -0.88504,-3.354073 -0.30919,-0.468894 -0.56217,-0.878666 -0.56217,-0.910603 0,-0.03194 -0.0713,-0.1613 -0.15844,-0.287473 -1.6273,-2.356031 -1.70981,-2.591033 -1.37481,-3.915764 0.309,-1.221936 0.2576,-1.356475 -1.64852,-4.314641 -0.25505,-0.395816 -0.4881,-0.776816 -0.51789,-0.846666 -0.0298,-0.06985 -0.15929,-0.282239 -0.28777,-0.471976 -0.12847,-0.189737 -0.38299,-0.665987 -0.56559,-1.058333 -0.1826,-0.392347 -0.42063,-0.903858 -0.52897,-1.136691 -0.10833,-0.232834 -0.2627,-0.519122 -0.34303,-0.636196 -0.21402,-0.311896 -1.46886,-2.853635 -1.63674,-3.315302 -0.19274,-0.53003 -0.32415,-0.620502 -0.90126,-0.620502 -0.74154,0 -1.43238,-0.919454 -1.02102,-1.3589 0.094,-0.100414 0.34804,-0.979685 0.34804,-1.204603 0,-0.216249 -0.81739,-1.421024 -1.47758,-2.177831 -0.28435,-0.325966 -0.68484,-0.840316 -0.88998,-1.143 -0.48986,-0.722778 -0.62814,-0.888511 -1.6601,-1.989666 -0.48004,-0.512234 -1.07119,-1.178984 -1.31366,-1.481667 -0.82597,-1.031075 -1.92572,-2.242686 -2.45921,-2.709333 -0.2928,-0.256117 -0.70534,-0.62608 -0.91675,-0.82214 -0.77651,-0.72012 -1.8328,-1.567912 -2.16238,-1.735547 -0.18627,-0.09474 -0.54822,-0.295645 -0.80434,-0.446455 -1.32156,-0.778183 -1.69359,-0.969008 -2.159,-1.10742 -0.57428,-0.170792 -2.5764,-1.114958 -3.21733,-1.51724 -0.89996,-0.564861 -3.09203,-1.508289 -4.572,-1.967708 -0.37253,-0.115643 -0.71543,-0.238525 -0.762,-0.273071 -0.11301,-0.08383 -0.70191,-0.233863 -1.49699,-0.381371 -0.35767,-0.06636 -0.76629,-0.180625 -0.90804,-0.253926 -0.14175,-0.0733 -0.49681,-0.154995 -0.78902,-0.181543 -0.2922,-0.02655 -0.93134,-0.109616 -1.42029,-0.184597 -0.48895,-0.07498 -1.0414,-0.13076 -1.22766,-0.123952 -0.18627,0.0068 -0.46179,-0.02666 -0.61227,-0.07438 -0.15048,-0.04771 -0.89343,-0.138875 -1.651,-0.202579 -1.64974,-0.138728 -2.12913,-0.195587 -2.51718,-0.298557 -0.16121,-0.04278 -0.42791,-0.05691 -0.59267,-0.0314 -0.5569,0.08623 -0.59599,-0.0084 -0.59777,-1.44712 -0.003,-2.156285 0.25994,-2.771527 0.88717,-2.07844 0.0944,0.104267 0.2624,0.17344 0.42133,0.17344 0.14541,0 0.34896,0.05925 0.45235,0.131659 0.7723,0.540944 2.55248,0.946488 2.83953,0.646875 0.49372,-0.515335 0.1705,-0.979995 -0.80115,-1.151734 -0.16995,-0.03004 -0.35892,-0.114775 -0.41995,-0.188304 -0.061,-0.07353 -0.30297,-0.22272 -0.53767,-0.331534 -0.8446,-0.391591 -0.89373,-0.539485 -0.2384,-0.717688 0.22239,-0.06048 0.53769,-0.176393 0.70068,-0.257595 0.96766,-0.482116 1.74019,-0.452474 1.8023,0.06915 0.081,0.680535 0.18703,0.867834 0.49115,0.867834 0.25709,0 0.34914,-0.05771 1.1586,-0.726395 0.17359,-0.143401 0.48706,-0.377218 0.69661,-0.519594 0.20955,-0.142376 0.6354,-0.463199 0.94634,-0.712939 0.31093,-0.24974 0.91486,-0.701722 1.34207,-1.004406 1.12989,-0.800549 1.19143,-0.866199 1.12616,-1.201529 -0.0908,-0.466516 -0.0886,-0.466151 -3.24523,-0.539041 -2.78619,-0.06433 -2.6434,-0.108758 -2.65985,0.82747 -0.0135,0.765668 -0.0786,0.860951 -0.71274,1.042714 -0.26386,0.07563 -0.60894,0.212637 -0.76684,0.304463 -0.1579,0.09183 -0.5008,0.224201 -0.762,0.294168 -2.7501,0.736662 -2.47131,0.820663 -2.50418,-0.754518 -0.0278,-1.329892 -0.0411,-1.284626 0.45364,-1.535347 0.34964,-0.177177 1.33806,-1.16611 1.70881,-1.709699 0.0679,-0.09954 0.32011,-0.347193 0.56049,-0.550334 0.47822,-0.404148 1.296,-1.35389 1.296,-1.505135 0,-0.05225 0.0971,-0.280751 0.21584,-0.507785 0.38817,-0.742349 0.27382,-2.518989 -0.19781,-3.073542 -0.0679,-0.07981 -0.15707,-0.325234 -0.19819,-0.545378 -0.0411,-0.220145 -0.1482,-0.478693 -0.23794,-0.574552 -0.0897,-0.09586 -0.24465,-0.364788 -0.34425,-0.597621 -0.30222,-0.706517 -0.80839,-1.283013 -1.4303,-1.629043 -0.30746,-0.171067 -0.60832,-0.359251 -0.66859,-0.418187 -0.43697,-0.427325 -3.05527,-1.021306 -3.53616,-0.802202 -0.11801,0.05377 -0.33765,0.09776 -0.48808,0.09776 -0.41323,0 -0.67173,0.215663 -0.60773,0.507025 0.0462,0.210303 0.0162,0.253991 -0.27025,0.393922 -0.26945,0.131616 -0.32666,0.205908 -0.34941,0.45372 -0.015,0.162983 -0.0626,0.332528 -0.10583,0.376766 -0.0433,0.04424 -0.0786,0.150833 -0.0786,0.236876 0,0.08604 -0.09,0.240349 -0.1999,0.3429 -0.10995,0.102552 -0.22897,0.281708 -0.26451,0.398124 -0.0355,0.116417 -0.14021,0.283675 -0.23261,0.371684 -0.25529,0.243152 -0.0442,2.793957 0.24024,2.90311 0.064,0.02454 0.15846,0.201284 0.21002,0.392765 0.0516,0.191482 0.16923,0.444112 0.26149,0.561401 0.0923,0.117288 0.29647,0.480579 0.45381,0.807313 0.40217,0.835199 0.63364,1.229846 1.26689,2.160046 0.89671,1.317205 1.23098,2.306027 1.16896,3.457911 -0.0667,1.239086 -0.16347,1.320067 -1.02987,0.861942 -0.45394,-0.240025 -1.44268,-0.594172 -1.65886,-0.594172 -0.0555,0 -0.44668,-0.168268 -0.86923,-0.373929 -0.70403,-0.342659 -0.78312,-0.363536 -0.9457,-0.249657 -0.49913,0.349605 -0.36796,0.668877 0.47055,1.145324 0.24069,0.136762 0.48348,0.303918 0.53953,0.37146 0.0561,0.06754 0.15681,0.122802 0.22389,0.122802 0.27497,0 2.1433,0.928828 2.1433,1.065527 0,0.05379 -0.18098,0.143078 -0.40217,0.198418 -0.22119,0.05534 -0.74675,0.212692 -1.16791,0.34967 -0.42116,0.136979 -0.82138,0.249052 -0.88936,0.249052 -0.16475,0 -1.49038,0.645738 -1.56134,0.760558 -0.42765,0.691959 0.65403,0.998929 1.77711,0.504326 0.18627,-0.08203 0.48644,-0.174232 0.66704,-0.204892 0.18061,-0.03066 0.53857,-0.148705 0.79548,-0.262323 1.77373,-0.784426 2.00563,-0.648695 1.82668,1.069149 -0.0604,0.5798 -0.10128,1.301832 -0.0908,1.604515 l 0.019,0.550334 -0.55033,0.08467 c -0.30268,0.04657 -0.59406,0.11308 -0.6475,0.147808 -0.0534,0.03473 -0.77734,0.102319 -1.60867,0.150204 -1.5061,0.08675 -2.28355,0.183539 -4.0515,0.504385 -0.51223,0.09296 -1.10278,0.170324 -1.31233,0.17192 -0.38616,0.0029 -1.59746,0.3205 -1.96068,0.514018 -0.379498,0.202183 -0.404469,0.306891 -0.407298,1.707832 l -0.0027,1.3335 H 99.65445 c -0.488601,0 -0.889,-0.781458 -0.889,-1.735062 0,-1.192904 -2.384214,-0.636414 -6.35,1.482129 -0.535517,0.286075 -1.111182,0.60941 -1.279257,0.718521 -0.168074,0.109112 -0.720524,0.412248 -1.227667,0.673637 -0.946589,0.487887 -1.042573,0.549616 -1.980628,1.273775 -0.301606,0.232833 -0.663066,0.501859 -0.803245,0.597835 -1.034826,0.708514 -1.486059,1.03625 -1.789823,1.299969 -0.19229,0.166941 -0.442954,0.379729 -0.557031,0.472863 -0.422431,0.344877 -1.38368,1.198948 -1.840055,1.634891 -0.258845,0.247257 -0.680178,0.606786 -0.936295,0.798953 -1.333122,1.000257 -3.878,3.841959 -5.213121,5.821155 -0.455486,0.675217 -0.952679,1.399117 -1.104873,1.608667 -0.152195,0.20955 -0.512099,0.7239 -0.799787,1.143 -0.287688,0.4191 -0.608973,0.85725 -0.713966,0.973667 -0.104993,0.116416 -0.238635,0.306916 -0.296982,0.423333 -0.05835,0.116417 -0.457764,0.745067 -0.887593,1.397 -0.429829,0.651933 -0.830707,1.280583 -0.89084,1.397 -0.06013,0.116417 -0.182502,0.306917 -0.27193,0.423333 -0.489775,0.637586 -1.843575,3.017236 -1.843575,3.240555 0,0.04363 0.09736,0.195041 0.216357,0.33646 0.664065,0.789197 0.744418,1.511254 0.289487,2.601356 -0.08798,0.210813 -0.334903,0.992896 -0.548723,1.737963 -1.53507,5.349039 -2.518525,7.355853 -4.650225,9.489131 -1.333474,1.334462 -3.852349,3.208186 -4.002037,2.977006 -0.03732,-0.0576 -0.131007,-0.943004 -0.208187,-1.967471 -0.324664,-4.309475 -0.421662,-5.353891 -0.530772,-5.715 -0.06332,-0.20955 -0.140211,-0.9144 -0.170877,-1.566333 -0.03067,-0.651933 -0.08949,-1.299633 -0.13073,-1.439333 -0.04124,-0.1397 -0.116552,-0.9779 -0.167369,-1.862667 C 60.02489,86.9939 59.94797,86.0414 59.904775,85.762 c -0.0432,-0.2794 -0.119928,-1.1557 -0.170515,-1.947333 -0.05059,-0.791633 -0.145265,-1.934633 -0.210394,-2.54 C 59.458737,80.6693 59.381744,79.793 59.35277,79.327334 59.28055,78.166589 59.064926,76.149343 59.002232,76.047902 58.973965,76.002163 58.899313,75.406874 58.83634,74.725037 58.773366,74.0432 58.646002,73.066234 58.553307,72.554 c -0.350081,-1.934547 -0.286585,-2.148174 0.799808,-2.690906 1.334113,-0.666486 1.434822,-1.239287 1.104807,-6.28376 -0.296446,-4.531346 -0.373889,-4.895072 -1.255671,-5.897566 -0.681322,-0.774591 -0.950686,-1.107278 -1.122597,-1.386501 -0.09504,-0.154361 -0.277378,-0.388344 -0.405202,-0.519962 -0.412108,-0.424338 -0.874212,-0.992468 -1.095096,-1.346355 -0.118453,-0.189778 -0.327586,-0.457269 -0.464741,-0.594424 -0.223223,-0.223223 -0.259803,-0.33797 -0.348846,-1.094282 -0.151192,-1.284211 -0.345147,-2.490818 -0.476055,-2.961577 -0.548009,-1.970693 -0.640702,-3.118329 -0.306665,-3.796851 0.281554,-0.571914 0.137013,-2.528891 -0.23073,-3.123912 -0.09644,-0.156047 -0.199712,-0.453413 -0.229486,-0.660813 -0.02978,-0.2074 -0.105741,-0.58664 -0.168814,-0.842757 -0.06307,-0.256117 -0.135839,-0.599017 -0.161701,-0.762 -0.05192,-0.327181 -0.736023,-1.073131 -1.244155,-1.356628 -0.748666,-0.417696 -0.876917,-0.456471 -1.479208,-0.447213 -2.267522,0.03485 -3.19186,0.855437 -3.271752,2.904508 -0.02451,0.62865 -0.08573,1.247742 -0.136037,1.37576 -0.375945,0.956634 -0.267988,3.084509 0.184507,3.636719 0.510816,0.623384 0.772197,2.522813 0.683138,4.9643 -0.01982,0.543425 -0.506419,0.680577 -2.926685,0.824916 l -0.989655,0.05902 -0.259179,-0.259178 c -0.197266,-0.197266 -0.259768,-0.336578 -0.261648,-0.583191 -0.0014,-0.178207 -0.03809,-0.810934 -0.08163,-1.40606 -0.0947,-1.294471 -0.03199,-1.704424 0.329592,-2.154361 0.341076,-0.424423 0.36156,-0.962497 0.100467,-2.639107 -0.09714,-0.623799 -0.176623,-1.26108 -0.176623,-1.416179 0,-0.993584 -0.880372,-2.834589 -1.580795,-3.305704 -0.192473,-0.129461 -1.588819,-0.359639 -2.209674,-0.364251 -1.050978,-0.0078 -2.383729,0.957088 -2.513029,1.819399 -0.03477,0.231871 -0.09909,0.488624 -0.142939,0.570564 -0.105659,0.197442 -0.416843,2.675288 -0.471257,3.752449 -0.04027,0.79722 -0.02796,0.886444 0.186985,1.354667 0.126553,0.27568 0.268033,0.596487 0.314398,0.712903 0.146462,0.367745 0.08073,3.796357 -0.07925,4.133482 -0.215352,0.45382 -0.629161,0.663352 -1.59011,0.805154 -1.9367,0.285788 -2.039284,0.412472 -1.911948,2.361107 0.04955,0.758225 0.128858,2.064391 0.176246,2.902591 0.04739,0.8382 0.124298,1.73355 0.170912,1.989666 0.0837,0.459858 0.22447,1.991512 0.326831,3.556 0.06058,0.925958 0.234275,1.23466 0.95756,1.701869 0.218313,0.14102 0.408813,0.284938 0.423333,0.319817 0.02642,0.06347 0.609592,0.400898 1.535617,0.888515 1.24798,0.657149 1.194364,0.434433 1.531282,6.360799 0.06883,1.210733 0.162881,2.563283 0.208999,3.005667 0.04612,0.442383 0.107226,1.375833 0.135795,2.074333 0.02857,0.6985 0.109413,2.181091 0.179654,3.294646 0.07024,1.113556 0.120234,2.523256 0.111096,3.132667 -0.02348,1.566062 0.154761,4.724229 0.298511,5.289097 0.119203,0.468411 0.173653,1.153833 0.431246,5.42859 0.07155,1.18745 0.167841,2.59715 0.21397,3.132667 0.233231,2.707646 0.327249,4.103876 0.33067,4.910666 0.0021,0.48895 0.06054,1.63195 0.12992,2.54 0.06938,0.90805 0.165549,2.2987 0.213704,3.09033 0.111518,1.83327 0.228592,3.53441 0.332268,4.82802 0.04487,0.55991 0.162053,2.53353 0.260399,4.38583 l 0.17881,3.36782 -0.320255,0.3555 c -0.176141,0.19553 -0.455037,0.45858 -0.619771,0.58458 -0.164733,0.12599 -0.565089,0.47452 -0.889678,0.77451 l -0.590163,0.54543 0.02554,0.70716 c 0.01405,0.38893 0.08133,1.05005 0.149516,1.46915 0.149131,0.91661 0.268567,2.27645 0.316044,3.59834 0.01923,0.53551 0.08063,1.30974 0.136432,1.7205 l 0.101462,0.74683 -0.324666,0.28333 c -0.178567,0.15584 -0.629467,0.44448 -1.002,0.64143 -0.647324,0.34222 -1.658768,0.99545 -2.827683,1.82622 -0.541471,0.38483 -2.113692,1.14599 -3.476659,1.68314 -0.397645,0.15672 -0.875392,0.35898 -1.061659,0.44947 -0.186266,0.0905 -0.472016,0.19223 -0.635,0.22608 -0.162983,0.0339 -0.810683,0.23366 -1.439333,0.444 -2.586916,0.86558 -2.705308,1.0435 -2.099443,3.155 0.905954,3.15734 0.778479,2.95348 2.03345,3.25185 3.55149,0.84438 3.984896,1.18595 4.253337,3.35215 0.03174,0.25611 0.09712,0.5925 0.14529,0.74752 0.04817,0.15503 0.15665,0.59318 0.241065,0.97367 0.190906,0.86049 0.343825,1.42011 0.755866,2.76614 0.178185,0.58208 0.382103,1.34408 0.453152,1.69333 0.07105,0.34925 0.189317,0.8636 0.262818,1.143 0.0735,0.2794 0.158097,0.81519 0.187991,1.19065 l 0.05435,0.68265 -0.371106,0.43295 c -0.204108,0.23812 -0.409205,0.43592 -0.455772,0.43954 -0.143506,0.0112 -1.187843,0.69882 -2.455333,1.61675 -0.325967,0.23607 -0.844857,0.59486 -1.15309,0.7973 -0.308233,0.20245 -0.670183,0.51219 -0.804333,0.68831 -0.424577,0.55743 -2.967032,2.98855 -4.50931,4.31185 -0.271362,0.23284 -0.88135,0.69004 -1.35553,1.016 -0.47418,0.32597 -1.088521,0.76412 -1.365202,0.97367 -0.276681,0.20955 -0.694414,0.52445 -0.928296,0.69979 -0.657717,0.49306 -0.617495,0.73993 0.20976,1.28741 0.2794,0.1849 0.6604,0.45647 0.846667,0.60348 0.307919,0.24303 1.212766,0.70483 2.657642,1.35638 1.013751,0.45713 1.079659,0.66723 1.152178,3.67294 0.02977,1.23402 0.07672,2.81517 0.104325,3.51367 0.06716,1.69929 0.05337,2.71408 -0.05752,4.23333 -0.08677,1.18876 -0.447698,6.57852 -0.566973,8.46667 -0.02942,0.46566 -0.107521,0.95375 -0.173566,1.08464 -0.106366,0.21079 -0.185872,0.88826 -0.32481,2.76769 -0.03785,0.51197 -0.08988,1.21976 -0.164948,2.24367 -0.05394,0.73569 -0.404829,5.26555 -0.51484,6.64633 -0.02783,0.34925 -0.06325,0.80645 -0.07871,1.016 -0.193508,2.62155 -0.478294,6.39905 -0.507452,6.731 -0.02045,0.23283 -0.06278,0.78528 -0.09406,1.22767 -0.07609,1.07604 -0.06827,0.9782 -0.297706,3.72533 -0.257971,3.08882 -0.252761,4.96809 0.03896,14.05467 0.121843,3.79518 0.261228,8.21478 0.309743,9.82133 0.276618,9.15993 0.344155,10.96194 0.413437,11.03122 0.04208,0.0421 0.299518,0.10788 0.57208,0.14622 1.619539,0.22783 3.004569,0.44271 3.366164,0.52224 0.810855,0.17836 7.061203,-0.24554 7.628071,-0.51734 0.09313,-0.0447 0.493183,-0.1247 0.889,-0.17787 0.395816,-0.0532 0.967316,-0.13206 1.27,-0.1753 0.881666,-0.12596 4.9285,-0.41454 5.207,-0.37131 0.1397,0.0217 0.485487,0.0581 0.768415,0.081 0.282928,0.0229 0.682978,0.10196 0.889,0.17576 0.303241,0.10863 0.58422,0.12402 1.475252,0.0808 1.271491,-0.0617 1.593228,-0.009 2.582333,0.42516 1.229823,0.53943 2.943245,0.62451 7.239001,0.35946 3.64198,-0.22471 7.231488,-0.0897 9.525,0.35829 0.48895,0.0955 1.047983,0.19082 1.242295,0.21181 0.194312,0.021 0.518162,0.0993 0.719667,0.17394 0.201504,0.0747 0.652122,0.22916 1.001372,0.3433 0.34925,0.11414 0.922751,0.35628 1.274448,0.53809 0.697246,0.36045 1.50161,0.56812 3.297552,0.85137 1.090101,0.17192 2.16923,0.42364 2.383278,0.55593 0.228826,0.14143 0.724791,0.17016 2.622579,0.15195 l 2.00019,-0.0192 z"
       id="path2-2"
       transform="translate(-8.3494454,-26.207001)" /><path
       id="path1"
       style="clip-rule:evenodd;display:inline;fill:none;fill-opacity:1;fill-rule:evenodd;stroke:#0029ff;stroke-width:1;stroke-linejoin:round;stroke-miterlimit:2;stroke-dasharray:none;stroke-opacity:1"
       d="M 0,0 V 29.980083 H 3 V 207.78008 H 0 v 36.79672 l 45.6644,2e-4 v -3 h 101.6 v 2.9998 h 45.66491 V 207.78008 H 189.929 V 29.980083 h 3 L 192.92931,0 H 147.2644 v 3 h -101.6 V 0 Z" /></g></svg>
