<?xml version="1.0" encoding="UTF-8" standalone="no"?>
<!-- Created with Inkscape (http://www.inkscape.org/) -->

<svg
   width="193.92931mm"
   height="245.5768mm"
   viewBox="0 0 193.92931 245.5768"
   version="1.1"
   id="svg1"
   xml:space="preserve"
   xmlns="http://www.w3.org/2000/svg"
   xmlns:svg="http://www.w3.org/2000/svg"><defs
     id="defs1" /><g
     id="layer7"
     style="display:inline"
     transform="translate(0.5,0.5)"><path
       style="display:inline;fill:none;stroke:#ff0f0f;stroke-opacity:1"
       d="m 114.55578,257.28372 c 0.1397,-0.026 0.5207,-0.0803 0.84667,-0.12059 2.2935,-0.2837 2.32805,-0.28386 5.08,-0.0236 1.51475,0.14327 3.19973,0.15218 3.45074,0.0182 0.26192,-0.13978 2.90917,-0.15649 4.50348,-0.0284 1.56068,0.12536 5.58614,-0.0707 6.19355,-0.3016 0.11784,-0.0448 0.34682,-0.0815 0.50884,-0.0815 0.33962,0 1.23816,-0.19382 1.85339,-0.39978 0.4781,-0.16006 1.08429,-0.23839 2.794,-0.36105 0.65194,-0.0468 1.32311,-0.12332 1.49149,-0.1701 0.16839,-0.0468 0.45672,-0.0851 0.64073,-0.0851 0.51243,0 1.44719,-0.27668 2.06436,-0.61104 0.30575,-0.16564 0.8201,-0.39916 1.143,-0.51894 0.3229,-0.11977 0.94904,-0.35614 1.39142,-0.52526 0.44239,-0.16913 0.95674,-0.34746 1.143,-0.39631 0.18627,-0.0488 0.56727,-0.15774 0.84667,-0.24198 0.2794,-0.0842 0.71755,-0.1912 0.97367,-0.23767 0.25611,-0.0465 0.61659,-0.16272 0.80107,-0.25832 0.18447,-0.0956 0.49117,-0.17381 0.68156,-0.17381 0.19039,0 0.38236,-0.0328 0.4266,-0.0728 0.15723,-0.14238 1.82164,-0.64096 2.74743,-0.823 0.39582,-0.0778 1.08162,-0.21605 1.524,-0.30715 1.27641,-0.26286 2.25074,-0.38595 4.78367,-0.60433 1.72338,-0.14859 1.71651,-0.14846 5.12233,-0.0928 1.67538,0.0274 2.69279,0.009 3.09034,-0.0569 0.32596,-0.0537 0.99271,-0.12981 1.48166,-0.16909 0.48895,-0.0393 1.36525,-0.11132 1.94734,-0.16009 0.58208,-0.0488 1.83938,-0.1454 2.794,-0.21474 1.97851,-0.14371 2.69045,-0.22705 3.47133,-0.40635 0.30268,-0.0695 0.95038,-0.20968 1.43933,-0.3115 0.48895,-0.10183 1.13665,-0.23957 1.43934,-0.30609 0.30268,-0.0665 0.95038,-0.15588 1.43933,-0.19858 0.48895,-0.0427 1.28905,-0.12106 1.778,-0.17414 0.93463,-0.10146 2.87598,-0.12891 4.445,-0.0628 1.7669,0.0744 2.91143,-0.23408 4.32617,-1.16605 l 0.34683,-0.22847 -0.0129,-10.62603 -0.0129,-10.62602 -0.30862,-0.26432 c -0.16975,-0.14538 -0.41457,-0.34573 -0.54404,-0.44522 -0.20421,-0.15691 -0.24241,-0.25791 -0.28823,-0.762 -0.0831,-0.91426 -0.24407,-2.61106 -0.34427,-3.62911 -0.0504,-0.51223 -0.14348,-1.57903 -0.2068,-2.37066 -0.15922,-1.99067 -0.2599,-3.15423 -0.41393,-4.78367 -0.22299,-2.35909 -0.30477,-3.28786 -0.42119,-4.78367 -0.0616,-0.79163 -0.15441,-1.87748 -0.20622,-2.413 -0.0518,-0.53551 -0.13635,-1.41181 -0.18789,-1.94733 -0.0515,-0.53552 -0.14598,-1.62137 -0.20988,-2.413 -0.20454,-2.53426 -0.50157,-5.87501 -0.63984,-7.19667 -0.0487,-0.46566 -0.11674,-1.38006 -0.15115,-2.032 -0.0344,-0.65193 -0.089,-1.24448 -0.12133,-1.31677 -0.0637,-0.14261 0.21665,-0.85269 0.39004,-0.9877 0.11742,-0.0914 0.6783,-0.20799 1.96949,-0.40928 0.88786,-0.13842 1.62014,-0.31701 2.86254,-0.69811 l 0.74588,-0.2288 -0.04,-0.59267 c -0.0538,-0.79747 -0.1685,-1.4438 -0.4357,-2.45533 -0.123,-0.46567 -0.29176,-1.13242 -0.37503,-1.48167 -0.53331,-2.23703 -0.9106,-2.88075 -2.50599,-4.27567 -1.21844,-1.06533 -1.81108,-1.66994 -1.89451,-1.93276 -0.11704,-0.36867 -0.0584,-2.8529 0.0731,-3.09868 0.15068,-0.28155 0.0532,-0.53023 -0.44068,-1.12363 -0.72979,-0.87693 -3.335,-3.37777 -3.96462,-3.8058 -1.64717,-1.11975 -2.14799,-2.26087 -1.6439,-3.74562 0.16771,-0.49399 0.13457,-0.55358 -0.57645,-1.03638 -0.60509,-0.41086 -1.92997,-1.4319 -2.89602,-2.23185 -0.2794,-0.23136 -0.65738,-0.52625 -0.83995,-0.6553 -1.38776,-0.98095 -1.97251,-1.85782 -2.01967,-3.02864 -0.0246,-0.61181 -0.0823,-0.95538 -0.20777,-1.23856 l -0.17366,-0.39189 -0.91947,-0.30907 c -0.50572,-0.16999 -1.31953,-0.40452 -1.80848,-0.52119 -1.86126,-0.44411 -2.34717,-0.58587 -2.96039,-0.86365 -0.64088,-0.29031 -1.27716,-0.70677 -1.73861,-1.13797 -0.1397,-0.13054 -0.44894,-0.39912 -0.68721,-0.59684 -0.45239,-0.37542 -1.4212,-1.40414 -1.64263,-1.74423 -0.11767,-0.18073 -0.21045,-0.20262 -1.10066,-0.2597 -0.73729,-0.0473 -1.10513,-0.11484 -1.5225,-0.27962 -0.30268,-0.11951 -0.65608,-0.24128 -0.78532,-0.2706 -0.55361,-0.12562 -0.7375,-0.59738 -0.73821,-1.89379 -6.5e-4,-1.20193 -0.15434,-3.71357 -0.25237,-4.12423 -0.0888,-0.37215 -0.24158,-3.15517 -0.27185,-4.953 -0.0473,-2.81004 0.24048,-3.23608 4.0033,-5.92666 0.42331,-0.30269 0.98516,-0.72581 1.24855,-0.94028 0.2634,-0.21447 0.7837,-0.57097 1.15623,-0.79221 0.37254,-0.22125 0.84427,-0.51846 1.0483,-0.66048 0.20403,-0.14201 1.06128,-0.60958 1.905,-1.03904 0.84372,-0.42945 1.71282,-0.89022 1.93134,-1.02391 0.21851,-0.1337 0.72255,-0.44232 1.12007,-0.68582 0.39753,-0.24351 0.79024,-0.50507 0.8727,-0.58125 0.0825,-0.0762 0.59738,-0.45134 1.14427,-0.83368 0.74492,-0.5208 1.07795,-0.81455 1.32767,-1.17104 l 0.33334,-0.47585 -0.10502,-1.3835 c -0.0578,-0.76092 -0.13334,-1.42933 -0.16796,-1.48534 -0.14023,-0.22689 -0.3809,-1.82386 -0.43668,-2.8976 -0.0725,-1.39479 -0.044,-1.35467 -0.96178,-1.35467 -0.40207,0 -0.8563,-0.0359 -1.00942,-0.0798 -0.15311,-0.0439 -0.49304,-0.10302 -0.75539,-0.13135 -0.26236,-0.0283 -0.51129,-0.0727 -0.55318,-0.0986 -0.0419,-0.0259 -0.36845,-0.0577 -0.7257,-0.0708 -1.18429,-0.0433 -1.91813,-0.40775 -3.21129,-1.59495 -0.59341,-0.54478 -1.27577,-1.11373 -1.51634,-1.26433 -0.24058,-0.15059 -0.59851,-0.38253 -0.7954,-0.51542 -0.19689,-0.13289 -0.62186,-0.31474 -0.94437,-0.40412 -0.32251,-0.0894 -0.66943,-0.21596 -0.77094,-0.28131 -0.1015,-0.0654 -0.43,-0.18172 -0.72998,-0.25859 -1.63811,-0.41976 -2.32295,-1.1613 -2.02665,-2.19445 0.1286,-0.44839 0.0875,-0.53332 -0.44068,-0.9096 -0.84712,-0.60355 -2.13456,-1.74005 -3.67667,-3.24565 -1.2596,-1.22977 -1.53644,-1.90983 -1.05353,-2.58801 0.53391,-0.7498 -0.0371,-2.26914 -1.82762,-4.86266 -1.24859,-1.808591 -1.78191,-3.254241 -1.44562,-3.918644 0.52178,-1.030887 0.42532,-1.520401 -0.61341,-3.113051 -0.27178,-0.416699 -0.67794,-1.062435 -0.90258,-1.434968 -0.22464,-0.372533 -0.65699,-1.05326 -0.96077,-1.512727 -0.668,-1.01034 -0.73208,-1.372946 -0.44396,-2.512299 0.2632,-1.040833 0.0637,-1.832922 -0.70301,-2.790641 -0.0559,-0.06985 -0.14841,-0.22225 -0.20555,-0.338666 -0.0571,-0.116417 -0.33185,-0.554567 -0.61045,-0.973667 -0.27861,-0.4191 -0.55226,-0.85725 -0.60811,-0.973667 -0.0559,-0.116416 -0.18543,-0.325966 -0.28794,-0.465666 -0.17035,-0.232167 -1.30102,-2.521862 -1.30102,-2.634683 0,-0.02668 -0.0825,-0.16431 -0.18324,-0.305842 -0.27111,-0.380737 -1.41655,-2.660716 -1.60359,-3.191906 -0.24124,-0.68512 -0.35249,-0.776554 -0.87147,-0.716253 -0.66326,0.07707 -1.41446,-0.746014 -1.14329,-1.25269 0.61193,-1.143411 0.40089,-1.828999 -1.0815,-3.513427 -0.27939,-0.317459 -0.69949,-0.862949 -0.93357,-1.212199 -0.23408,-0.34925 -0.80032,-1.03505 -1.25831,-1.524 -0.458,-0.48895 -0.92992,-1.000529 -1.04871,-1.136841 -0.11879,-0.136312 -0.27314,-0.308433 -0.34299,-0.382491 -0.0699,-0.07406 -0.2583,-0.305429 -0.41877,-0.514159 -1.19393,-1.552919 -4.36447,-4.559678 -5.32056,-5.045713 -0.17288,-0.08789 -0.47753,-0.267275 -0.67699,-0.398639 -0.19946,-0.131363 -0.52331,-0.310285 -0.71967,-0.397603 -0.19635,-0.08732 -0.48247,-0.251815 -0.63582,-0.365547 -0.15335,-0.113732 -0.5534,-0.292698 -0.889,-0.397702 -0.61655,-0.192908 -2.88648,-1.247084 -3.27719,-1.521955 -0.62976,-0.443052 -3.46694,-1.674626 -4.66652,-2.025659 -0.29726,-0.08699 -0.6886,-0.221809 -0.86963,-0.299599 -0.18104,-0.07779 -0.63775,-0.195692 -1.01492,-0.262005 -0.37717,-0.06631 -0.91485,-0.196085 -1.19485,-0.288382 -0.51831,-0.170855 -2.97605,-0.532023 -3.51475,-0.516496 -0.16298,0.0047 -0.42968,-0.03032 -0.59266,-0.07782 -0.16299,-0.0475 -0.82974,-0.124906 -1.48167,-0.172009 -0.65193,-0.0471 -1.54728,-0.148397 -1.98967,-0.225098 -0.44238,-0.0767 -0.97615,-0.131824 -1.18616,-0.122495 -0.64024,0.02844 -0.67173,-0.033 -0.68867,-1.343782 -0.0295,-2.281142 0.14461,-2.738621 0.8549,-2.246393 0.17015,0.117916 0.39807,0.214393 0.50649,0.214393 0.10842,0 0.31592,0.06927 0.46112,0.153937 0.14519,0.08467 0.76665,0.32247 1.38101,0.528455 l 1.11701,0.374518 0.26273,-0.251702 c 0.5008,-0.479797 0.21446,-0.953164 -0.70095,-1.158791 -0.19606,-0.04404 -0.43268,-0.149259 -0.52581,-0.233818 -0.0931,-0.08456 -0.30268,-0.197881 -0.46567,-0.25183 -0.78793,-0.260809 -0.90934,-0.599017 -0.27734,-0.772596 0.22239,-0.06108 0.49766,-0.171081 0.61171,-0.244447 0.31536,-0.202861 1.83307,-0.465324 1.87293,-0.323893 0.003,0.01164 0.0254,0.207585 0.049,0.435428 0.0827,0.795415 0.5451,1.138209 0.89271,0.661764 0.0609,-0.0834 0.51068,-0.445818 0.99963,-0.805366 0.48895,-0.359547 1.13509,-0.843758 1.43586,-1.076024 0.30077,-0.232266 0.56786,-0.422302 0.59353,-0.422302 0.0257,0 0.14154,-0.08573 0.25748,-0.1905 0.28901,-0.261179 1.10038,-0.860276 1.33263,-0.983986 0.22995,-0.122483 0.27053,-0.685694 0.0619,-0.858852 -0.2752,-0.228393 -5.43173,-0.314191 -5.65188,-0.09404 -0.05,0.05001 -0.0867,0.349106 -0.0815,0.664655 0.0122,0.738956 -0.0952,0.90233 -0.71052,1.08122 -0.26476,0.07697 -0.69032,0.25144 -0.94571,0.38772 -0.25538,0.136281 -0.55544,0.247783 -0.6668,0.247783 -0.11136,0 -0.32507,0.05117 -0.47491,0.113714 -0.14985,0.06254 -0.42485,0.141394 -0.61112,0.175226 -0.18627,0.03383 -0.50702,0.117742 -0.71279,0.186468 -0.57869,0.193277 -0.61749,0.115189 -0.65478,-1.317623 l -0.0311,-1.192974 0.40298,-0.231239 c 0.22163,-0.127181 0.55537,-0.383638 0.74164,-0.569905 0.504,-0.504 1.05833,-1.144443 1.05833,-1.222733 0,-0.03787 0.21908,-0.248641 0.48684,-0.468372 1.74417,-1.431326 2.33194,-3.619883 1.38406,-5.153582 -0.0977,-0.158015 -0.17756,-0.371033 -0.17756,-0.473373 0,-0.212665 -0.12424,-0.479629 -0.33752,-0.725273 -0.0809,-0.09313 -0.18887,-0.294438 -0.24001,-0.447344 -0.20247,-0.605378 -0.782,-1.283986 -1.40746,-1.648077 -0.32854,-0.191251 -0.67355,-0.409213 -0.76668,-0.484362 -0.29157,-0.235267 -0.81837,-0.436559 -1.47943,-0.565295 -1.44344,-0.281101 -1.71731,-0.310079 -1.99192,-0.210776 -0.1463,0.0529 -0.37865,0.09619 -0.51632,0.09619 -0.37487,0 -0.63922,0.216825 -0.57522,0.47181 0.0607,0.241794 -0.0875,0.459523 -0.31283,0.459523 -0.18347,0 -0.33128,0.240833 -0.33128,0.539771 0,0.11673 -0.0381,0.235783 -0.0847,0.264563 -0.0466,0.02878 -0.0847,0.14445 -0.0847,0.257045 0,0.124937 -0.0825,0.258766 -0.21167,0.343407 -0.11642,0.07628 -0.21167,0.208544 -0.21167,0.293923 0,0.08538 -0.097,0.2599 -0.21556,0.387826 -0.3013,0.325112 -0.16569,2.5221 0.17981,2.913002 0.0638,0.07216 0.17512,0.29887 0.24742,0.503797 0.0723,0.204926 0.18319,0.431634 0.24641,0.503796 0.0632,0.07216 0.25195,0.416954 0.41939,0.766204 0.41773,0.871301 0.76417,1.467714 1.22953,2.116666 0.97582,1.360809 1.29742,2.291663 1.22441,3.543974 -0.072,1.233877 -0.21129,1.345974 -1.07041,0.861116 -0.4401,-0.24838 -1.40071,-0.59509 -1.64877,-0.59509 -0.0702,0 -0.44551,-0.1524 -0.83394,-0.338666 -0.83631,-0.401048 -0.86314,-0.402848 -1.12212,-0.07528 l -0.20084,0.254022 0.20084,0.216501 c 0.27751,0.299157 1.07378,0.771279 1.97883,1.173281 1.92257,0.853956 1.96585,0.912284 0.84667,1.140988 -0.2794,0.0571 -0.61127,0.15681 -0.73748,0.221588 -0.12622,0.06478 -0.47176,0.173966 -0.76788,0.24264 -0.58897,0.136591 -1.66899,0.659745 -1.78485,0.864569 -0.37147,0.656689 1.27723,0.958948 1.93131,0.35407 0.0442,-0.04091 0.16719,-0.07438 0.27323,-0.07438 0.10604,0 0.45085,-0.09943 0.76624,-0.220951 2.2003,-0.847803 2.29204,-0.807857 2.10314,0.915802 -0.0679,0.619015 -0.10159,1.358381 -0.075,1.643035 0.0564,0.603914 0.0419,0.619654 -0.6314,0.685595 -0.26656,0.02611 -0.52785,0.08139 -0.58064,0.122857 -0.0528,0.04147 -0.75765,0.115097 -1.56634,0.163623 -1.5103,0.09063 -2.38707,0.197508 -4.01034,0.488876 -0.51223,0.09194 -1.17828,0.193982 -1.4801,0.226754 -2.042,0.22172 -2.287566,0.460162 -2.287566,2.221226 0,1.233898 -0.01515,1.385485 -0.133925,1.339908 -0.07366,-0.02827 -0.22518,-0.05139 -0.336715,-0.05139 -0.299718,0 -0.469913,-0.330037 -0.648291,-1.257146 -0.321349,-1.670188 -1.831145,-1.420419 -6.543403,1.082491 -0.5588,0.296806 -1.11125,0.605202 -1.227667,0.685324 -0.116416,0.08012 -0.569554,0.324975 -1.006973,0.544117 -0.898816,0.450298 -1.823202,1.062425 -2.432799,1.610996 -0.123063,0.110744 -0.896797,0.652739 -1.386228,0.971043 -0.404956,0.263365 -2.100682,1.678967 -2.880773,2.404886 -0.970028,0.902665 -1.379793,1.254689 -1.684099,1.446789 -0.172509,0.1089 -0.623149,0.542796 -1.001423,0.964213 -0.378273,0.421417 -0.848608,0.91128 -1.045189,1.088583 -0.444267,0.400702 -1.634645,1.778875 -2.057293,2.381855 -0.173796,0.24795 -0.682184,0.9909 -1.129753,1.651 -0.447568,0.6601 -0.978738,1.428782 -1.180378,1.708182 -1.100756,1.525247 -1.448422,2.021307 -1.673914,2.388393 -0.137035,0.223084 -0.537085,0.846403 -0.889,1.385154 -0.351915,0.538751 -0.811295,1.257666 -1.020845,1.597589 -0.209551,0.339923 -0.509555,0.813527 -0.666677,1.052453 -0.157121,0.238926 -0.455289,0.766711 -0.662594,1.172856 l -0.376919,0.738445 0.434257,0.658555 c 0.498698,0.756281 0.522395,1.148131 0.13199,2.182555 -0.105449,0.2794 -0.290693,0.8509 -0.411652,1.27 -2.175572,7.537891 -3.487459,9.623238 -7.944677,12.628676 -0.906312,0.611118 -0.996918,0.617558 -1.00231,0.07133 -0.0045,-0.460609 -0.252639,-3.781382 -0.286782,-3.83858 -0.01839,-0.03081 -0.07742,-0.741814 -0.131168,-1.580014 -0.05375,-0.8382 -0.149935,-1.6764 -0.213739,-1.862666 -0.0638,-0.186267 -0.140258,-0.872067 -0.169901,-1.524 -0.0294,-0.65194 -0.08739,-1.29964 -0.128629,-1.43934 -0.04124,-0.1397 -0.116552,-0.9779 -0.167369,-1.862666 -0.05082,-0.884767 -0.127673,-1.837267 -0.170793,-2.116667 -0.04312,-0.2794 -0.13825,-1.3843 -0.211401,-2.455333 -0.07315,-1.07104 -0.14998,-2.00449 -0.170733,-2.07434 -0.02075,-0.06985 -0.09622,-0.90805 -0.167695,-1.862666 -0.149247,-1.993213 -0.271113,-3.131937 -0.380563,-3.556 -0.04207,-0.16299 -0.116493,-0.77259 -0.165394,-1.354673 -0.0489,-0.582083 -0.147417,-1.336363 -0.218927,-1.676177 -0.429576,-2.041357 -0.333135,-2.470081 0.669462,-2.976055 1.431875,-0.722616 1.520895,-1.178627 1.199159,-6.142768 -0.303854,-4.688243 -0.386837,-5.088423 -1.25657,-6.05971 -0.630219,-0.703806 -1.031181,-1.199631 -1.16147,-1.436258 -0.06985,-0.126861 -0.250825,-0.333877 -0.402166,-0.460037 -0.151342,-0.126159 -0.275167,-0.276503 -0.275167,-0.334096 0,-0.05759 -0.0993,-0.197081 -0.220661,-0.309974 -0.121364,-0.112892 -0.337411,-0.376708 -0.480105,-0.586258 -0.142694,-0.20955 -0.383517,-0.520908 -0.535163,-0.691907 -0.18768,-0.211634 -0.290667,-0.427909 -0.322534,-0.677334 -0.344014,-2.692601 -0.470649,-3.392973 -0.817831,-4.523115 -0.288022,-0.937564 -0.286423,-2.176629 0.0035,-2.717575 0.284596,-0.530995 0.124375,-2.308491 -0.286341,-3.176673 -0.120747,-0.255238 -0.21954,-0.557162 -0.21954,-0.670944 0,-0.113781 -0.05263,-0.414905 -0.116956,-0.669164 -0.06433,-0.254258 -0.142762,-0.607882 -0.174303,-0.78583 -0.178081,-1.004693 -1.834489,-1.969918 -3.147988,-1.834401 -2.073521,0.213932 -2.776599,0.934711 -2.848233,2.919943 -0.02352,0.651933 -0.08425,1.299633 -0.134935,1.439333 -0.343396,0.946387 -0.260809,3.008318 0.138719,3.463356 0.550563,0.627055 0.577939,0.748509 0.677024,3.003585 0.125804,2.863184 0.315116,2.675161 -2.877085,2.857481 l -0.986819,0.05636 -0.245092,-0.245391 c -0.49012,-0.490719 -0.560488,-3.54034 -0.0941,-4.078111 0.390601,-0.450385 0.418556,-1.133967 0.120256,-2.940614 -0.0692,-0.4191 -0.127167,-0.911159 -0.128819,-1.093465 -0.0172,-1.8987 -1.159593,-3.434292 -2.718031,-3.653549 -1.672889,-0.235359 -3.550305,0.540806 -3.550305,1.467774 0,0.08636 -0.07316,0.440416 -0.162578,0.786794 -0.08942,0.346379 -0.186989,0.896479 -0.216825,1.222446 -0.02984,0.325967 -0.112127,0.982036 -0.182868,1.457933 -0.18534,1.246838 -0.126602,1.944772 0.233577,2.7754 l 0.293706,0.677334 -0.04601,1.877991 c -0.0598,2.44094 -0.12267,2.540635 -1.74763,2.771156 -2.014075,0.285722 -2.034457,0.319423 -1.854263,3.066001 0.220785,3.365278 0.367886,5.129142 0.550245,6.597912 0.04655,0.37495 0.08501,0.94645 0.08546,1.27 9.55e-4,0.683647 0.273492,1.12707 0.960504,1.56276 0.205213,0.130143 0.397712,0.276422 0.427775,0.325064 0.03006,0.04864 0.482289,0.31681 1.004946,0.595927 1.828631,0.976552 1.736138,0.683968 2.050562,6.486522 0.06813,1.2573 0.160293,2.64795 0.204807,3.090333 0.04451,0.442383 0.105024,1.375833 0.134466,2.074333 0.02944,0.6985 0.108114,2.144843 0.174825,3.214095 0.06671,1.069252 0.121506,2.498002 0.121765,3.175 7.24e-4,1.893066 0.159454,4.778166 0.295048,5.362833 0.124988,0.538938 0.197636,1.436533 0.426216,5.266072 0.07227,1.210734 0.16688,2.639484 0.210252,3.175 0.24471,3.021383 0.327893,4.255203 0.376738,5.587943 0.02987,0.81492 0.08982,1.93887 0.133225,2.49767 0.04341,0.5588 0.119196,1.6637 0.168421,2.45533 0.122044,1.96272 0.226281,3.49759 0.373746,5.50333 0.06847,0.93134 0.186872,2.94059 0.26311,4.46501 l 0.138613,2.77168 -0.303922,0.35507 c -0.167157,0.19528 -0.392946,0.41488 -0.501752,0.48799 -0.108807,0.0731 -0.508835,0.41867 -0.888953,0.76792 l -0.691122,0.635 0.0029,0.635 c 0.0016,0.34925 0.05982,0.99695 0.129337,1.43933 0.167979,1.06889 0.281125,2.33014 0.321696,3.586 0.01827,0.56559 0.08329,1.38415 0.144497,1.81904 l 0.111277,0.7907 -0.333749,0.29061 c -0.183563,0.15983 -0.56235,0.40833 -0.84175,0.55222 -0.71824,0.3699 -1.481361,0.83061 -1.773227,1.07054 -0.137075,0.11269 -0.327575,0.23994 -0.423334,0.28278 -0.09576,0.0428 -0.364606,0.23143 -0.597439,0.41909 -0.523157,0.42166 -3.652055,1.94169 -3.996857,1.94169 -0.03767,0 -0.241944,0.0923 -0.453943,0.20519 -0.211999,0.11286 -0.614589,0.26457 -0.894646,0.33714 -3.480739,0.90195 -4.29427,1.60551 -3.687562,3.18911 0.04332,0.11306 0.136749,0.41511 0.207629,0.67123 0.806381,2.91374 0.676479,2.75238 2.517712,3.12735 0.20955,0.0427 0.55245,0.13242 0.762,0.19943 0.20955,0.067 0.698396,0.21268 1.086325,0.3237 1.122469,0.32123 1.557541,0.93899 1.831848,2.60102 0.135265,0.81958 0.382246,1.92948 0.597921,2.68699 0.243957,0.85684 0.699394,2.35412 0.783615,2.57617 0.04415,0.11642 0.108279,0.43959 0.142499,0.71815 0.03422,0.27857 0.113173,0.64052 0.175448,0.80433 0.34136,0.89796 0.474603,2.36547 0.244591,2.69385 -0.179729,0.2566 -0.722646,0.77901 -0.809591,0.77901 -0.09218,0 -0.741774,0.43062 -2.290492,1.51842 -0.293974,0.20648 -0.814036,0.5653 -1.155694,0.79738 -0.341658,0.23208 -0.684558,0.51999 -0.762,0.63979 -0.181883,0.28138 -2.19548,2.2942 -2.845172,2.84407 -0.275101,0.23284 -0.756568,0.66271 -1.069926,0.95528 -0.696438,0.65023 -0.869455,0.78439 -2.702706,2.09568 -2.18848,1.56538 -2.093241,1.47718 -1.999262,1.85162 0.04264,0.1699 0.791682,0.81242 0.947102,0.81242 0.02646,0 0.226399,0.14506 0.444304,0.32235 0.383724,0.31221 1.701191,1.0276 2.131856,1.15762 1.509595,0.45574 1.655729,0.74894 1.731007,3.47303 0.02831,1.02447 0.07005,2.52942 0.09275,3.34434 0.0227,0.81491 0.06244,1.71026 0.08831,1.98966 0.02587,0.2794 0.0073,1.06045 -0.04119,1.73567 -0.04852,0.67522 -0.128596,1.83727 -0.177936,2.58233 -0.04934,0.74507 -0.125407,1.88807 -0.169036,2.54 -0.04363,0.65194 -0.141418,2.11879 -0.217309,3.25967 -0.09337,1.40366 -0.178156,2.15646 -0.26223,2.32833 -0.08497,0.17372 -0.18841,1.11837 -0.327248,2.98866 -0.111652,1.50406 -0.222616,2.85661 -0.246587,3.00567 -0.02397,0.14905 -0.06218,0.61391 -0.0849,1.03301 -0.03747,0.69094 -0.402785,5.64598 -0.514981,6.985 -0.02536,0.30268 -0.06203,0.75988 -0.08149,1.016 -0.01946,0.25611 -0.156465,2.04681 -0.304462,3.97933 -0.147997,1.93252 -0.279845,3.66607 -0.292995,3.85233 -0.01315,0.18627 -0.06067,0.79587 -0.105588,1.35467 -0.04492,0.5588 -0.08195,1.07315 -0.08228,1.143 -3.3e-4,0.0699 -0.04827,0.71755 -0.106528,1.43933 -0.06766,0.83826 -0.08661,1.90875 -0.05244,2.96334 0.07501,2.31562 0.612938,19.6276 0.776083,24.97666 0.07456,2.44475 0.166823,4.47672 0.20502,4.51548 0.0382,0.0388 0.331105,0.10682 0.650908,0.15124 0.756557,0.10509 1.386142,0.20439 2.046001,0.32269 0.293264,0.0526 0.563029,0.0772 0.599477,0.0546 0.03645,-0.0225 0.272755,0.0147 0.525126,0.0828 0.810215,0.21847 6.732054,-0.13789 7.655524,-0.4607 1.411277,-0.49332 7.702531,-0.8885 8.805334,-0.5531 0.414869,0.12618 0.759554,0.15145 1.880155,0.13784 l 1.372155,-0.0167 0.702178,0.28721 c 0.386198,0.15796 0.846731,0.34948 1.023406,0.42559 0.176674,0.0761 0.356275,0.11673 0.399112,0.0903 0.04284,-0.0265 0.298336,0.005 0.567774,0.0707 0.610746,0.14816 3.062987,0.1206 5.99322,-0.0674 1.883026,-0.12079 5.018057,-0.12334 6.392334,-0.005 0.873039,0.0751 1.903885,0.20924 2.624667,0.34169 0.395817,0.0727 0.958647,0.16895 1.250735,0.21383 0.292087,0.0449 0.749287,0.16164 1.016,0.25948 0.266712,0.0978 0.760575,0.26619 1.097471,0.37412 0.336897,0.10793 0.813147,0.31095 1.058334,0.45115 0.583421,0.33361 1.452496,0.56906 2.858794,0.77449 1.374642,0.20082 2.195031,0.38524 2.716806,0.61074 0.353499,0.15277 0.61647,0.17019 2.921,0.19349 1.39289,0.0141 2.913527,0.0484 3.379194,0.0763 0.465667,0.0279 1.919255,0.0653 3.230196,0.0832 1.310941,0.0179 2.415841,0.052 2.455334,0.0759 0.189514,0.11472 2.19924,0.1864 3.289137,0.11732 0.321117,-0.0203 1.525222,0.12913 2.004604,0.24885 0.264331,0.066 1.140631,0.15763 1.947333,0.20358 0.806702,0.0459 1.94298,0.12097 2.525064,0.16671 0.582083,0.0457 2.41089,0.10558 4.064,0.13297 3.04688,0.0505 3.75117,0.0765 4.36034,0.16134 0.18626,0.0259 0.87206,0.0857 1.524,0.13285 2.27228,0.16429 2.42069,0.1843 3.97933,0.53638 0.47976,0.10838 0.85517,0.10825 1.43933,-4.8e-4 z"
       id="path2"
       transform="translate(-8.3494454,-26.207001)" /><path
       id="path19"
       style="clip-rule:evenodd;display:inline;fill:none;fill-opacity:1;fill-rule:evenodd;stroke:#0029ff;stroke-width:1;stroke-linejoin:round;stroke-miterlimit:2;stroke-dasharray:none;stroke-opacity:1"
       d="M 0,0 V 244.5768 H 192.92931 V 0 Z" /></g></svg>
