<?xml version="1.0" encoding="UTF-8" standalone="no"?>
<!-- Created with Inkscape (http://www.inkscape.org/) -->

<svg
   width="193.92931mm"
   height="245.577mm"
   viewBox="0 0 193.92931 245.577"
   version="1.1"
   id="svg1"
   xml:space="preserve"
   xmlns="http://www.w3.org/2000/svg"
   xmlns:svg="http://www.w3.org/2000/svg"><defs
     id="defs1" /><g
     id="layer5"
     style="display:inline"
     transform="translate(0.5,0.5)"><path
       style="display:inline;fill:none;stroke:#e6fa00;stroke-opacity:1"
       d="m 78.563176,242.4165 c 0.01996,-0.10478 0.102331,-0.6477 0.183053,-1.2065 0.08072,-0.5588 0.187017,-1.2446 0.236211,-1.524 0.170881,-0.97053 0.07641,-2.89733 -0.323777,-6.604 -0.110607,-1.02447 -0.281888,-2.91042 -0.380625,-4.191 -0.21484,-2.78639 -0.280986,-3.19832 -0.373869,-2.32833 -0.0348,0.32596 -0.211541,1.65946 -0.392756,2.96333 -0.969289,6.97416 -1.051077,9.82305 -0.348511,12.13951 0.146601,0.48336 0.266547,0.89294 0.266547,0.91017 0,0.16369 1.101689,0.009 1.133727,-0.15918 z"
       id="path4-6"
       transform="translate(-8.3494454,-26.207001)" /><path
       style="display:inline;fill:none;stroke:#e6fa00;stroke-opacity:1"
       d="m 142.79212,243.15396 c 0,-0.88927 0.13788,-1.19704 0.85069,-1.89887 l 0.50398,-0.49621 -3.9e-4,-0.95977 c -8.5e-4,-2.12336 -0.0843,-2.86969 -0.33046,-2.95656 -0.36362,-0.12831 -0.46927,-0.21267 -0.47828,-0.38192 -0.005,-0.0887 -0.0151,-2.84417 -0.0231,-6.12324 -0.008,-3.27907 -0.0317,-5.94474 -0.0527,-5.92371 -0.0447,0.0447 -0.30734,2.59389 -0.55285,5.36632 -0.61481,6.94276 -0.55119,6.66921 -1.6311,7.01321 l -0.71691,0.22836 -0.0539,0.57022 c -0.1471,1.55751 -0.0674,3.51422 0.15939,3.91585 0.57426,1.01672 0.71675,1.39093 0.71682,1.88253 l 6e-5,0.48683 h 0.80434 0.80433 z"
       id="path3-2"
       transform="translate(-8.3494454,-26.207001)" /><path
       style="display:inline;fill:none;stroke:#d60000;stroke-opacity:1"
       d="m 34.79978,252.12948 c 1.799892,-0.15514 2.748301,-0.27397 3.005667,-0.37659 0.116417,-0.0464 0.554567,-0.12719 0.973667,-0.1795 0.4191,-0.0523 0.9906,-0.13025 1.27,-0.17321 0.2794,-0.043 0.960618,-0.11361 1.513818,-0.157 l 1.005818,-0.0789 0.619643,-0.42835 c 0.56743,-0.39227 1.113001,-0.67279 3.295388,-1.69442 1.456466,-0.68181 3.199417,-1.26323 5.969,-1.99119 0.48895,-0.12851 1.240975,-0.38137 1.671166,-0.56191 1.203337,-0.50499 3.885973,-1.35868 5.483168,-1.74488 2.715098,-0.65652 3.980017,-0.94686 4.529667,-1.03972 0.302683,-0.0511 1.045633,-0.20202 1.651,-0.3353 0.700346,-0.15418 1.608766,-0.27822 2.497667,-0.34103 1.477496,-0.1044 1.559497,-0.12839 1.648322,-0.4823 0.03095,-0.12331 0.127403,-0.32409 0.214344,-0.44619 0.08694,-0.1221 0.185065,-0.33397 0.218052,-0.47083 0.100062,-0.41514 0.352808,-0.85043 0.628477,-1.0824 l 0.261287,-0.21985 -0.299469,-0.87644 c -0.558954,-1.63586 -0.512708,-1.95002 0.244677,-1.66215 0.235754,0.0896 0.433488,0.16294 0.43941,0.16296 0.03445,1.4e-4 -0.550689,-5.24633 -0.601379,-5.39206 -0.01921,-0.0553 -0.179937,-0.1124 -0.357161,-0.127 -0.304689,-0.0251 -0.322726,-0.0427 -0.331404,-0.3229 -0.0054,-0.17489 -0.119292,-0.46968 -0.277863,-0.71933 -1.076588,-1.69488 -1.211916,-4.84956 -0.204598,-4.76945 0.435087,0.0346 0.415875,0.19453 0.201754,-1.67938 -0.08959,-0.78403 -0.187591,-1.71549 -0.217788,-2.06991 l -0.0549,-0.64441 -0.353711,-0.15992 c -0.34554,-0.15624 -0.356812,-0.1746 -0.487905,-0.79493 -0.14427,-0.68268 -0.129234,-0.69154 -0.297124,0.17505 -0.178172,0.91967 -0.744693,0.17791 -0.683343,-0.89472 0.185403,-3.24156 1.623797,-7.26152 3.654655,-10.21386 0.224325,-0.32612 0.274125,-0.47226 0.247886,-0.72745 -0.01806,-0.17565 -0.05661,-0.73332 -0.08567,-1.23928 l -0.05284,-0.91993 -0.464046,0.79293 c -0.255226,0.43611 -0.707885,1.28823 -1.005909,1.89359 -0.601493,1.2218 -1.266293,2.15857 -2.344395,3.30352 l -0.718943,0.76352 0.04196,0.43666 c 0.04858,0.50558 -0.183742,0.83328 -0.657982,0.92812 -0.337025,0.0674 -0.609695,0.42968 -0.974555,1.29479 -0.415328,0.98479 -0.98969,1.57418 -3.008895,3.08767 -1.042147,0.78114 -1.449414,-0.0491 -0.678957,-1.38403 0.247051,-0.42807 0.432559,-0.79493 0.412239,-0.81525 -0.194288,-0.19428 -1.483253,-0.37624 -2.6826,-0.37869 -1.425136,-0.003 -1.640214,-0.0606 -1.626201,-0.43627 0.004,-0.10782 0.01035,-0.27224 0.01407,-0.36537 0.0037,-0.0931 -0.01819,-0.26887 -0.04868,-0.39052 -0.0434,-0.17317 0.0014,-0.28586 0.206211,-0.51917 0.143903,-0.1639 0.261643,-0.3825 0.261643,-0.48579 0,-0.43193 0.96632,-1.01752 1.67907,-1.01752 0.191243,0 0.179519,-0.0214 -0.137966,-0.25134 -1.378126,-0.99831 0.0043,-1.47653 1.586978,-0.54897 0.409968,0.24028 0.543146,0.28191 0.675391,0.21114 0.265349,-0.14201 0.346399,-0.10596 0.479865,0.21347 0.245214,0.58688 0.59241,0.39117 0.555748,-0.31327 -0.04238,-0.81427 0.145568,-1.06681 0.870046,-1.16906 l 0.332799,-0.047 0.562119,-1.44441 c 0.888495,-2.28306 1.593381,-3.77963 2.699927,-5.7323 1.020118,-1.80016 1.030204,-1.8233 1.24275,-2.85104 0.584883,-2.82813 1.924777,-4.60988 3.931274,-5.22768 0.06985,-0.0215 -0.198898,-0.16539 -0.597218,-0.31973 -1.576342,-0.61082 -3.551449,-1.82506 -3.551449,-2.18334 0,-0.0871 0.650133,-0.0504 1.246831,0.0705 l 0.273165,0.0553 -0.418701,-0.69666 c -0.393215,-0.65425 -0.931962,-1.89095 -0.931962,-2.13933 0,-0.0615 -0.19357,-0.30081 -0.430156,-0.5319 -0.480215,-0.46904 -1.457535,-1.77519 -1.482014,-1.98065 -0.0087,-0.0731 -0.111974,-0.3617 -0.229487,-0.64143 -0.255713,-0.60869 -0.509206,-1.77315 -0.436128,-2.0034 0.0997,-0.31412 0.387885,-0.33363 1.638544,-0.1109 0.365139,0.065 0.371878,0.0621 0.31613,-0.13699 -1.322669,-4.72394 -0.536371,-7.16485 2.81441,-8.73678 0.390298,-0.1831 0.674756,-0.3573 0.632129,-0.38712 -0.253165,-0.17708 -0.975073,-1.24003 -1.081695,-1.5927 -0.05355,-0.17713 -0.02921,-0.17348 0.667373,0.1 1.34099,0.52645 1.888732,0.60295 2.518409,0.35175 0.293417,-0.11706 0.647785,-0.24002 0.787485,-0.27325 0.381093,-0.0906 0.393442,-0.11168 0.210702,-0.35901 -0.575501,-0.77888 -0.553949,-1.33836 0.04619,-1.19921 0.598066,0.13866 0.598881,0.0873 0.0074,-0.46509 l -0.582391,-0.54386 0.03938,-0.47489 c 0.04494,-0.54194 1.6309,-3.81061 1.848907,-3.81061 0.343442,0 1.553146,2.25004 1.830722,3.40512 0.07589,0.31582 0.151603,0.62558 0.168244,0.68836 0.02095,0.079 0.122396,0.0332 0.329724,-0.1488 0.342477,-0.3007 1.015517,-0.65519 1.944977,-1.02441 0.771391,-0.30643 1.42844,-0.63354 1.749817,-0.87114 0.326824,-0.24163 0.367013,-0.15648 0.351061,0.74379 -0.02682,1.51378 -0.518843,2.74832 -1.479147,3.71138 l -0.575979,0.57763 0.822871,0.37823 c 1.667887,0.76663 2.280622,1.18234 3.189297,2.1638 1.668988,1.80266 2.75219,4.9085 2.542122,7.28896 -0.04717,0.53451 -0.03659,0.64898 0.05674,0.6143 0.279726,-0.10392 1.232706,-0.18502 1.405879,-0.11965 0.733022,0.27671 -0.429969,3.28277 -1.847399,4.7751 -0.301746,0.31769 -0.505376,0.61483 -0.543557,0.79316 -0.13363,0.62413 -0.834323,2.06732 -1.207808,2.48767 -0.163366,0.18387 0.02002,0.19749 0.776335,0.0577 1.566332,-0.28955 -1.366213,1.82664 -3.158411,2.27918 l -0.625673,0.15799 0.397045,0.13529 c 1.743778,0.59416 2.896108,2.20505 3.312034,4.63003 0.184707,1.07689 0.339363,1.54514 0.728551,2.20579 0.30887,0.52431 0.916946,2.40285 0.919154,2.83957 9.49e-4,0.18764 0.171601,0.24265 1.426897,0.45997 0.538263,0.0932 1.799031,0.5044 2.236119,0.72934 0.213007,0.10962 0.255622,0.10334 0.493927,-0.0728 0.537776,-0.39759 1.513947,-0.14457 1.517916,0.39344 0.0028,0.37632 0.08658,0.40455 0.885402,0.29825 1.268178,-0.16876 1.611531,-0.10507 2.453254,0.45508 0.399072,0.26558 1.045559,0.6307 1.436637,0.81138 0.745881,0.3446 0.946937,0.55586 0.859717,0.90338 -0.109193,0.43506 -0.513274,0.51441 -2.205711,0.43316 l -0.337072,-0.0162 -0.07389,0.4592 c -0.04977,0.30929 -0.02951,0.95881 0.06208,1.98967 0.235964,2.65595 0.200925,3.02039 -0.314325,3.26933 -0.436636,0.21096 -0.669357,0.2101 -0.862386,-0.003 -0.08428,-0.0931 -0.220617,-0.16933 -0.30296,-0.16933 -0.376843,0 -1.009374,-0.86566 -1.009374,-1.3814 0,-0.15097 -0.109962,-0.33723 -0.327556,-0.55482 -0.241888,-0.24189 -0.354704,-0.44672 -0.431352,-0.78317 -0.212558,-0.93303 -0.266189,-1.09061 -0.371173,-1.09061 -0.288709,0 -0.428229,-0.22076 -0.313923,-0.49672 0.194018,-0.4684 -0.16409,-0.68153 -0.587996,-0.34995 -0.476372,0.37263 -1.25654,0.12412 -1.399583,-0.44581 -0.04996,-0.19907 -0.08548,-0.20833 -0.999863,-0.26055 -1.086189,-0.062 -1.544767,-0.13644 -3.019221,-0.48989 -1.55147,-0.37191 -2.129564,-0.64289 -2.947069,-1.38146 l -0.332047,-0.29998 -0.05286,0.38568 c -0.04935,0.36005 -0.02538,0.42643 0.360608,0.99843 2.267141,3.35976 4.274623,9.88072 3.388562,11.00716 -0.347203,0.4414 -0.519151,0.30621 -0.631571,-0.49658 -0.06846,-0.48888 -0.147977,-0.37284 -0.249006,0.36341 -0.04611,0.33604 -0.111266,0.4807 -0.260581,0.57853 -0.143467,0.094 -0.214054,0.24086 -0.252627,0.52559 -0.02944,0.21733 -0.143175,0.92854 -0.25274,1.58047 -0.317703,1.8904 -0.319429,1.93573 -0.122448,3.21734 0.393587,2.56077 0.331611,4.4426 -0.264281,8.02464 -0.39494,2.37408 -0.395334,2.34122 0.02449,2.04152 0.426084,-0.30417 0.575575,-0.23043 0.575575,0.2839 0,0.54028 -0.153185,1.77311 -0.262779,2.11483 -0.07838,0.24441 -0.06051,0.3065 0.171229,0.59487 0.142312,0.17709 0.317369,0.51938 0.389016,0.76064 0.07165,0.24126 0.171345,0.46404 0.22155,0.49507 0.16686,0.10313 0.408572,0.75032 0.410458,1.09902 0.0024,0.4521 0.258618,0.51655 2.330193,0.5862 1.673512,0.0563 3.489187,0.23549 4.306906,0.42513 0.289405,0.0671 0.943695,0.18214 1.453977,0.25561 0.510281,0.0735 1.270684,0.20464 1.689784,0.2915 0.711918,0.14754 1.228443,0.20301 4.0005,0.42966 0.593725,0.0485 1.458215,0.16776 1.921085,0.26493 0.69265,0.14541 0.97735,0.16516 1.60867,0.11161 0.42189,-0.0358 1.24332,-0.0752 1.82541,-0.0876 0.58208,-0.0124 1.59173,-0.10228 2.24366,-0.19967 1.43533,-0.21443 3.14767,-0.2306 5.588,-0.0528 2.0109,0.14652 2.56287,0.10264 4.23334,-0.33651 1.90164,-0.49992 3.71153,-0.49723 6.25711,0.009 l 1.1472,0.22827 0.49112,-0.26176 c 1.65527,-0.88225 3.94464,-1.07599 8.57224,-0.72544 l 0.55033,0.0417 0.39939,-0.49261 c 1.14375,-1.41072 1.79788,-2.01496 2.17075,-2.00518 l 0.35086,0.009 v -0.69543 c 0,-0.38248 -0.0247,-1.21112 -0.055,-1.84142 l -0.055,-1.14598 -0.53865,-0.0552 c -1.00076,-0.10253 -0.96028,-0.0478 -0.95894,-1.29701 0.001,-1.24669 0.0401,-1.4626 0.26272,-1.4626 0.0877,0 0.15982,-0.0476 0.16027,-0.10583 4.6e-4,-0.0582 0.0378,-0.73449 0.083,-1.50284 0.0452,-0.76835 0.14112,-2.67335 0.21323,-4.23333 0.0721,-1.55998 0.1869,-3.90313 0.2551,-5.207 0.0682,-1.30387 0.12427,-2.3948 0.12461,-2.42429 9.8e-4,-0.0839 -0.35572,-0.17581 -0.61789,-0.15928 -0.24224,0.0153 -0.82083,-0.48048 -0.8208,-0.70329 1e-5,-0.0549 -0.17294,-0.4437 -0.38434,-0.86401 -0.51979,-1.03351 -0.54621,-1.41603 -0.26008,-3.76546 0.12194,-1.00119 0.23864,-1.97274 0.25935,-2.159 0.0207,-0.18627 -0.0169,-0.85302 -0.0836,-1.48167 -0.0667,-0.62865 -0.13137,-1.35255 -0.1438,-1.60867 -0.0198,-0.40751 -0.0459,-0.46898 -0.20953,-0.49225 -0.1622,-0.0231 -0.24442,-0.20796 -0.62128,-1.397 -0.23889,-0.75373 -0.58198,-1.82585 -0.76243,-2.38249 -0.38451,-1.18613 -0.42908,-1.06597 0.41696,-1.12396 0.64955,-0.0445 0.68172,-0.0564 0.72408,-0.26761 0.19418,-0.96814 0.8429,-5.42131 1.06825,-7.33302 0.21566,-1.82956 0.28375,-2.1215 0.53282,-2.2847 0.28679,-0.18791 2.04466,-0.63064 2.74915,-0.6924 0.53237,-0.0467 0.6563,-0.0898 0.889,-0.30919 0.39357,-0.37112 1.19771,-0.95359 1.67558,-1.21368 l 0.41514,-0.22594 v -0.74659 c 0,-0.68352 -0.0161,-0.75637 -0.1905,-0.8623 -0.10478,-0.0636 -0.78105,-0.4305 -1.50283,-0.81524 -0.72179,-0.38474 -1.49238,-0.82811 -1.71243,-0.98528 l -0.40009,-0.28575 -0.29841,0.17606 c -0.32125,0.18955 -0.37102,0.36964 -0.1741,0.62999 0.18073,0.23895 0.16341,0.31579 -0.18781,0.83318 -0.47259,0.69619 -1.32054,0.0724 -1.06686,-0.78479 0.10902,-0.36842 0.0441,-0.68837 -0.13967,-0.68837 -0.60605,0 -1.1332,-1.40482 -0.83966,-2.23766 0.0867,-0.24611 0.0685,-0.28442 -0.34096,-0.71657 -2.45568,-2.59171 -2.42101,-3.5664 0.13172,-3.7038 l 1.0254,-0.0552 0.0495,-2.37955 c 0.0272,-1.30876 0.0951,-2.64626 0.15099,-2.97223 0.0558,-0.32597 0.0883,-0.70697 0.0722,-0.84667 -0.21428,-1.8532 0.73476,-3.63217 2.35443,-4.41336 0.26775,-0.12914 0.73074,-0.45605 1.02887,-0.72647 0.61817,-0.56072 1.518,-1.04526 2.10446,-1.1332 0.30242,-0.0454 0.52408,-0.16107 0.90873,-0.4744 1.34852,-1.09847 3.20194,-1.53036 4.08482,-0.95187 0.44119,0.28907 0.22428,0.54513 -1.01535,1.19863 -0.74452,0.39249 -0.81941,0.45013 -0.52871,0.40691 1.54906,-0.23031 3.10609,-0.2196 3.98148,0.0274 0.13852,0.0391 0.4898,0.0534 0.78063,0.0317 0.94517,-0.0703 1.76231,0.27145 1.95232,0.81652 0.0962,0.27593 -0.0583,0.60378 -0.28457,0.60378 -0.17989,0 -0.15266,0.0727 0.15464,0.41307 0.15226,0.16863 0.33337,0.3828 0.40247,0.47593 0.0691,0.0931 0.38785,0.3 0.70834,0.45971 0.61158,0.30476 1.06769,0.83449 1.06769,1.24003 0,0.12514 0.15092,0.29887 0.46689,0.53742 0.87579,0.66123 1.20329,1.56688 0.82892,2.29226 -0.24336,0.47152 -0.39399,0.43102 -1.14908,-0.30894 -0.37294,-0.36546 -0.64859,-0.58828 -0.61257,-0.49515 0.62688,1.62066 0.74045,2.47634 0.41645,3.13771 -0.424,0.86549 -0.94926,0.66974 -1.33987,-0.49934 l -0.24625,-0.73702 -0.20459,0.34309 c -0.19755,0.33126 -0.20252,0.37956 -0.1443,1.40147 l 0.0603,1.05838 0.40894,0.17592 c 0.52329,0.22512 0.61291,0.45523 0.28049,0.72029 -0.32356,0.258 -0.25733,0.29299 0.58848,0.31085 1.38691,0.0293 0.87394,1.89759 -1.0328,3.76155 -0.26993,0.26388 -0.34279,0.41109 -0.42964,0.8681 -0.23143,1.21774 -1.07132,2.52878 -2.78047,4.34027 -1.49005,1.57925 -1.6343,1.66959 -2.6674,1.67059 -0.67867,6.6e-4 -0.66533,0.20814 0.0347,0.54009 0.28219,0.1338 0.74797,0.42108 1.03508,0.63839 0.48627,0.36805 0.57502,0.40217 1.29611,0.49817 2.12907,0.28347 2.06645,0.19998 2.50319,3.33723 0.39302,2.82319 0.34405,2.6438 0.62407,2.28599 0.26085,-0.3333 0.48136,-0.46 0.90751,-0.52142 l 0.32586,-0.047 0.37596,-0.93134 c 1.0269,-2.54385 1.04759,-2.70129 0.49632,-3.77659 -0.40613,-0.79219 -0.4395,-0.99816 -0.29147,-1.79894 0.076,-0.411 0.0632,-0.58599 -0.0847,-1.1563 -0.22441,-0.86573 -0.21938,-1.06234 0.0336,-1.31535 0.57835,-0.57834 1.21414,-0.004 1.48161,1.3381 l 0.13091,0.65691 0.74466,-0.5993 c 0.68901,-0.55449 1.17685,-1.03143 2.35745,-2.30472 0.5065,-0.54627 0.93704,-0.70856 1.19511,-0.45049 0.0746,0.0746 0.22604,0.13568 0.33647,0.13568 0.11043,0 0.24647,0.0457 0.30231,0.10154 0.0558,0.0558 0.22495,0.14157 0.37578,0.1905 0.42151,0.13674 0.54396,0.46804 0.35545,0.96166 -0.0821,0.21507 -0.15513,0.58472 -0.16219,0.82144 -0.0204,0.68392 -0.56702,1.71404 -1.41976,2.67565 -2.28845,2.58062 -2.35926,2.69262 -3.19763,5.05748 l -0.61068,1.72259 0.35123,0.35788 c 0.57222,0.58305 0.52254,1.51657 -0.16892,3.17412 -0.18275,0.43809 -0.33228,0.84258 -0.33228,0.89888 0,0.16672 -0.35537,0.9716 -0.42898,0.9716 -0.0373,0 -0.2571,0.18445 -0.48855,0.40988 -0.61559,0.59961 -1.76052,0.88014 -2.81574,0.68992 -0.57662,-0.10394 -0.75882,-0.21449 -1.5596,-0.94622 l -0.49236,-0.44992 0.0523,1.04175 c 0.0311,0.61925 0.19526,1.8502 0.40474,3.03516 l 0.3524,1.99341 -0.39845,0.40453 -0.39844,0.40452 -0.0735,2.99498 c -0.0404,1.64724 -0.0846,6.63354 -0.0982,11.08065 l -0.0247,8.08567 0.19318,0.01 c 0.30237,0.0152 0.30928,0.0623 0.14766,1.00514 -0.1864,1.08751 -0.12813,1.04029 -1.37024,1.11048 l -1.02003,0.0576 -0.0529,1.1945 c -0.0291,0.65697 -0.0785,1.52787 -0.1097,1.93533 l -0.0568,0.74084 h 0.24976 c 0.26717,0 1.15825,0.49722 2.74343,1.53085 l 0.93714,0.61105 0.58674,-0.10485 c 0.35867,-0.0641 1.32556,-0.1029 2.48745,-0.0998 1.81577,0.005 1.94918,-0.006 2.98517,-0.24592 0.59646,-0.13802 1.46546,-0.27485 1.93113,-0.30407 0.46567,-0.0292 1.20329,-0.12469 1.63915,-0.21218 1.21423,-0.24372 4.03865,-0.10836 5.04952,0.24199 0.0931,0.0323 1.57903,0.0479 3.302,0.0347 5.37676,-0.0413 6.59489,0.15702 8.4577,1.37663 0.88789,0.58131 1.79895,0.82984 3.90363,1.06487 0.4191,0.0468 0.89535,0.12466 1.05834,0.17303 0.16298,0.0484 0.6985,0.12431 1.19004,0.16877 0.98166,0.0888 2.70688,0.47139 4.49698,0.99727 0.63655,0.18699 1.4557,0.36679 1.82034,0.39954 0.36463,0.0328 1.10112,0.14705 1.63664,0.254 0.53551,0.10695 1.23189,0.22159 1.5475,0.25476 l 0.57384,0.0603 -0.0185,-10.63703 -0.0185,-10.63704 -0.37875,-0.29508 c -0.20831,-0.16229 -0.40925,-0.29508 -0.44654,-0.29508 -0.15086,0 -0.28594,-0.41765 -0.3423,-1.05833 -0.0328,-0.37253 -0.0999,-1.17263 -0.14921,-1.778 -0.0493,-0.60537 -0.12918,-1.42452 -0.17754,-1.82033 -0.0483,-0.39582 -0.14672,-1.44357 -0.21859,-2.32834 -0.12108,-1.49076 -0.20132,-2.45387 -0.44438,-5.334 -0.0511,-0.60536 -0.15171,-1.67216 -0.22362,-2.37066 -0.0719,-0.6985 -0.16625,-1.7272 -0.20966,-2.286 -0.0434,-0.5588 -0.1185,-1.53035 -0.16689,-2.159 -0.0484,-0.62865 -0.12912,-1.4859 -0.17939,-1.905 -0.1058,-0.88193 -0.29987,-3.18245 -0.41782,-4.953 -0.045,-0.67522 -0.11921,-1.39912 -0.16494,-1.60867 -0.0457,-0.20955 -0.10663,-0.8763 -0.13533,-1.48167 -0.0287,-0.60536 -0.10662,-1.48166 -0.17313,-1.94733 -0.0665,-0.46567 -0.11717,-1.17052 -0.11257,-1.56633 0.005,-0.39582 -0.0319,-0.82394 -0.0811,-0.95137 -0.18084,-0.46806 0.29726,-1.24997 0.76429,-1.24997 0.12861,0 0.32135,-0.0376 0.42832,-0.0835 0.10696,-0.0459 0.49928,-0.11992 0.87182,-0.16446 0.9283,-0.11097 2.51468,-0.48982 3.43132,-0.81944 l 0.42101,-0.15139 v -0.54876 c 0,-0.30182 -0.0348,-0.66577 -0.0772,-0.80878 -0.0425,-0.14301 -0.13281,-0.54576 -0.20074,-0.89501 -0.24788,-1.27431 -0.78599,-3.28426 -1.0767,-4.02167 -0.0367,-0.0931 -0.12781,-0.34078 -0.20244,-0.55033 -0.12014,-0.33732 -0.61838,-0.99286 -1.02961,-1.35467 -0.0794,-0.0699 -0.49188,-0.42626 -0.91665,-0.79203 -0.98775,-0.85055 -1.6493,-1.53971 -1.70364,-1.77476 -0.11127,-0.48128 -0.0983,-2.01541 0.0232,-2.74306 l 0.13026,-0.78018 -0.23453,-0.3544 c -0.42023,-0.635 -3.82804,-3.89343 -4.78725,-4.57741 -1.16387,-0.8299 -1.54034,-1.8159 -1.18413,-3.10133 0.21421,-0.773 0.20656,-0.78726 -0.78084,-1.45577 -0.43268,-0.29294 -0.92005,-0.6421 -1.08303,-0.7759 -0.16299,-0.13381 -0.58316,-0.48063 -0.93372,-0.77072 -1.08793,-0.90027 -1.47139,-1.20472 -1.69759,-1.34785 -1.10825,-0.7012 -1.68513,-1.6054 -1.77232,-2.77792 -0.10865,-1.46108 -0.22164,-1.67182 -1.01504,-1.89314 -0.25612,-0.0714 -0.78952,-0.24515 -1.18534,-0.38601 -0.39581,-0.14087 -0.78983,-0.25718 -0.87559,-0.25848 -0.627,-0.01 -3.00989,-0.77218 -3.71112,-1.18778 -0.63338,-0.37538 -2.88728,-2.46299 -3.33318,-3.08726 -0.16705,-0.23388 -0.20565,-0.24431 -1.143,-0.30895 -0.7124,-0.0491 -1.11001,-0.12228 -1.49674,-0.27536 -0.28965,-0.11465 -0.63729,-0.23276 -0.77254,-0.26246 -0.57066,-0.12534 -0.76192,-0.69597 -0.76717,-2.28889 -0.003,-0.93312 -0.16307,-3.36246 -0.26209,-3.97934 -0.0941,-0.58604 -0.241,-3.23037 -0.25116,-4.51997 -0.004,-0.48361 -0.0251,-0.90874 -0.0474,-0.94473 -0.0852,-0.13782 0.28811,-1.6652 0.4957,-2.0283 0.45004,-0.78714 1.31549,-1.54059 3.69759,-3.21906 0.48895,-0.34452 1.05467,-0.7694 1.25715,-0.94417 0.20249,-0.17477 0.67874,-0.49876 1.05833,-0.71999 0.3796,-0.22122 0.86163,-0.52254 1.07118,-0.6696 0.20955,-0.14705 0.6096,-0.3816 0.889,-0.52122 1.45517,-0.72714 2.68353,-1.38424 3.175,-1.69843 0.30269,-0.1935 0.72588,-0.44579 0.94043,-0.56065 0.21456,-0.11486 0.50031,-0.30105 0.635,-0.41377 0.1347,-0.11272 0.4015,-0.31485 0.59289,-0.44919 0.19139,-0.13434 0.63888,-0.4489 0.99442,-0.69904 0.44322,-0.31182 0.75518,-0.6141 0.99236,-0.96157 l 0.34593,-0.50678 -0.0535,-0.73176 c -0.089,-1.21709 -0.22587,-2.33541 -0.29678,-2.4251 -0.13097,-0.16564 -0.24533,-0.95073 -0.33916,-2.32833 -0.11946,-1.75402 -0.0526,-1.60857 -0.73974,-1.60916 -0.31579,-2.7e-4 -0.80276,-0.0384 -1.08216,-0.0848 -1.3054,-0.21676 -2.21935,-0.338 -2.54789,-0.338 -0.19749,0 -0.5432,-0.0793 -0.76826,-0.17625 -0.22505,-0.0969 -0.55081,-0.22539 -0.72391,-0.28547 -0.17311,-0.0601 -0.43981,-0.23121 -0.59267,-0.38028 -0.99366,-0.96904 -1.62232,-1.51254 -2.1406,-1.85059 -0.32597,-0.21262 -0.7274,-0.4937 -0.89207,-0.62463 -0.16838,-0.13386 -0.60418,-0.32665 -0.99578,-0.4405 -0.38301,-0.11135 -0.7446,-0.24248 -0.80354,-0.29139 -0.0589,-0.0489 -0.37284,-0.15021 -0.69756,-0.22508 -1.58078,-0.36452 -2.11419,-0.90905 -2.03393,-2.07636 l 0.0495,-0.72022 -0.74232,-0.52893 c -0.74741,-0.53255 -1.07958,-0.81332 -2.01232,-1.70093 -0.2794,-0.26588 -0.71752,-0.67278 -0.97361,-0.90423 -1.59291,-1.43968 -1.97323,-2.17173 -1.53284,-2.9505 0.55602,-0.98327 0.1352,-2.10452 -1.92637,-5.13264 -0.20607,-0.30269 -0.57884,-0.96551 -0.82838,-1.472942 -0.24954,-0.507433 -0.48687,-0.964633 -0.52739,-1.016 -0.2195,-0.27827 -0.18878,-0.729006 0.0887,-1.300629 0.37408,-0.770758 0.36481,-1.142335 -0.0491,-1.967765 -0.29819,-0.5947 -0.54546,-0.99967 -1.95101,-3.19526 -0.30523,-0.476809 -0.55497,-0.903541 -0.55497,-0.948293 0,-0.04475 -0.0522,-0.111835 -0.11599,-0.149074 -0.52151,-0.304438 -0.60738,-1.85768 -0.14996,-2.712389 0.24122,-0.450721 -0.0587,-1.065742 -2.15767,-4.424984 -0.39281,-0.62865 -0.89286,-1.524 -1.11123,-1.989667 -0.21823,-0.465607 -0.5215,-1.075207 -0.67379,-1.354607 -0.60334,-1.106916 -1.56412,-3.040879 -1.72714,-3.476587 -0.24097,-0.64405 -0.36134,-0.744659 -0.81633,-0.682296 -0.81079,0.111131 -1.40318,-0.651513 -1.09139,-1.405077 0.32281,-0.780236 0.3868,-1.102686 0.26541,-1.337441 -0.25919,-0.501212 -0.97278,-1.507806 -1.35067,-1.905264 -0.22067,-0.232101 -0.53072,-0.612501 -0.689,-0.845335 -0.15827,-0.232833 -0.35303,-0.518583 -0.43279,-0.635 -0.22057,-0.321943 -0.56349,-0.718971 -1.46256,-1.693333 -0.95405,-1.033934 -1.33477,-1.467963 -1.59679,-1.820333 -0.10388,-0.1397 -0.40428,-0.50165 -0.66755,-0.804334 -1.15833,-1.331732 -4.01617,-3.893156 -4.76208,-4.268161 -0.67614,-0.339926 -1.80457,-0.977011 -1.94275,-1.096829 -0.0737,-0.06387 -0.40063,-0.199743 -0.72659,-0.301927 -0.32597,-0.102185 -0.97953,-0.373881 -1.45235,-0.60377 -0.47283,-0.229888 -0.88357,-0.417979 -0.91277,-0.417979 -0.0292,0 -0.32813,-0.158438 -0.66431,-0.352085 -1.48806,-0.857152 -3.56679,-1.78313 -4.92924,-2.195751 -0.2794,-0.08462 -0.7747,-0.249202 -1.10067,-0.365745 -0.32596,-0.116543 -0.70696,-0.213966 -0.84666,-0.216496 -0.30813,-0.0056 -1.0361,-0.193416 -1.30282,-0.336163 -0.10689,-0.0572 -0.54328,-0.13921 -0.96976,-0.182236 -0.42649,-0.04303 -1.04213,-0.121295 -1.36809,-0.173932 -0.32597,-0.05264 -0.80222,-0.102554 -1.05834,-0.110927 -0.25611,-0.0084 -0.552,-0.04396 -0.65751,-0.07908 -0.10552,-0.03512 -0.79132,-0.117914 -1.524,-0.183985 -0.73269,-0.06607 -1.6179,-0.162703 -1.96715,-0.214736 -0.34925,-0.05203 -0.80645,-0.101863 -1.016,-0.110732 -0.79501,-0.03365 -0.76313,0.02691 -0.75363,-1.431673 0.0145,-2.222748 0.25043,-2.786155 0.87691,-2.093901 0.0863,0.09539 0.25583,0.173675 0.37667,0.173962 0.12084,2.86e-4 0.33401,0.06211 0.47371,0.137378 1.09365,0.589268 2.5463,0.938874 2.84439,0.684555 0.60097,-0.512717 0.27275,-1.005468 -0.80432,-1.207528 -0.17485,-0.0328 -0.33687,-0.109021 -0.36003,-0.169372 -0.0232,-0.06035 -0.20109,-0.172511 -0.3954,-0.249243 -0.92916,-0.36691 -1.05324,-0.573773 -0.45914,-0.765434 0.24448,-0.07887 0.53786,-0.202111 0.65197,-0.273873 0.21325,-0.134112 1.22801,-0.358061 1.62326,-0.358239 0.20251,-9.1e-5 0.22582,0.03532 0.26469,0.402067 0.0703,0.663507 0.18684,0.867834 0.49481,0.867834 0.16636,0 0.3704,-0.08727 0.54441,-0.232834 0.15308,-0.128058 0.53374,-0.423333 0.84591,-0.656166 0.31217,-0.232834 0.83965,-0.634629 1.17219,-0.892879 0.33253,-0.25825 0.78784,-0.60115 1.0118,-0.762 0.22395,-0.16085 0.5478,-0.399326 0.71966,-0.529947 0.17186,-0.130621 0.43728,-0.31594 0.58983,-0.41182 0.35072,-0.220447 0.46179,-0.427382 0.38899,-0.724784 -0.0964,-0.393632 -0.19223,-0.412311 -2.52902,-0.492726 -0.79163,-0.02724 -1.49648,-0.05298 -1.56633,-0.05719 -1.49857,-0.0904 -1.82272,0.05185 -1.8057,0.792435 0.0167,0.726159 -0.11235,0.951567 -0.62435,1.090572 -0.22346,0.06067 -0.61583,0.21325 -0.87195,0.339077 -0.52584,0.25834 -2.42791,0.7837 -2.87867,0.795101 l -0.29633,0.0075 -0.0525,-0.508 c -0.0289,-0.2794 -0.0325,-0.862773 -0.008,-1.296385 l 0.0444,-0.788385 0.40198,-0.203699 c 0.37026,-0.187622 1.5123,-1.329364 1.73073,-1.730263 0.0466,-0.08554 0.30601,-0.337223 0.57646,-0.559297 0.48096,-0.394928 1.24394,-1.304336 1.24394,-1.482673 0,-0.0494 0.0907,-0.248996 0.20165,-0.443555 0.40209,-0.705368 0.31829,-2.398884 -0.15402,-3.112602 -0.11933,-0.180314 -0.21696,-0.440037 -0.21696,-0.577163 0,-0.143098 -0.0911,-0.357603 -0.21386,-0.503481 -0.11763,-0.139788 -0.25649,-0.380837 -0.30859,-0.535662 -0.23819,-0.707819 -1.40031,-1.932502 -1.83378,-1.932502 -0.0431,0 -0.13066,-0.06331 -0.19457,-0.14069 -0.39102,-0.473426 -3.10839,-1.121332 -3.74201,-0.892212 -0.15448,0.05586 -0.36211,0.101569 -0.46139,0.101569 -0.40539,0 -0.61708,0.178021 -0.5925,0.498278 0.0186,0.242678 -0.009,0.306358 -0.1463,0.332968 -0.247,0.04799 -0.46549,0.269358 -0.4669,0.473043 -0.002,0.310601 -0.24019,0.876768 -0.46178,1.098355 -0.11788,0.117879 -0.21432,0.2557 -0.21432,0.306269 0,0.05057 -0.0823,0.20329 -0.18294,0.339379 -0.21392,0.289345 -0.11503,2.324174 0.13507,2.779279 0.0683,0.124353 0.16743,0.321346 0.22021,0.437762 0.11339,0.250137 0.18073,0.378622 0.95407,1.820334 0.32472,0.605366 0.83086,1.437305 1.12476,1.848751 0.2939,0.411447 0.59914,0.925797 0.67832,1.143 0.0792,0.217204 0.23734,0.636152 0.35148,0.930996 0.17118,0.442227 0.1955,0.60528 0.13888,0.931334 -0.0378,0.217388 -0.0569,0.596319 -0.0425,0.842068 0.0455,0.776481 -0.18642,0.862331 -1.0801,0.399851 -0.31494,-0.162984 -0.61342,-0.296334 -0.66327,-0.296334 -0.0499,0 -0.19979,-0.05692 -0.33317,-0.126478 -0.13338,-0.06956 -0.34052,-0.126713 -0.46032,-0.127 -0.1198,-2.87e-4 -0.57328,-0.173533 -1.00775,-0.384991 l -0.78993,-0.384469 -0.24109,0.230976 c -0.27786,0.26621 -0.29039,0.347056 -0.0899,0.580296 0.1583,0.184165 0.79307,0.635 0.89406,0.635 0.0344,0 0.14086,0.07301 0.23665,0.162254 0.0958,0.08924 0.27517,0.187026 0.39863,0.217301 0.5104,0.125166 2.05422,0.902213 2.017,1.015209 -0.0149,0.04534 -0.21482,0.135967 -0.44418,0.2014 -0.22936,0.06543 -0.74698,0.228365 -1.15026,0.36207 -0.40328,0.133704 -0.79465,0.243099 -0.86971,0.243099 -0.16933,0 -1.45429,0.63996 -1.52959,0.761792 -0.41164,0.666038 0.65476,1.000242 1.72209,0.539696 0.17038,-0.07352 0.50028,-0.183773 0.73311,-0.245009 0.23284,-0.06124 0.75853,-0.231238 1.16821,-0.377781 0.40968,-0.146542 0.90498,-0.273474 1.10067,-0.28207 l 0.35579,-0.01563 -0.01,0.677333 c -0.005,0.372534 -0.0296,1.191684 -0.0535,1.820334 l -0.0435,1.143 -0.49684,0.06148 c -0.27326,0.03381 -0.58213,0.09947 -0.68637,0.145913 -0.10425,0.04644 -0.8853,0.125638 -1.73567,0.175999 -1.50004,0.08884 -1.89951,0.13953 -3.95913,0.502415 -0.53552,0.09435 -1.12607,0.172436 -1.31233,0.173517 -0.52039,0.003 -2.00575,0.467865 -2.18017,0.682285 -0.164082,0.201717 -0.201193,0.688349 -0.156124,2.047225 0.02994,0.902844 0.04498,0.879471 -0.496082,0.771259 -0.324661,-0.06493 -0.394213,-0.208818 -0.600519,-1.24232 -0.278397,-1.394647 -1.774525,-1.358114 -4.671595,0.114071 -0.674375,0.342692 -1.843028,0.969039 -2.64818,1.419308 -0.372533,0.208334 -1.058333,0.577829 -1.524,0.821101 -0.912408,0.476656 -1.535574,0.878194 -2.150971,1.38598 -0.367751,0.303445 -1.045213,0.797978 -1.350695,0.985979 -0.554848,0.341467 -2.759534,2.169128 -3.359721,2.785172 -0.30428,0.31232 -1.229433,1.096606 -1.463468,1.240636 -0.124564,0.07666 -0.474129,0.401534 -0.776812,0.721945 -0.302684,0.32041 -0.893234,0.927853 -1.312334,1.349872 -0.997567,1.004516 -1.855447,2.077982 -2.907506,3.638163 -0.471011,0.6985 -1.010702,1.47955 -1.199314,1.735667 -0.188612,0.256117 -0.408537,0.573022 -0.488722,0.704234 -0.08019,0.131212 -0.367552,0.531262 -0.638594,0.889 -0.271041,0.357738 -0.546216,0.764733 -0.6115,0.904433 -0.06528,0.1397 -0.193335,0.34925 -0.284556,0.465666 -0.208485,0.266069 -1.081539,1.5917 -1.362808,2.069267 -0.116417,0.197664 -0.284443,0.470166 -0.373393,0.605561 -0.08895,0.135395 -0.243706,0.379522 -0.343905,0.542506 -0.100199,0.162983 -0.318402,0.505883 -0.484896,0.762 -0.702819,1.08114 -1.001064,1.854735 -0.784387,2.034561 0.638726,0.530095 0.811629,1.45577 0.450238,2.410439 -0.12653,0.334247 -0.908772,2.92132 -1.441545,4.767559 -1.137319,3.941191 -3.306755,6.838073 -6.946022,9.275133 -0.996691,0.667441 -0.93154,0.757781 -1.095443,-1.518991 -0.288376,-4.00581 -0.418765,-5.422608 -0.533105,-5.792701 -0.06474,-0.20955 -0.142818,-0.929194 -0.173506,-1.599207 -0.03069,-0.670014 -0.08656,-1.299127 -0.124165,-1.398029 -0.0376,-0.0989 -0.09439,-0.712758 -0.126192,-1.364126 -0.0318,-0.651368 -0.11073,-1.641505 -0.175394,-2.200305 -0.06466,-0.5588 -0.157702,-1.6637 -0.206752,-2.455333 C 59.687931,82.8537 59.609927,81.92025 59.563638,81.571 c -0.04629,-0.34925 -0.139684,-1.37795 -0.207544,-2.286 -0.142109,-1.901586 -0.28113,-3.204083 -0.354689,-3.323104 -0.02811,-0.04548 -0.101241,-0.640366 -0.162513,-1.321962 -0.06127,-0.681597 -0.188516,-1.658367 -0.282763,-2.1706 -0.352163,-1.914008 -0.303687,-2.056779 0.902819,-2.658939 0.384175,-0.19174 0.6985,-0.357883 0.6985,-0.369206 0,-0.01132 0.09756,-0.287124 0.216796,-0.612889 0.320883,-0.876668 0.332858,-1.6243 0.08611,-5.375966 -0.293721,-4.465935 -0.378416,-4.858876 -1.242138,-5.762894 -0.158641,-0.166042 -0.478938,-0.562498 -0.711771,-0.881014 -0.232833,-0.318515 -0.575733,-0.743789 -0.762,-0.945053 -0.461134,-0.498262 -0.810405,-0.931315 -1.120607,-1.389414 -0.143278,-0.21159 -0.370831,-0.502813 -0.505673,-0.647163 -0.227584,-0.243628 -0.255869,-0.351031 -0.394359,-1.497396 -0.08205,-0.679218 -0.184853,-1.359293 -0.228442,-1.511278 -0.04359,-0.151985 -0.07925,-0.393015 -0.07925,-0.535623 0,-0.142607 -0.07077,-0.485758 -0.157272,-0.762559 -0.493623,-1.579608 -0.593597,-2.870707 -0.271058,-3.500554 0.183969,-0.359251 0.275224,-1.469971 0.138894,-1.690558 -0.02588,-0.04187 -0.08498,-0.337734 -0.131339,-0.657476 -0.04636,-0.319743 -0.180201,-0.768783 -0.297425,-0.997867 -0.117224,-0.229084 -0.213134,-0.536494 -0.213134,-0.683133 0,-0.146639 -0.0534,-0.454507 -0.118671,-0.684151 -0.06527,-0.229643 -0.143398,-0.561494 -0.173622,-0.737446 -0.0531,-0.309132 -0.874608,-1.246421 -1.092454,-1.246421 -0.04452,0 -0.203489,-0.09348 -0.353275,-0.207723 -1.707623,-1.302468 -4.496259,0.208331 -4.561523,2.471293 -0.01714,0.59442 -0.09037,1.328413 -0.162717,1.631097 -0.349309,1.461329 -0.265296,2.967582 0.194829,3.493078 0.537857,0.614271 0.53768,0.613469 0.640361,2.899255 0.123185,2.742245 0.202749,2.585374 -1.400262,2.760813 -2.41996,0.264848 -2.983152,0.128629 -2.958955,-0.715683 0.0055,-0.193488 -0.02737,-0.830907 -0.07315,-1.416486 -0.09824,-1.25665 -0.03776,-1.693509 0.280443,-2.025644 1.225082,-1.27871 -0.573486,-7.413805 -2.2382,-7.634722 -2.50933,-0.333002 -3.736608,0.198055 -4.16055,1.800318 -0.398741,1.507016 -0.713906,4.986182 -0.484496,5.348444 0.45426,0.717323 0.503348,1.00235 0.494272,2.869948 -0.0127,2.614224 -0.07568,2.714166 -1.879326,2.98272 -1.807836,0.269177 -1.904394,0.407798 -1.76986,2.540852 0.05317,0.843025 0.132811,2.142373 0.17698,2.88744 0.04417,0.745067 0.11946,1.602317 0.167315,1.905 0.107854,0.682171 0.262687,2.505474 0.29624,3.48851 0.02425,0.710434 0.472225,1.59149 0.8092,1.59149 0.03487,0 0.219579,0.130481 0.41046,0.289958 0.190881,0.159476 0.737411,0.499955 1.214511,0.756618 0.542242,0.291707 1.014794,0.619452 1.260463,0.874209 0.492165,0.51037 0.475933,0.390173 0.792483,5.868548 0.06861,1.18745 0.161052,2.541846 0.205419,3.009768 0.04437,0.467922 0.104069,1.439472 0.132671,2.159 0.0286,0.719528 0.106704,2.184532 0.17356,3.255565 0.06686,1.071034 0.115342,2.480734 0.107746,3.132667 -0.01886,1.618842 0.161835,4.638713 0.311565,5.207 0.06748,0.256117 0.162882,1.132417 0.212003,1.947333 0.04912,0.814917 0.146883,2.434167 0.217249,3.598334 0.07036,1.164166 0.163036,2.497666 0.205935,2.963333 0.0429,0.465667 0.137372,1.856313 0.209938,3.090333 0.07257,1.23402 0.209188,3.44382 0.303602,4.91067 0.09441,1.46685 0.207712,3.3147 0.251775,4.10633 0.04406,0.79163 0.117348,1.83938 0.162859,2.32833 0.111845,1.20164 0.2315,3.09687 0.387542,6.13834 l 0.130314,2.54 -0.495895,0.46566 c -0.272742,0.25612 -0.822216,0.76513 -1.221053,1.13113 l -0.725158,0.66545 0.03568,0.73155 c 0.01962,0.40235 0.07081,0.94109 0.113753,1.19721 0.04294,0.25611 0.119331,0.71331 0.169755,1.016 0.05042,0.30268 0.127009,1.33138 0.17019,2.286 0.04318,0.95461 0.119024,2.01754 0.168541,2.36206 l 0.09003,0.62639 -0.278089,0.23626 c -0.273716,0.23255 -0.630222,0.45073 -1.802088,1.1029 -0.325967,0.18141 -0.878417,0.53935 -1.227667,0.79543 -1.324244,0.97097 -1.734217,1.19433 -3.725334,2.02957 -1.542208,0.64694 -2.249284,0.90919 -3.799198,1.40911 -2.378089,0.76705 -2.848779,1.49219 -2.032721,3.13159 0.03732,0.075 0.181858,0.57241 0.3212,1.10544 0.50022,1.91347 0.488656,1.90194 2.293386,2.28712 0.384731,0.0821 0.997779,0.2611 2.063967,0.60261 0.95444,0.30572 1.31494,0.89535 1.611582,2.63591 0.07881,0.46241 0.165819,0.8772 0.193361,0.92176 0.02754,0.0446 0.117484,0.40919 0.199872,0.81027 0.1618,0.78769 0.393118,1.63025 0.723205,2.63424 0.114824,0.34925 0.302098,1.0541 0.416165,1.56634 0.114066,0.51223 0.261226,1.12416 0.327022,1.35985 0.0658,0.23568 0.146961,0.75663 0.180367,1.15767 l 0.06074,0.72914 -0.39936,0.42695 c -0.219649,0.23482 -0.473804,0.45058 -0.564791,0.47946 -0.148798,0.0472 -0.734479,0.42777 -1.45778,0.94719 -0.657677,0.47229 -1.093504,0.77566 -1.754265,1.2211 -0.44908,0.30275 -0.976249,0.77069 -1.43075,1.27 -0.648526,0.71248 -1.166804,1.21108 -3.522073,3.38837 -0.386961,0.35772 -0.939732,0.81492 -1.228378,1.016 -0.288647,0.20108 -0.699954,0.49192 -0.914014,0.64631 -0.214061,0.15439 -0.570177,0.39579 -0.791368,0.53643 -0.221192,0.14064 -0.402427,0.28102 -0.402746,0.31196 -3.18e-4,0.0309 -0.143193,0.14955 -0.3175,0.2636 -0.973874,0.63723 -1.271253,1.07062 -0.930755,1.35647 0.881504,0.74001 2.93593,1.96749 3.619501,2.16258 1.487649,0.42458 1.574782,0.78555 1.608785,6.6649 0.0067,1.16153 0.04425,1.94511 0.09465,1.97626 0.07764,0.048 0.04889,1.24121 -0.0539,2.23742 -0.02162,0.20955 -0.115924,1.58115 -0.209558,3.048 -0.378669,5.93212 -0.472452,7.09338 -0.583682,7.22741 -0.05163,0.0622 -0.132406,0.56651 -0.17951,1.12068 -0.04711,0.55417 -0.102657,1.19808 -0.12345,1.43091 -0.02079,0.23284 -0.13625,1.75684 -0.256574,3.38667 -0.120323,1.62983 -0.23758,3.17288 -0.26057,3.429 -0.02299,0.25612 -0.05785,0.67522 -0.07746,0.93133 -0.140586,1.8358 -0.656438,8.65907 -0.675303,8.93234 -0.01286,0.18626 -0.0485,0.62441 -0.07921,0.97366 -0.03071,0.34925 -0.07275,0.92075 -0.09342,1.27 -0.02067,0.34925 -0.07737,1.11125 -0.12598,1.69334 -0.04862,0.58208 -0.108092,1.42028 -0.132169,1.86266 -0.02408,0.44239 -0.07627,1.05199 -0.115973,1.35467 -0.122287,0.93215 -0.106528,2.71027 0.07391,8.33967 0.09553,2.98026 0.230382,7.38386 0.299678,9.78578 0.360338,12.48978 0.438993,14.647 0.537643,14.74565 0.04592,0.0459 0.858309,0.19625 1.8053,0.33407 0.94699,0.13781 1.855151,0.28385 2.018134,0.32453 0.375507,0.0937 3.013471,0.0214 4.783667,-0.13122 z"
       id="path2-20"
       transform="translate(-8.3494454,-26.207001)" /><path
       id="path21"
       style="clip-rule:evenodd;display:inline;fill:none;fill-opacity:1;fill-rule:evenodd;stroke:#0029ff;stroke-width:1;stroke-linejoin:round;stroke-miterlimit:2;stroke-dasharray:none;stroke-opacity:1"
       d="M 0,0 V 29.980083 H 3 V 207.78008 H 0 v 36.79672 l 45.6644,2e-4 v -3 h 101.6 v 2.9998 h 45.66491 V 207.78008 H 189.929 V 29.980083 h 3 L 192.92931,0 H 147.2644 v 3 h -101.6 V 0 Z" /></g></svg>
